solid
facet normal 4.63335135748 -3.02421874407 -3.65707155056
outer loop
vertex 11.8167800903 18.3131198883 -7.7956328392
vertex 10.5883512497 18.8535881042 -9.7989397049
vertex 12.6009063721 20.9451618195 -8.97874832153
endloop
endfacet
facet normal -10.1423062818 -7.83779799758 13.7006225295
outer loop
vertex -10.7674341202 20.7484359741 10.9740114212
vertex -7.88216781616 17.1286182404 11.0391073227
vertex -7.36129808426 21.2236194611 13.7673492432
endloop
endfacet
facet normal -16.9768486886 -7.90138494885 -6.72854488881
outer loop
vertex -10.5066900253 13.0733995438 -4.76496601105
vertex -12.8673343658 16.2152462006 -2.49830031395
vertex -11.2730836868 16.9437141418 -7.37621355057
endloop
endfacet
facet normal -7.17024827313 -4.8785898259 5.13816280611
outer loop
vertex -6.30292224884 8.37186813354 6.68240642548
vertex -8.26588153839 11.2494354248 6.6753153801
vertex -8.56932258606 9.07670021057 4.18889522552
endloop
endfacet
facet normal 7.00040557873 -4.84175024418 7.26933539482
outer loop
vertex 12.1471509933 21.5626525879 10.0745706558
vertex 9.73286819458 22.2255001068 12.8410272598
vertex 9.23771286011 19.3504753113 11.4029502869
endloop
endfacet
facet normal -10.4132658126 -5.23956949747 -4.58491730083
outer loop
vertex -15.9545917511 26.8931598663 -9.25890445709
vertex -15.9035024643 24.2630958557 -6.36934375763
vertex -17.7012062073 27.0652217865 -5.48862266541
endloop
endfacet
facet normal 28.1732559204 -14.0866279602 -4.05070304871
outer loop
vertex 17.5 25.0 0.0
vertex 19.1898593903 30.0 -5.63465118408
vertex 20.0 30.0 0.0
endloop
endfacet
facet normal 35.1017578645 -18.7911026612 -6.14740416617
outer loop
vertex 19.1898593903 30.0 -5.63465118408
vertex 17.5 25.0 0.0
vertex 15.9525566101 24.0592041016 -5.96014022827
endloop
endfacet
facet normal 29.8007011414 -14.9003505707 -5.38522720337
outer loop
vertex 15.0 20.0 0.0
vertex 15.9525566101 24.0592041016 -5.96014022827
vertex 17.5 25.0 0.0
endloop
endfacet
facet normal 23.3159260489 -10.9491424085 -3.73062771061
outer loop
vertex 15.9525566101 24.0592041016 -5.96014022827
vertex 15.0 20.0 0.0
vertex 13.8588323593 19.0534896851 -4.35420131683
endloop
endfacet
facet normal 15.5353541432 -8.30334995694 -7.43192345724
outer loop
vertex 11.5799007416 14.5877981186 -4.12866210938
vertex 11.8167800903 18.3131198883 -7.7956328392
vertex 13.8588323593 19.0534896851 -4.35420131683
endloop
endfacet
facet normal 12.7989766392 -8.02137306435 -7.32222437179
outer loop
vertex 11.8167800903 18.3131198883 -7.7956328392
vertex 11.5799007416 14.5877981186 -4.12866210938
vertex 9.63749217987 14.9513902664 -7.92222929001
endloop
endfacet
facet normal 8.95108797651 -8.64471035782 -15.5094417538
outer loop
vertex 8.29878234863 16.6456642151 -10.4224796295
vertex 6.18165588379 11.1684026718 -8.59141731262
vertex 4.64814043045 14.526717186 -11.3483371735
endloop
endfacet
facet normal 10.5922038512 -7.74460728774 -10.9194560917
outer loop
vertex 6.18165588379 11.1684026718 -8.59141731262
vertex 8.29878234863 16.6456642151 -10.4224796295
vertex 9.63749217987 14.9513902664 -7.92222929001
endloop
endfacet
facet normal 3.78440952385 -2.81050793476 -3.94405979112
outer loop
vertex 8.29878234863 16.6456642151 -10.4224796295
vertex 10.0175619125 20.0257740021 -11.1819152832
vertex 10.5883512497 18.8535881042 -9.7989397049
endloop
endfacet
facet normal 4.49753590347 -3.62599388507 -5.95966833755
outer loop
vertex 10.0175619125 20.0257740021 -11.1819152832
vertex 8.29878234863 16.6456642151 -10.4224796295
vertex 7.91594839096 19.3601760864 -12.3629589081
endloop
endfacet
facet normal 2.91591598737 -8.86330852944 -16.8736718829
outer loop
vertex 0.965296328068 21.9279670715 -15.9347724915
vertex 4.48320198059 18.3916893005 -13.4693317413
vertex 0.214659899473 17.886013031 -13.9413537979
endloop
endfacet
facet normal 3.28379970298 -8.14398864332 -16.3668518667
outer loop
vertex 4.48320198059 18.3916893005 -13.4693317413
vertex 0.965296328068 21.9279670715 -15.9347724915
vertex 5.31626605988 22.2067165375 -15.2005090714
endloop
endfacet
facet normal 0.0 -11.1946877398 -23.7764869659
outer loop
vertex 1.7092063427 25.8232593536 -17.8298931122
vertex -2.84629678726 30.0 -19.7964286804
vertex 2.84629678726 30.0 -19.7964286804
endloop
endfacet
facet normal -1.12351980614 -11.8496576401 -22.5649357349
outer loop
vertex -2.84629678726 30.0 -19.7964286804
vertex 1.7092063427 25.8232593536 -17.8298931122
vertex -3.4910223484 25.6377849579 -17.4735717773
endloop
endfacet
facet normal 5.5174541735 -6.05641357746 -11.1305360422
outer loop
vertex 7.91594839096 19.3601760864 -12.3629589081
vertex 5.31626605988 22.2067165375 -15.2005090714
vertex 8.97155189514 22.4858341217 -13.5404434204
endloop
endfacet
facet normal 5.89746486122 -6.86437223101 -12.2892095005
outer loop
vertex 5.31626605988 22.2067165375 -15.2005090714
vertex 7.91594839096 19.3601760864 -12.3629589081
vertex 4.48320198059 18.3916893005 -13.4693317413
endloop
endfacet
facet normal 4.47526973323 -3.72133116157 -5.86631769863
outer loop
vertex 8.97155189514 22.4858341217 -13.5404434204
vertex 10.0175619125 20.0257740021 -11.1819152832
vertex 7.91594839096 19.3601760864 -12.3629589081
endloop
endfacet
facet normal 5.01747479619 -3.6552741338 -6.03788557662
outer loop
vertex 10.0175619125 20.0257740021 -11.1819152832
vertex 8.97155189514 22.4858341217 -13.5404434204
vertex 11.5303411484 22.2402439117 -11.2654151917
endloop
endfacet
facet normal 5.51735250763 -7.85315633755 -13.3200672407
outer loop
vertex 4.12004423141 3.76748394966 -5.51462984085
vertex 3.53553390503 0.0 -3.53553390503
vertex -9.18485046795e-16 0.0 -5.0
endloop
endfacet
facet normal 5.25610049883 -3.38895632459 -4.89900128914
outer loop
vertex 3.53553390503 0.0 -3.53553390503
vertex 4.12004423141 3.76748394966 -5.51462984085
vertex 5.24762392044 2.65396571159 -3.53456568718
endloop
endfacet
facet normal 15.7382340161 -9.10007067007 -3.58024993669
outer loop
vertex 10.0 10.0 0.0
vertex 7.06690645218 6.66372013092 -4.41347122192
vertex 9.20880699158 10.3206882477 -4.29307079315
endloop
endfacet
facet normal 22.0673561096 -11.0336780548 -6.32476806641
outer loop
vertex 7.06690645218 6.66372013092 -4.41347122192
vertex 10.0 10.0 0.0
vertex 7.5 5.0 0.0
endloop
endfacet
facet normal 28.1732559204 -14.0866279602 4.05070304871
outer loop
vertex 19.1898593903 30.0 5.63465118408
vertex 17.5 25.0 0.0
vertex 20.0 30.0 0.0
endloop
endfacet
facet normal 28.5865620689 -14.8671004421 4.61931555528
outer loop
vertex 17.5 25.0 0.0
vertex 19.1898593903 30.0 5.63465118408
vertex 16.5122108459 24.8108539581 5.50415802002
endloop
endfacet
facet normal 18.5302992483 -9.61645707753 -3.16949959822
outer loop
vertex 13.8588323593 19.0534896851 -4.35420131683
vertex 12.5 15.0 0.0
vertex 11.5799007416 14.5877981186 -4.12866210938
endloop
endfacet
facet normal 21.7710065842 -10.8855032921 -3.33956241608
outer loop
vertex 12.5 15.0 0.0
vertex 13.8588323593 19.0534896851 -4.35420131683
vertex 15.0 20.0 0.0
endloop
endfacet
facet normal 9.38318575612 -6.05173437574 -3.88664280184
outer loop
vertex 5.24762392044 2.65396571159 -3.53456568718
vertex 5.0 0.0 0.0
vertex 3.53553390503 0.0 -3.53553390503
endloop
endfacet
facet normal 17.6728284359 -8.83641421795 -5.39679467678
outer loop
vertex 5.0 0.0 0.0
vertex 5.24762392044 2.65396571159 -3.53456568718
vertex 7.5 5.0 0.0
endloop
endfacet
facet normal 9.78471702291 -5.45414556905 -8.40739712787
outer loop
vertex 5.44094657898 7.81284618378 -7.05127429962
vertex 9.20880699158 10.3206882477 -4.29307079315
vertex 7.06690645218 6.66372013092 -4.41347122192
endloop
endfacet
facet normal 13.1177431039 -7.84607089022 -10.7856865018
outer loop
vertex 9.20880699158 10.3206882477 -4.29307079315
vertex 5.44094657898 7.81284618378 -7.05127429962
vertex 6.18165588379 11.1684026718 -8.59141731262
endloop
endfacet
facet normal 8.61983971304 -12.8003767553 -20.3873711556
outer loop
vertex 1.00213420391 9.21673774719 -9.55596542358
vertex 4.64814043045 14.526717186 -11.3483371735
vertex 6.18165588379 11.1684026718 -8.59141731262
endloop
endfacet
facet normal 3.51453152713 -11.27098189 -26.2415864694
outer loop
vertex 4.64814043045 14.526717186 -11.3483371735
vertex 1.00213420391 9.21673774719 -9.55596542358
vertex -1.13117825985 13.3071699142 -11.5985546112
endloop
endfacet
facet normal -8.07034179351 -12.6222118606 -22.5065129681
outer loop
vertex -8.30830001831 30.0 -18.1926403046
vertex -3.4910223484 25.6377849579 -17.4735717773
vertex -8.39947509766 25.4105224609 -15.5860538483
endloop
endfacet
facet normal -6.99606977752 -11.6534485493 -23.8264326546
outer loop
vertex -3.4910223484 25.6377849579 -17.4735717773
vertex -8.30830001831 30.0 -18.1926403046
vertex -2.84629678726 30.0 -19.7964286804
endloop
endfacet
facet normal -14.6266559468 -9.00675821519 3.07705943018
outer loop
vertex -8.77105712891 7.64624166489 -0.957087934017
vertex -8.56932258606 9.07670021057 4.18889522552
vertex -10.4544973373 10.9623222351 0.747147977352
endloop
endfacet
facet normal -12.2521755973 -4.80860321708 1.81698896359
outer loop
vertex -8.56932258606 9.07670021057 4.18889522552
vertex -8.77105712891 7.64624166489 -0.957087934017
vertex -7.69646501541 6.25912427902 2.61805438995
endloop
endfacet
facet normal -16.0940849186 -7.43032858442 1.66806994554
outer loop
vertex -18.2228965759 26.4716510773 -0.686546623707
vertex -16.2109546661 22.8856143951 2.75151848793
vertex -17.5019626617 26.0157604218 4.23851919174
endloop
endfacet
facet normal -15.5787383386 -8.23997839286 0.521994706349
outer loop
vertex -16.2109546661 22.8856143951 2.75151848793
vertex -18.2228965759 26.4716510773 -0.686546623707
vertex -16.3892879486 22.9440231323 -1.64875757694
endloop
endfacet
facet normal -18.9010326926 -11.4028756331 -14.4651948229
outer loop
vertex -12.9612007141 21.208190918 -8.68879032135
vertex -15.9545917511 26.8931598663 -9.25890445709
vertex -12.8111200333 25.7555389404 -12.4695568085
endloop
endfacet
facet normal -14.9276261805 -8.62045837401 -7.58236902702
outer loop
vertex -15.9545917511 26.8931598663 -9.25890445709
vertex -12.9612007141 21.208190918 -8.68879032135
vertex -15.9035024643 24.2630958557 -6.36934375763
endloop
endfacet
facet normal -22.4498002572 -10.6417725235 3.22779428128
outer loop
vertex -20.0 30.0 1.13310773728e-14
vertex -17.5019626617 26.0157604218 4.23851919174
vertex -19.1898593903 30.0 5.63465118408
endloop
endfacet
facet normal -17.6903408546 -9.24730606911 1.73354155455
outer loop
vertex -17.5019626617 26.0157604218 4.23851919174
vertex -20.0 30.0 1.13310773728e-14
vertex -18.2228965759 26.4716510773 -0.686546623707
endloop
endfacet
facet normal -17.5110778764 -8.30315187219 -2.92870589643
outer loop
vertex -17.7012062073 27.0652217865 -5.48862266541
vertex -16.3892879486 22.9440231323 -1.64875757694
vertex -18.2228965759 26.4716510773 -0.686546623707
endloop
endfacet
facet normal -14.3894121151 -8.05837392375 -3.7325340745
outer loop
vertex -16.3892879486 22.9440231323 -1.64875757694
vertex -17.7012062073 27.0652217865 -5.48862266541
vertex -15.9035024643 24.2630958557 -6.36934375763
endloop
endfacet
facet normal -19.2654980616 -14.1417584006 -20.2122841552
outer loop
vertex -11.2730836868 16.9437141418 -7.37621355057
vertex -8.16879653931 20.9965133667 -13.1706771851
vertex -6.66526937485 16.4483547211 -11.4216041565
endloop
endfacet
facet normal -19.3907454802 -13.856347925 -20.0797598267
outer loop
vertex -8.16879653931 20.9965133667 -13.1706771851
vertex -11.2730836868 16.9437141418 -7.37621355057
vertex -12.9612007141 21.208190918 -8.68879032135
endloop
endfacet
facet normal -14.7893418957 -8.71669888129 -15.778116024
outer loop
vertex -7.54667520523 13.1189012527 -8.75606060028
vertex -11.2730836868 16.9437141418 -7.37621355057
vertex -6.66526937485 16.4483547211 -11.4216041565
endloop
endfacet
facet normal -15.3279754254 -10.7880810116 -11.4910607901
outer loop
vertex -11.2730836868 16.9437141418 -7.37621355057
vertex -7.54667520523 13.1189012527 -8.75606060028
vertex -10.5066900253 13.0733995438 -4.76496601105
endloop
endfacet
facet normal -1.5229591934 -6.98763192769 -14.7419485173
outer loop
vertex -3.29231953621 18.6412372589 -13.9370288849
vertex 0.965296328068 21.9279670715 -15.9347724915
vertex 0.214659899473 17.886013031 -13.9413537979
endloop
endfacet
facet normal -1.2411865505 -7.06994392581 -14.2768526095
outer loop
vertex 0.965296328068 21.9279670715 -15.9347724915
vertex -3.29231953621 18.6412372589 -13.9370288849
vertex -3.67248725891 21.7010116577 -15.4191884995
endloop
endfacet
facet normal -5.61914294209 -14.275054313 -22.7181040394
outer loop
vertex 1.00213420391 9.21673774719 -9.55596542358
vertex -5.21543693542 10.48914814 -8.81762504578
vertex -1.13117825985 13.3071699142 -11.5985546112
endloop
endfacet
facet normal -3.35514029048 -6.30597248485 -17.3863422592
outer loop
vertex -5.21543693542 10.48914814 -8.81762504578
vertex 1.00213420391 9.21673774719 -9.55596542358
vertex -3.09572386742 7.2590303421 -8.05512428284
endloop
endfacet
facet normal -1.08632010591 -10.2021846887 -16.2738596805
outer loop
vertex 2.41785120964 5.92177248001 -7.58483362198
vertex -3.09572386742 7.2590303421 -8.05512428284
vertex 1.00213420391 9.21673774719 -9.55596542358
endloop
endfacet
facet normal -0.108189558335 -6.399729773 -16.9290576327
outer loop
vertex -3.09572386742 7.2590303421 -8.05512428284
vertex 2.41785120964 5.92177248001 -7.58483362198
vertex -1.37084138393 3.77024674416 -6.74727487564
endloop
endfacet
facet normal -4.16626711803 -5.45186980576 -10.058258572
outer loop
vertex -4.3195977211 2.84490513802 -4.75278568268
vertex -9.18485046795e-16 0.0 -5.0
vertex -3.53553390503 0.0 -3.53553390503
endloop
endfacet
facet normal -5.90289024623 -7.88641618784 -12.3860355475
outer loop
vertex -9.18485046795e-16 0.0 -5.0
vertex -4.3195977211 2.84490513802 -4.75278568268
vertex -1.37084138393 3.77024674416 -6.74727487564
endloop
endfacet
facet normal -5.74813371164 -7.29678869996 -11.8836782711
outer loop
vertex -4.3195977211 2.84490513802 -4.75278568268
vertex -3.09572386742 7.2590303421 -8.05512428284
vertex -1.37084138393 3.77024674416 -6.74727487564
endloop
endfacet
facet normal -7.82850000597 -6.03541919416 -10.9686488391
outer loop
vertex -3.09572386742 7.2590303421 -8.05512428284
vertex -4.3195977211 2.84490513802 -4.75278568268
vertex -5.95681762695 5.90220975876 -5.26653528214
endloop
endfacet
facet normal -21.8763878589 -9.36826297473 -3.38079726596
outer loop
vertex -10.5066900253 13.0733995438 -4.76496601105
vertex -8.77105712891 7.64624166489 -0.957087934017
vertex -10.4544973373 10.9623222351 0.747147977352
endloop
endfacet
facet normal -17.311320536 -10.1142260765 -6.52473735615
outer loop
vertex -8.77105712891 7.64624166489 -0.957087934017
vertex -10.5066900253 13.0733995438 -4.76496601105
vertex -8.02981090546 9.0877199173 -5.15823602676
endloop
endfacet
facet normal -36.5970715379 -18.3577994683 3.06780247088
outer loop
vertex -14.1702947617 20.0700550079 5.0254149437
vertex -12.8673343658 16.2152462006 -2.49830031395
vertex -11.6323699951 14.9160900116 4.45991516113
endloop
endfacet
facet normal -23.7596015271 -12.7918881665 2.43928202073
outer loop
vertex -12.8673343658 16.2152462006 -2.49830031395
vertex -14.1702947617 20.0700550079 5.0254149437
vertex -14.6348171234 19.5722370148 -2.10983967781
endloop
endfacet
facet normal -8.20200981335 -3.94056797664 -4.1399811941
outer loop
vertex -5.95681762695 5.90220975876 -5.26653528214
vertex -5.77281570435 2.49300694466 -2.38608503342
vertex -7.10443544388 4.66570472717 -1.81596291065
endloop
endfacet
facet normal -7.05493727501 -4.62139957098 -5.01906478213
outer loop
vertex -5.77281570435 2.49300694466 -2.38608503342
vertex -5.95681762695 5.90220975876 -5.26653528214
vertex -4.3195977211 2.84490513802 -4.75278568268
endloop
endfacet
facet normal -8.81411057831 -6.22665675621 -3.65092414498
outer loop
vertex -5.77281570435 2.49300694466 -2.38608503342
vertex -3.53553390503 0.0 -3.53553390503
vertex -5.0 0.0 6.12323399823e-16
endloop
endfacet
facet normal -6.30469013581 -3.62457651597 -4.41017794755
outer loop
vertex -3.53553390503 0.0 -3.53553390503
vertex -5.77281570435 2.49300694466 -2.38608503342
vertex -4.3195977211 2.84490513802 -4.75278568268
endloop
endfacet
facet normal -11.2411725784 -4.61638901898 -1.1824118337
outer loop
vertex -6.4863820076 3.26487779617 1.38423061371
vertex -5.77281570435 2.49300694466 -2.38608503342
vertex -5.0 0.0 6.12323399823e-16
endloop
endfacet
facet normal -7.75169579753 -4.61380680444 -0.522525462507
outer loop
vertex -5.77281570435 2.49300694466 -2.38608503342
vertex -6.4863820076 3.26487779617 1.38423061371
vertex -7.10443544388 4.66570472717 -1.81596291065
endloop
endfacet
facet normal 0.0311073230505 -5.66830196996 12.8339953533
outer loop
vertex 1.96328055859 15.5444517136 12.6204309464
vertex -2.64718937874 17.5372409821 13.5117473602
vertex -1.22169589996 14.1374349594 12.0067234039
endloop
endfacet
facet normal -0.356076511864 -6.22557382513 12.0771664114
outer loop
vertex -2.64718937874 17.5372409821 13.5117473602
vertex 1.96328055859 15.5444517136 12.6204309464
vertex 1.79827070236 18.2352828979 14.0026435852
endloop
endfacet
facet normal -7.4412701827 -12.2994541565 22.7381356241
outer loop
vertex -3.01167702675 25.522480011 17.5040416718
vertex -8.30830001831 30.0 18.1926403046
vertex -7.90298986435 25.3644199371 15.8178157806
endloop
endfacet
facet normal -7.18099451104 -12.2557903425 24.4562286471
outer loop
vertex -8.30830001831 30.0 18.1926403046
vertex -3.01167702675 25.522480011 17.5040416718
vertex -2.84629678726 30.0 19.7964286804
endloop
endfacet
facet normal -14.3143623707 -12.9305046102 20.5052971863
outer loop
vertex -7.90298986435 25.3644199371 15.8178157806
vertex -13.0972146988 30.0 15.114991188
vertex -12.0714626312 25.1368579865 12.7643842697
endloop
endfacet
facet normal -14.266688885 -12.6202344634 22.1993974156
outer loop
vertex -13.0972146988 30.0 15.114991188
vertex -7.90298986435 25.3644199371 15.8178157806
vertex -8.30830001831 30.0 18.1926403046
endloop
endfacet
facet normal -30.2752337335 -17.0214072793 19.2599044888
outer loop
vertex -11.6323699951 14.9160900116 4.45991516113
vertex -10.7674341202 20.7484359741 10.9740114212
vertex -14.1702947617 20.0700550079 5.0254149437
endloop
endfacet
facet normal -23.9595029799 -18.7385986598 19.9587814977
outer loop
vertex -10.7674341202 20.7484359741 10.9740114212
vertex -11.6323699951 14.9160900116 4.45991516113
vertex -7.88216781616 17.1286182404 11.0391073227
endloop
endfacet
facet normal -20.6087449384 -11.0531549308 5.23252055907
outer loop
vertex -8.56932258606 9.07670021057 4.18889522552
vertex -11.6323699951 14.9160900116 4.45991516113
vertex -10.4544973373 10.9623222351 0.747147977352
endloop
endfacet
facet normal -13.9303219338 -7.69826138549 8.42710152749
outer loop
vertex -11.6323699951 14.9160900116 4.45991516113
vertex -8.56932258606 9.07670021057 4.18889522552
vertex -8.26588153839 11.2494354248 6.6753153801
endloop
endfacet
facet normal 29.3349719048 -14.6674859524 6.11136436462
outer loop
vertex 13.4698476791 19.3842411041 5.86699438095
vertex 12.5 15.0 0.0
vertex 15.0 20.0 0.0
endloop
endfacet
facet normal 22.2458191122 -10.4857294149 4.15833189656
outer loop
vertex 12.5 15.0 0.0
vertex 13.4698476791 19.3842411041 5.86699438095
vertex 11.4293823242 14.4478368759 4.33513593674
endloop
endfacet
facet normal 31.614487405 -17.2943327047 6.43018206853
outer loop
vertex 15.0 20.0 0.0
vertex 16.5122108459 24.8108539581 5.50415802002
vertex 13.4698476791 19.3842411041 5.86699438095
endloop
endfacet
facet normal 27.5207901001 -13.76039505 4.46608066559
outer loop
vertex 16.5122108459 24.8108539581 5.50415802002
vertex 15.0 20.0 0.0
vertex 17.5 25.0 0.0
endloop
endfacet
facet normal 23.6232943928 -12.3210526281 13.8052816974
outer loop
vertex 16.5122108459 24.8108539581 5.50415802002
vertex 12.1471509933 21.5626525879 10.0745706558
vertex 13.4698476791 19.3842411041 5.86699438095
endloop
endfacet
facet normal 18.2120807607 -11.2883184245 9.37116505663
outer loop
vertex 12.1471509933 21.5626525879 10.0745706558
vertex 16.5122108459 24.8108539581 5.50415802002
vertex 14.4770412445 25.4432678223 10.2211341858
endloop
endfacet
facet normal 18.770020826 -11.7499967435 11.983947262
outer loop
vertex 12.1471509933 21.5626525879 10.0745706558
vertex 9.61957550049 16.6651973724 9.23157310486
vertex 13.4698476791 19.3842411041 5.86699438095
endloop
endfacet
facet normal 8.37053977863 -5.81022902164 8.65739788945
outer loop
vertex 9.61957550049 16.6651973724 9.23157310486
vertex 12.1471509933 21.5626525879 10.0745706558
vertex 9.23771286011 19.3504753113 11.4029502869
endloop
endfacet
facet normal 9.60608692718 -8.68843875801 14.5796252778
outer loop
vertex 5.24972009659 14.4236660004 11.025847435
vertex 3.93840146065 8.72533130646 8.49402713776
vertex 7.14376211166 11.5359315872 8.0570306778
endloop
endfacet
facet normal 5.27763732641 -9.26169501799 18.1117016541
outer loop
vertex 3.93840146065 8.72533130646 8.49402713776
vertex 5.24972009659 14.4236660004 11.025847435
vertex 1.35530591011 11.3123140335 10.5696182251
endloop
endfacet
facet normal 11.5042023937 -10.7374652334 20.5810647093
outer loop
vertex 1.28893530369 4.16234922409 6.96287870407
vertex 3.53553390503 0.0 3.53553390503
vertex 5.67693042755 5.19355106354 5.04811429977
endloop
endfacet
facet normal 6.09561931411 -8.82742626057 14.7161268063
outer loop
vertex 3.53553390503 0.0 3.53553390503
vertex 1.28893530369 4.16234922409 6.96287870407
vertex 3.06161699911e-16 0.0 5.0
endloop
endfacet
facet normal -6.38843244201 -6.76463403783 11.5779970998
outer loop
vertex -5.52661466599 5.49747896194 5.43134355545
vertex -2.39924502373 8.83213615417 9.10527133942
vertex -6.30292224884 8.37186813354 6.68240642548
endloop
endfacet
facet normal -7.42120883293 -6.37617345571 12.1045427403
outer loop
vertex -2.39924502373 8.83213615417 9.10527133942
vertex -5.52661466599 5.49747896194 5.43134355545
vertex -2.33086824417 5.03452634811 7.14676856995
endloop
endfacet
facet normal -0.510366171238 -10.1016497973 20.5725547507
outer loop
vertex -3.01167702675 25.522480011 17.5040416718
vertex 1.80893015862 21.7211933136 15.7571029663
vertex 2.15663552284 25.7146377563 17.7266120911
endloop
endfacet
facet normal -0.720538270498 -10.0731770054 19.9306373362
outer loop
vertex 1.80893015862 21.7211933136 15.7571029663
vertex -3.01167702675 25.522480011 17.5040416718
vertex -2.93300533295 21.3259773254 15.3859243393
endloop
endfacet
facet normal 3.32192880018 -5.90007791838 11.4879367673
outer loop
vertex 1.35530591011 11.3123140335 10.5696182251
vertex 1.10769248009 7.11294746399 8.48447132111
vertex 3.93840146065 8.72533130646 8.49402713776
endloop
endfacet
facet normal -0.977794131468 -7.46619830046 15.1526103233
outer loop
vertex 1.10769248009 7.11294746399 8.48447132111
vertex 1.35530591011 11.3123140335 10.5696182251
vertex -2.39924502373 8.83213615417 9.10527133942
endloop
endfacet
facet normal -4.51114039841 -3.92051219806 6.13704484349
outer loop
vertex -2.55216693878 2.52497529984 5.71884584427
vertex -5.52661466599 5.49747896194 5.43134355545
vertex -4.72967720032 2.63780713081 4.19030952454
endloop
endfacet
facet normal -4.96600720157 -4.1836576248 8.122339592
outer loop
vertex -5.52661466599 5.49747896194 5.43134355545
vertex -2.55216693878 2.52497529984 5.71884584427
vertex -2.33086824417 5.03452634811 7.14676856995
endloop
endfacet
facet normal -4.10586353593 -3.25107202829 5.60911472084
outer loop
vertex -3.53553390503 0.0 3.53553390503
vertex -2.55216693878 2.52497529984 5.71884584427
vertex -4.72967720032 2.63780713081 4.19030952454
endloop
endfacet
facet normal -3.69774071725 -6.27906580545 8.92713578193
outer loop
vertex -2.55216693878 2.52497529984 5.71884584427
vertex -3.53553390503 0.0 3.53553390503
vertex 3.06161699911e-16 0.0 5.0
endloop
endfacet
facet normal 15.308459419 -8.9665305497 8.503421635
outer loop
vertex 13.4698476791 19.3842411041 5.86699438095
vertex 9.61076641083 14.2155361176 7.36418437958
vertex 11.4293823242 14.4478368759 4.33513593674
endloop
endfacet
facet normal 13.3195897471 -7.21959373132 9.40791027677
outer loop
vertex 9.61076641083 14.2155361176 7.36418437958
vertex 13.4698476791 19.3842411041 5.86699438095
vertex 9.61957550049 16.6651973724 9.23157310486
endloop
endfacet
facet normal 18.3619758726 -9.78610271351 7.60577944505
outer loop
vertex 5.0 0.0 0.0
vertex 5.67693042755 5.19355106354 5.04811429977
vertex 3.53553390503 0.0 3.53553390503
endloop
endfacet
facet normal 25.2405714989 -12.6202857494 9.59922552109
outer loop
vertex 5.67693042755 5.19355106354 5.04811429977
vertex 5.0 0.0 0.0
vertex 7.5 5.0 0.0
endloop
endfacet
facet normal 11.2284590534 -10.2856624136 16.2069394212
outer loop
vertex 5.67693042755 5.19355106354 5.04811429977
vertex 7.14376211166 11.5359315872 8.0570306778
vertex 3.93840146065 8.72533130646 8.49402713776
endloop
endfacet
facet normal 18.6517344407 -10.9248280832 13.9354028329
outer loop
vertex 7.14376211166 11.5359315872 8.0570306778
vertex 5.67693042755 5.19355106354 5.04811429977
vertex 8.98489379883 9.99639225006 4.38584136963
endloop
endfacet
facet normal 9.95601093072 -6.01180370463 12.1993367763
outer loop
vertex 9.61076641083 14.2155361176 7.36418437958
vertex 5.24972009659 14.4236660004 11.025847435
vertex 7.14376211166 11.5359315872 8.0570306778
endloop
endfacet
facet normal 8.58117471874 -8.1760246358 10.6849196215
outer loop
vertex 5.24972009659 14.4236660004 11.025847435
vertex 9.61076641083 14.2155361176 7.36418437958
vertex 9.61957550049 16.6651973724 9.23157310486
endloop
endfacet
facet normal 5.52238513807 -9.77098948075 12.8006180669
outer loop
vertex 1.10769248009 7.11294746399 8.48447132111
vertex 5.67693042755 5.19355106354 5.04811429977
vertex 3.93840146065 8.72533130646 8.49402713776
endloop
endfacet
facet normal 7.21876958671 -6.32970367689 13.1341086222
outer loop
vertex 5.67693042755 5.19355106354 5.04811429977
vertex 1.10769248009 7.11294746399 8.48447132111
vertex 1.28893530369 4.16234922409 6.96287870407
endloop
endfacet
facet normal 9.33776380911 -6.92770835477 9.80894361357
outer loop
vertex 12.1471509933 21.5626525879 10.0745706558
vertex 11.2683458328 25.8668117523 13.9510364532
vertex 9.73286819458 22.2255001068 12.8410272598
endloop
endfacet
facet normal 14.4122394683 -9.16054065685 13.4385231706
outer loop
vertex 11.2683458328 25.8668117523 13.9510364532
vertex 12.1471509933 21.5626525879 10.0745706558
vertex 14.4770412445 25.4432678223 10.2211341858
endloop
endfacet
facet normal 26.8702566753 -14.173895817 12.2712305776
outer loop
vertex 16.8250713348 30.0 10.8128166199
vertex 16.5122108459 24.8108539581 5.50415802002
vertex 19.1898593903 30.0 5.63465118408
endloop
endfacet
facet normal 21.1198089017 -12.2797760762 10.7586495926
outer loop
vertex 16.5122108459 24.8108539581 5.50415802002
vertex 16.8250713348 30.0 10.8128166199
vertex 14.4770412445 25.4432678223 10.2211341858
endloop
endfacet
facet normal -1.00947957383 -6.82589850758 13.2004276676
outer loop
vertex -2.33086824417 5.03452634811 7.14676856995
vertex 1.10769248009 7.11294746399 8.48447132111
vertex -2.39924502373 8.83213615417 9.10527133942
endloop
endfacet
facet normal -0.784513158074 -5.47453763502 10.5225101325
outer loop
vertex 1.10769248009 7.11294746399 8.48447132111
vertex -2.33086824417 5.03452634811 7.14676856995
vertex 1.28893530369 4.16234922409 6.96287870407
endloop
endfacet
facet normal 8.3424585408 -7.81048262896 13.8187611751
outer loop
vertex 5.24972009659 14.4236660004 11.025847435
vertex 9.23771286011 19.3504753113 11.4029502869
vertex 5.6760134697 18.4154052734 13.0246572495
endloop
endfacet
facet normal 9.68533534902 -8.80343797942 12.5902334003
outer loop
vertex 9.23771286011 19.3504753113 11.4029502869
vertex 5.24972009659 14.4236660004 11.025847435
vertex 9.61957550049 16.6651973724 9.23157310486
endloop
endfacet
facet normal -0.572680554702 -9.16930916619 16.9984832949
outer loop
vertex -1.22169589996 14.1374349594 12.0067234039
vertex -2.39924502373 8.83213615417 9.10527133942
vertex 1.35530591011 11.3123140335 10.5696182251
endloop
endfacet
facet normal -6.15276503875 -9.45915025026 19.793124382
outer loop
vertex -2.39924502373 8.83213615417 9.10527133942
vertex -1.22169589996 14.1374349594 12.0067234039
vertex -5.25601243973 12.7700777054 10.0991802216
endloop
endfacet
facet normal 0.0 -11.782624617 24.3948255727
outer loop
vertex -2.84629678726 30.0 19.7964286804
vertex 2.15663552284 25.7146377563 17.7266120911
vertex 2.84629678726 30.0 19.7964286804
endloop
endfacet
facet normal -0.556063582349 -11.8109637962 23.1094436563
outer loop
vertex 2.15663552284 25.7146377563 17.7266120911
vertex -2.84629678726 30.0 19.7964286804
vertex -3.01167702675 25.522480011 17.5040416718
endloop
endfacet
facet normal 6.58969298773 -11.2253231618 22.4424399955
outer loop
vertex 2.84629678726 30.0 19.7964286804
vertex 7.01850748062 25.8911705017 16.5161914825
vertex 8.30830001831 30.0 18.1926403046
endloop
endfacet
facet normal 5.55248117961 -10.8979634409 20.713134725
outer loop
vertex 7.01850748062 25.8911705017 16.5161914825
vertex 2.84629678726 30.0 19.7964286804
vertex 2.15663552284 25.7146377563 17.7266120911
endloop
endfacet
facet normal -6.49231515286 -9.95683492974 18.3921231466
outer loop
vertex -2.93300533295 21.3259773254 15.3859243393
vertex -7.90298986435 25.3644199371 15.8178157806
vertex -7.36129808426 21.2236194611 13.7673492432
endloop
endfacet
facet normal -6.7414616985 -10.4930327468 20.5388423126
outer loop
vertex -7.90298986435 25.3644199371 15.8178157806
vertex -2.93300533295 21.3259773254 15.3859243393
vertex -3.01167702675 25.522480011 17.5040416718
endloop
endfacet
facet normal 4.44997536397 -7.70933836194 14.590073902
outer loop
vertex 1.96328055859 15.5444517136 12.6204309464
vertex 1.35530591011 11.3123140335 10.5696182251
vertex 5.24972009659 14.4236660004 11.025847435
endloop
endfacet
facet normal 0.28823304362 -6.15867161071 12.6238283638
outer loop
vertex 1.35530591011 11.3123140335 10.5696182251
vertex 1.96328055859 15.5444517136 12.6204309464
vertex -1.22169589996 14.1374349594 12.0067234039
endloop
endfacet
facet normal 3.87441719302 -7.56579788158 15.0088367626
outer loop
vertex 1.79827070236 18.2352828979 14.0026435852
vertex 6.11541843414 22.020980835 14.7965354919
vertex 1.80893015862 21.7211933136 15.7571029663
endloop
endfacet
facet normal 3.84535854981 -7.30062009051 13.9023478898
outer loop
vertex 6.11541843414 22.020980835 14.7965354919
vertex 1.79827070236 18.2352828979 14.0026435852
vertex 5.6760134697 18.4154052734 13.0246572495
endloop
endfacet
facet normal 5.91624911058 -6.17045153407 10.2989889494
outer loop
vertex 6.11541843414 22.020980835 14.7965354919
vertex 9.23771286011 19.3504753113 11.4029502869
vertex 9.73286819458 22.2255001068 12.8410272598
endloop
endfacet
facet normal 7.50401724751 -7.02348374641 12.4311018628
outer loop
vertex 9.23771286011 19.3504753113 11.4029502869
vertex 6.11541843414 22.020980835 14.7965354919
vertex 5.6760134697 18.4154052734 13.0246572495
endloop
endfacet
facet normal 4.4264071012 -8.81566241785 17.0934839424
outer loop
vertex 6.11541843414 22.020980835 14.7965354919
vertex 2.15663552284 25.7146377563 17.7266120911
vertex 1.80893015862 21.7211933136 15.7571029663
endloop
endfacet
facet normal 4.98813292461 -9.45386483091 18.6569418234
outer loop
vertex 2.15663552284 25.7146377563 17.7266120911
vertex 6.11541843414 22.020980835 14.7965354919
vertex 7.01850748062 25.8911705017 16.5161914825
endloop
endfacet
facet normal -20.9220858921 -13.1756900576 18.1290962273
outer loop
vertex -16.8250713348 30.0 10.8128166199
vertex -12.0714626312 25.1368579865 12.7643842697
vertex -13.0972146988 30.0 15.114991188
endloop
endfacet
facet normal -20.8304867462 -13.9176752743 16.0570153652
outer loop
vertex -12.0714626312 25.1368579865 12.7643842697
vertex -16.8250713348 30.0 10.8128166199
vertex -15.4388484955 25.2039775848 8.45411014557
endloop
endfacet
facet normal -24.8345974995 -12.7559320897 11.3415765209
outer loop
vertex -19.1898593903 30.0 5.63465118408
vertex -15.4388484955 25.2039775848 8.45411014557
vertex -16.8250713348 30.0 10.8128166199
endloop
endfacet
facet normal -17.9292803134 -9.99586187109 6.84973552096
outer loop
vertex -15.4388484955 25.2039775848 8.45411014557
vertex -19.1898593903 30.0 5.63465118408
vertex -17.5019626617 26.0157604218 4.23851919174
endloop
endfacet
facet normal -19.0354709521 -11.6495965701 14.6899843808
outer loop
vertex -15.4388484955 25.2039775848 8.45411014557
vertex -10.7674341202 20.7484359741 10.9740114212
vertex -12.0714626312 25.1368579865 12.7643842697
endloop
endfacet
facet normal -28.213672193 -19.2134862267 18.330585781
outer loop
vertex -10.7674341202 20.7484359741 10.9740114212
vertex -15.4388484955 25.2039775848 8.45411014557
vertex -14.1702947617 20.0700550079 5.0254149437
endloop
endfacet
facet normal -11.0900668083 -5.86769751167 -4.86978552825
outer loop
vertex -19.1898593903 30.0 -5.63465118408
vertex -15.9545917511 26.8931598663 -9.25890445709
vertex -17.7012062073 27.0652217865 -5.48862266541
endloop
endfacet
facet normal -16.0877321947 -8.1821602148 -7.34701843819
outer loop
vertex -15.9545917511 26.8931598663 -9.25890445709
vertex -19.1898593903 30.0 -5.63465118408
vertex -16.8250713348 30.0 -10.8128166199
endloop
endfacet
facet normal -5.83575843973 -7.51905945585 -14.0255195362
outer loop
vertex -3.29231953621 18.6412372589 -13.9370288849
vertex -8.16879653931 20.9965133667 -13.1706771851
vertex -3.67248725891 21.7010116577 -15.4191884995
endloop
endfacet
facet normal -7.60503902413 -9.68154499876 -18.637769434
outer loop
vertex -8.16879653931 20.9965133667 -13.1706771851
vertex -3.29231953621 18.6412372589 -13.9370288849
vertex -6.66526937485 16.4483547211 -11.4216041565
endloop
endfacet
facet normal 6.24243876914 -8.69165388667 -15.9345612083
outer loop
vertex 5.44094657898 7.81284618378 -7.05127429962
vertex 1.00213420391 9.21673774719 -9.55596542358
vertex 6.18165588379 11.1684026718 -8.59141731262
endloop
endfacet
facet normal 5.48561495182 -5.20355041556 -12.6382194429
outer loop
vertex 1.00213420391 9.21673774719 -9.55596542358
vertex 5.44094657898 7.81284618378 -7.05127429962
vertex 2.41785120964 5.92177248001 -7.58483362198
endloop
endfacet
facet normal 8.90507077 -5.98280250708 -8.09547996609
outer loop
vertex 4.12004423141 3.76748394966 -5.51462984085
vertex 5.44094657898 7.81284618378 -7.05127429962
vertex 7.06690645218 6.66372013092 -4.41347122192
endloop
endfacet
facet normal 5.06434866034 -5.3502025091 -9.73159214253
outer loop
vertex 5.44094657898 7.81284618378 -7.05127429962
vertex 4.12004423141 3.76748394966 -5.51462984085
vertex 2.41785120964 5.92177248001 -7.58483362198
endloop
endfacet
facet normal 16.2473456689 -8.67555459722 -9.15058181626
outer loop
vertex 9.20880699158 10.3206882477 -4.29307079315
vertex 9.63749217987 14.9513902664 -7.92222929001
vertex 11.5799007416 14.5877981186 -4.12866210938
endloop
endfacet
facet normal 16.8278718997 -12.8286486511 -14.3812373634
outer loop
vertex 9.63749217987 14.9513902664 -7.92222929001
vertex 9.20880699158 10.3206882477 -4.29307079315
vertex 6.18165588379 11.1684026718 -8.59141731262
endloop
endfacet
facet normal 2.64975351283 -9.26905238609 -11.8242490931
outer loop
vertex 4.12004423141 3.76748394966 -5.51462984085
vertex -1.37084138393 3.77024674416 -6.74727487564
vertex 2.41785120964 5.92177248001 -7.58483362198
endloop
endfacet
facet normal 4.64254856771 -7.90432565533 -20.6982062608
outer loop
vertex -1.37084138393 3.77024674416 -6.74727487564
vertex 4.12004423141 3.76748394966 -5.51462984085
vertex -9.18485046795e-16 0.0 -5.0
endloop
endfacet
facet normal -14.5895910288 -11.3746932681 -19.3934529622
outer loop
vertex -8.16879653931 20.9965133667 -13.1706771851
vertex -12.8111200333 25.7555389404 -12.4695568085
vertex -8.39947509766 25.4105224609 -15.5860538483
endloop
endfacet
facet normal -21.1810027585 -17.4463164649 -21.8244983581
outer loop
vertex -12.8111200333 25.7555389404 -12.4695568085
vertex -8.16879653931 20.9965133667 -13.1706771851
vertex -12.9612007141 21.208190918 -8.68879032135
endloop
endfacet
facet normal 4.88259072957 -6.23761618747 -9.68900051144
outer loop
vertex 8.29878234863 16.6456642151 -10.4224796295
vertex 4.48320198059 18.3916893005 -13.4693317413
vertex 7.91594839096 19.3601760864 -12.3629589081
endloop
endfacet
facet normal 8.07268872776 -7.59028216962 -14.4591250523
outer loop
vertex 4.48320198059 18.3916893005 -13.4693317413
vertex 8.29878234863 16.6456642151 -10.4224796295
vertex 4.64814043045 14.526717186 -11.3483371735
endloop
endfacet
facet normal -8.28944550174 -13.3237446322 -22.7306705562
outer loop
vertex -3.29231953621 18.6412372589 -13.9370288849
vertex -1.13117825985 13.3071699142 -11.5985546112
vertex -6.66526937485 16.4483547211 -11.4216041565
endloop
endfacet
facet normal -1.78914180515 -8.21032793673 -17.0743182345
outer loop
vertex -1.13117825985 13.3071699142 -11.5985546112
vertex -3.29231953621 18.6412372589 -13.9370288849
vertex 0.214659899473 17.886013031 -13.9413537979
endloop
endfacet
facet normal 4.86357363761 -10.8381056057 -20.2069231521
outer loop
vertex 2.84629678726 30.0 -19.7964286804
vertex 6.59217023849 25.9885501862 -16.7432746887
vertex 1.7092063427 25.8232593536 -17.8298931122
endloop
endfacet
facet normal 6.43351658176 -10.668748669 -21.9105518444
outer loop
vertex 6.59217023849 25.9885501862 -16.7432746887
vertex 2.84629678726 30.0 -19.7964286804
vertex 8.30830001831 30.0 -18.1926403046
endloop
endfacet
facet normal 6.7087051499 -7.75733400913 -13.4675556753
outer loop
vertex 6.59217023849 25.9885501862 -16.7432746887
vertex 8.97155189514 22.4858341217 -13.5404434204
vertex 5.31626605988 22.2067165375 -15.2005090714
endloop
endfacet
facet normal 8.26995469154 -7.90886936792 -14.7931309244
outer loop
vertex 8.97155189514 22.4858341217 -13.5404434204
vertex 6.59217023849 25.9885501862 -16.7432746887
vertex 10.8122444153 25.9933452606 -14.3866472244
endloop
endfacet
facet normal 18.3717286907 -10.0491943248 -4.13648939581
outer loop
vertex 11.5799007416 14.5877981186 -4.12866210938
vertex 10.0 10.0 0.0
vertex 9.20880699158 10.3206882477 -4.29307079315
endloop
endfacet
facet normal 20.6433105469 -10.3216552734 -3.56999158859
outer loop
vertex 10.0 10.0 0.0
vertex 11.5799007416 14.5877981186 -4.12866210938
vertex 12.5 15.0 0.0
endloop
endfacet
facet normal 9.46044261899 -10.1607089796 -16.9203868008
outer loop
vertex 8.30830001831 30.0 -18.1926403046
vertex 10.8122444153 25.9933452606 -14.3866472244
vertex 6.59217023849 25.9885501862 -16.7432746887
endloop
endfacet
facet normal 12.3310774188 -10.5203138741 -19.187527701
outer loop
vertex 10.8122444153 25.9933452606 -14.3866472244
vertex 8.30830001831 30.0 -18.1926403046
vertex 13.0972146988 30.0 -15.114991188
endloop
endfacet
facet normal 11.9992444714 -7.72537025173 -12.0499582767
outer loop
vertex 11.5303411484 22.2402439117 -11.2654151917
vertex 10.8122444153 25.9933452606 -14.3866472244
vertex 14.1015415192 25.5823879242 -10.8477239609
endloop
endfacet
facet normal 7.77186748383 -6.35288464355 -9.42703787035
outer loop
vertex 10.8122444153 25.9933452606 -14.3866472244
vertex 11.5303411484 22.2402439117 -11.2654151917
vertex 8.97155189514 22.4858341217 -13.5404434204
endloop
endfacet
facet normal 8.18331442151 -5.43231299841 -6.90789870819
outer loop
vertex 14.1015415192 25.5823879242 -10.8477239609
vertex 12.6009063721 20.9451618195 -8.97874832153
vertex 11.5303411484 22.2402439117 -11.2654151917
endloop
endfacet
facet normal 19.8180374152 -10.7939820465 -10.8693186797
outer loop
vertex 12.6009063721 20.9451618195 -8.97874832153
vertex 14.1015415192 25.5823879242 -10.8477239609
vertex 15.9525566101 24.0592041016 -5.96014022827
endloop
endfacet
facet normal 19.0053383246 -11.5869711459 -16.4682244923
outer loop
vertex 14.1015415192 25.5823879242 -10.8477239609
vertex 13.0972146988 30.0 -15.114991188
vertex 16.8250713348 30.0 -10.8128166199
endloop
endfacet
facet normal 13.8799253709 -10.482074183 -14.118103132
outer loop
vertex 13.0972146988 30.0 -15.114991188
vertex 14.1015415192 25.5823879242 -10.8477239609
vertex 10.8122444153 25.9933452606 -14.3866472244
endloop
endfacet
facet normal 21.6446192158 -13.2468660074 -12.3255031739
outer loop
vertex 16.8250713348 30.0 -10.8128166199
vertex 15.9525566101 24.0592041016 -5.96014022827
vertex 14.1015415192 25.5823879242 -10.8477239609
endloop
endfacet
facet normal 30.7624239824 -15.9935767575 -14.0487231803
outer loop
vertex 15.9525566101 24.0592041016 -5.96014022827
vertex 16.8250713348 30.0 -10.8128166199
vertex 19.1898593903 30.0 -5.63465118408
endloop
endfacet
facet normal -14.140568784 -12.5623303614 -18.6263477635
outer loop
vertex -13.0972146988 30.0 -15.114991188
vertex -8.39947509766 25.4105224609 -15.5860538483
vertex -12.8111200333 25.7555389404 -12.4695568085
endloop
endfacet
facet normal -14.1248014934 -12.2021152441 -21.9786163626
outer loop
vertex -8.39947509766 25.4105224609 -15.5860538483
vertex -13.0972146988 30.0 -15.114991188
vertex -8.30830001831 30.0 -18.1926403046
endloop
endfacet
facet normal -6.96384591336 -9.74132497631 -19.2822255597
outer loop
vertex -3.67248725891 21.7010116577 -15.4191884995
vertex -8.39947509766 25.4105224609 -15.5860538483
vertex -3.4910223484 25.6377849579 -17.4735717773
endloop
endfacet
facet normal -8.22332065884 -11.3789638549 -20.0092627043
outer loop
vertex -8.39947509766 25.4105224609 -15.5860538483
vertex -3.67248725891 21.7010116577 -15.4191884995
vertex -8.16879653931 20.9965133667 -13.1706771851
endloop
endfacet
facet normal 21.9292068481 -10.9646034241 5.06651163101
outer loop
vertex 8.98489379883 9.99639225006 4.38584136963
vertex 7.5 5.0 0.0
vertex 10.0 10.0 0.0
endloop
endfacet
facet normal 24.3734749032 -15.4916075701 9.39617345711
outer loop
vertex 7.5 5.0 0.0
vertex 8.98489379883 9.99639225006 4.38584136963
vertex 5.67693042755 5.19355106354 5.04811429977
endloop
endfacet
facet normal 10.4989484553 -10.4331543141 17.4932789177
outer loop
vertex 11.2683458328 25.8668117523 13.9510364532
vertex 8.30830001831 30.0 18.1926403046
vertex 7.01850748062 25.8911705017 16.5161914825
endloop
endfacet
facet normal 12.7205031589 -11.2026965665 19.7934858765
outer loop
vertex 8.30830001831 30.0 18.1926403046
vertex 11.2683458328 25.8668117523 13.9510364532
vertex 13.0972146988 30.0 15.114991188
endloop
endfacet
facet normal 9.31349044495 -8.65609782761 15.5123881984
outer loop
vertex 7.01850748062 25.8911705017 16.5161914825
vertex 9.73286819458 22.2255001068 12.8410272598
vertex 11.2683458328 25.8668117523 13.9510364532
endloop
endfacet
facet normal 7.91989054421 -7.98676721595 13.8155175686
outer loop
vertex 9.73286819458 22.2255001068 12.8410272598
vertex 7.01850748062 25.8911705017 16.5161914825
vertex 6.11541843414 22.020980835 14.7965354919
endloop
endfacet
facet normal 2.88056355409 -5.19848767859 10.4640731307
outer loop
vertex 1.96328055859 15.5444517136 12.6204309464
vertex 5.6760134697 18.4154052734 13.0246572495
vertex 1.79827070236 18.2352828979 14.0026435852
endloop
endfacet
facet normal 4.12492414302 -7.24872798692 13.5963932946
outer loop
vertex 5.6760134697 18.4154052734 13.0246572495
vertex 1.96328055859 15.5444517136 12.6204309464
vertex 5.24972009659 14.4236660004 11.025847435
endloop
endfacet
facet normal -9.32605654592 -5.18083080254 3.86297910815
outer loop
vertex -4.72967720032 2.63780713081 4.19030952454
vertex -5.0 0.0 6.12323399823e-16
vertex -3.53553390503 0.0 3.53553390503
endloop
endfacet
facet normal -10.0295151422 -6.60258977844 4.80335996524
outer loop
vertex -5.0 0.0 6.12323399823e-16
vertex -4.72967720032 2.63780713081 4.19030952454
vertex -6.4863820076 3.26487779617 1.38423061371
endloop
endfacet
facet normal -8.13283615084 -5.73663432783 5.77053702694
outer loop
vertex -7.69646501541 6.25912427902 2.61805438995
vertex -6.30292224884 8.37186813354 6.68240642548
vertex -8.56932258606 9.07670021057 4.18889522552
endloop
endfacet
facet normal -9.03935409021 -4.89859691762 5.64572331329
outer loop
vertex -6.30292224884 8.37186813354 6.68240642548
vertex -7.69646501541 6.25912427902 2.61805438995
vertex -5.52661466599 5.49747896194 5.43134355545
endloop
endfacet
facet normal -29.025260639 -13.8405757381 21.1991467632
outer loop
vertex -8.26588153839 11.2494354248 6.6753153801
vertex -7.88216781616 17.1286182404 11.0391073227
vertex -11.6323699951 14.9160900116 4.45991516113
endloop
endfacet
facet normal -13.4937608071 -11.8206585983 17.1120793723
outer loop
vertex -7.88216781616 17.1286182404 11.0391073227
vertex -8.26588153839 11.2494354248 6.6753153801
vertex -5.25601243973 12.7700777054 10.0991802216
endloop
endfacet
facet normal -9.01064227851 -12.9943642723 21.2244038737
outer loop
vertex -2.64718937874 17.5372409821 13.5117473602
vertex -7.36129808426 21.2236194611 13.7673492432
vertex -7.88216781616 17.1286182404 11.0391073227
endloop
endfacet
facet normal -5.94051753816 -8.76201891663 16.8068891967
outer loop
vertex -7.36129808426 21.2236194611 13.7673492432
vertex -2.64718937874 17.5372409821 13.5117473602
vertex -2.93300533295 21.3259773254 15.3859243393
endloop
endfacet
facet normal -8.80268085272 -4.41639986377 4.52386314615
outer loop
vertex -5.52661466599 5.49747896194 5.43134355545
vertex -6.4863820076 3.26487779617 1.38423061371
vertex -4.72967720032 2.63780713081 4.19030952454
endloop
endfacet
facet normal -9.3634172903 -6.08152636725 5.5754127209
outer loop
vertex -6.4863820076 3.26487779617 1.38423061371
vertex -5.52661466599 5.49747896194 5.43134355545
vertex -7.69646501541 6.25912427902 2.61805438995
endloop
endfacet
facet normal 16.2346829053 -8.40999941462 -4.76337573924
outer loop
vertex 5.24762392044 2.65396571159 -3.53456568718
vertex 7.06690645218 6.66372013092 -4.41347122192
vertex 7.5 5.0 0.0
endloop
endfacet
facet normal 6.96089364826 -4.59333215605 -6.5471219205
outer loop
vertex 7.06690645218 6.66372013092 -4.41347122192
vertex 5.24762392044 2.65396571159 -3.53456568718
vertex 4.12004423141 3.76748394966 -5.51462984085
endloop
endfacet
facet normal 3.85401214146 -2.31515808819 -3.55293670757
outer loop
vertex 10.0175619125 20.0257740021 -11.1819152832
vertex 12.6009063721 20.9451618195 -8.97874832153
vertex 10.5883512497 18.8535881042 -9.7989397049
endloop
endfacet
facet normal 4.95561574117 -3.54861425856 -4.32990777212
outer loop
vertex 12.6009063721 20.9451618195 -8.97874832153
vertex 10.0175619125 20.0257740021 -11.1819152832
vertex 11.5303411484 22.2402439117 -11.2654151917
endloop
endfacet
facet normal 9.93393503925 -5.11450055865 -4.79422378173
outer loop
vertex 12.6009063721 20.9451618195 -8.97874832153
vertex 13.8588323593 19.0534896851 -4.35420131683
vertex 11.8167800903 18.3131198883 -7.7956328392
endloop
endfacet
facet normal 20.1112517229 -11.7026785033 -10.2574580716
outer loop
vertex 13.8588323593 19.0534896851 -4.35420131683
vertex 12.6009063721 20.9451618195 -8.97874832153
vertex 15.9525566101 24.0592041016 -5.96014022827
endloop
endfacet
facet normal 6.80299739004 -4.21026770206 -5.30748147094
outer loop
vertex 9.63749217987 14.9513902664 -7.92222929001
vertex 10.5883512497 18.8535881042 -9.7989397049
vertex 11.8167800903 18.3131198883 -7.7956328392
endloop
endfacet
facet normal 6.57680990372 -4.88975639495 -6.8349263598
outer loop
vertex 10.5883512497 18.8535881042 -9.7989397049
vertex 9.63749217987 14.9513902664 -7.92222929001
vertex 8.29878234863 16.6456642151 -10.4224796295
endloop
endfacet
facet normal -1.03647939354 -9.58998961559 -20.1184344252
outer loop
vertex 0.965296328068 21.9279670715 -15.9347724915
vertex -3.4910223484 25.6377849579 -17.4735717773
vertex 1.7092063427 25.8232593536 -17.8298931122
endloop
endfacet
facet normal -1.56348388674 -9.43422464461 -18.2167181533
outer loop
vertex -3.4910223484 25.6377849579 -17.4735717773
vertex 0.965296328068 21.9279670715 -15.9347724915
vertex -3.67248725891 21.7010116577 -15.4191884995
endloop
endfacet
facet normal 4.00286074886 -13.8765353032 -24.8212803493
outer loop
vertex 0.214659899473 17.886013031 -13.9413537979
vertex 4.64814043045 14.526717186 -11.3483371735
vertex -1.13117825985 13.3071699142 -11.5985546112
endloop
endfacet
facet normal 2.89688870692 -8.97569998047 -16.5812015734
outer loop
vertex 4.64814043045 14.526717186 -11.3483371735
vertex 0.214659899473 17.886013031 -13.9413537979
vertex 4.48320198059 18.3916893005 -13.4693317413
endloop
endfacet
facet normal 4.3644151304 -8.91968979636 -18.2556619025
outer loop
vertex 5.31626605988 22.2067165375 -15.2005090714
vertex 1.7092063427 25.8232593536 -17.8298931122
vertex 6.59217023849 25.9885501862 -16.7432746887
endloop
endfacet
facet normal 3.38843449429 -8.7918383705 -16.7409342967
outer loop
vertex 1.7092063427 25.8232593536 -17.8298931122
vertex 5.31626605988 22.2067165375 -15.2005090714
vertex 0.965296328068 21.9279670715 -15.9347724915
endloop
endfacet
facet normal -7.97289423209 -8.09259472058 -12.1177401955
outer loop
vertex -5.95681762695 5.90220975876 -5.26653528214
vertex -5.21543693542 10.48914814 -8.81762504578
vertex -3.09572386742 7.2590303421 -8.05512428284
endloop
endfacet
facet normal -11.8087945271 -7.28109423455 -11.8703681573
outer loop
vertex -5.21543693542 10.48914814 -8.81762504578
vertex -5.95681762695 5.90220975876 -5.26653528214
vertex -8.02981090546 9.0877199173 -5.15823602676
endloop
endfacet
facet normal -7.48664812908 -6.23156430794 -17.3100721709
outer loop
vertex -7.54667520523 13.1189012527 -8.75606060028
vertex -1.13117825985 13.3071699142 -11.5985546112
vertex -5.21543693542 10.48914814 -8.81762504578
endloop
endfacet
facet normal -8.96211322587 -14.5953957486 -21.1941574599
outer loop
vertex -1.13117825985 13.3071699142 -11.5985546112
vertex -7.54667520523 13.1189012527 -8.75606060028
vertex -6.66526937485 16.4483547211 -11.4216041565
endloop
endfacet
facet normal -32.3346325922 -12.7810269438 3.35252178093
outer loop
vertex -12.8673343658 16.2152462006 -2.49830031395
vertex -10.4544973373 10.9623222351 0.747147977352
vertex -11.6323699951 14.9160900116 4.45991516113
endloop
endfacet
facet normal -22.1033234258 -13.1304440665 -4.8195212788
outer loop
vertex -10.4544973373 10.9623222351 0.747147977352
vertex -12.8673343658 16.2152462006 -2.49830031395
vertex -10.5066900253 13.0733995438 -4.76496601105
endloop
endfacet
facet normal -15.9251188494 -8.72137377869 -11.9103729954
outer loop
vertex -7.54667520523 13.1189012527 -8.75606060028
vertex -8.02981090546 9.0877199173 -5.15823602676
vertex -10.5066900253 13.0733995438 -4.76496601105
endloop
endfacet
facet normal -9.7095678151 -8.35764235235 -10.6681718133
outer loop
vertex -8.02981090546 9.0877199173 -5.15823602676
vertex -7.54667520523 13.1189012527 -8.75606060028
vertex -5.21543693542 10.48914814 -8.81762504578
endloop
endfacet
facet normal -16.5250077733 -8.05814374016 -3.95223936162
outer loop
vertex -15.9035024643 24.2630958557 -6.36934375763
vertex -14.6348171234 19.5722370148 -2.10983967781
vertex -16.3892879486 22.9440231323 -1.64875757694
endloop
endfacet
facet normal -23.8925764653 -15.4753941633 -9.92620906526
outer loop
vertex -14.6348171234 19.5722370148 -2.10983967781
vertex -15.9035024643 24.2630958557 -6.36934375763
vertex -12.9612007141 21.208190918 -8.68879032135
endloop
endfacet
facet normal -25.9084671392 -13.3027886251 -9.89877994944
outer loop
vertex -11.2730836868 16.9437141418 -7.37621355057
vertex -14.6348171234 19.5722370148 -2.10983967781
vertex -12.9612007141 21.208190918 -8.68879032135
endloop
endfacet
facet normal -16.6580910477 -8.0023239057 -6.63943941066
outer loop
vertex -14.6348171234 19.5722370148 -2.10983967781
vertex -11.2730836868 16.9437141418 -7.37621355057
vertex -12.8673343658 16.2152462006 -2.49830031395
endloop
endfacet
facet normal -11.1257459163 -7.02872717805 -6.21901483325
outer loop
vertex -7.10443544388 4.66570472717 -1.81596291065
vertex -8.02981090546 9.0877199173 -5.15823602676
vertex -5.95681762695 5.90220975876 -5.26653528214
endloop
endfacet
facet normal -13.7597266716 -6.36508668054 -4.6117106629
outer loop
vertex -8.02981090546 9.0877199173 -5.15823602676
vertex -7.10443544388 4.66570472717 -1.81596291065
vertex -8.77105712891 7.64624166489 -0.957087934017
endloop
endfacet
facet normal -14.8637209722 -7.80238226316 0.498825260809
outer loop
vertex -14.6348171234 19.5722370148 -2.10983967781
vertex -16.2109546661 22.8856143951 2.75151848793
vertex -16.3892879486 22.9440231323 -1.64875757694
endloop
endfacet
facet normal -21.2217197 -13.5043522623 2.32376751459
outer loop
vertex -16.2109546661 22.8856143951 2.75151848793
vertex -14.6348171234 19.5722370148 -2.10983967781
vertex -14.1702947617 20.0700550079 5.0254149437
endloop
endfacet
facet normal -14.4025369238 -8.51021384486 5.40983047681
outer loop
vertex -16.2109546661 22.8856143951 2.75151848793
vertex -15.4388484955 25.2039775848 8.45411014557
vertex -17.5019626617 26.0157604218 4.23851919174
endloop
endfacet
facet normal -21.3277033133 -9.88136066244 6.90490158194
outer loop
vertex -15.4388484955 25.2039775848 8.45411014557
vertex -16.2109546661 22.8856143951 2.75151848793
vertex -14.1702947617 20.0700550079 5.0254149437
endloop
endfacet
facet normal -11.8472041666 -6.88135000056 0.891061572286
outer loop
vertex -7.10443544388 4.66570472717 -1.81596291065
vertex -7.69646501541 6.25912427902 2.61805438995
vertex -8.77105712891 7.64624166489 -0.957087934017
endloop
endfacet
facet normal -11.3105417786 -4.63506883021 0.155487461703
outer loop
vertex -7.69646501541 6.25912427902 2.61805438995
vertex -7.10443544388 4.66570472717 -1.81596291065
vertex -6.4863820076 3.26487779617 1.38423061371
endloop
endfacet
facet normal -1.96413280222 -5.93613991996 13.8775398823
outer loop
vertex 1.28893530369 4.16234922409 6.96287870407
vertex -2.55216693878 2.52497529984 5.71884584427
vertex 3.06161699911e-16 0.0 5.0
endloop
endfacet
facet normal -0.783920530534 -5.20949433575 9.27709344711
outer loop
vertex -2.55216693878 2.52497529984 5.71884584427
vertex 1.28893530369 4.16234922409 6.96287870407
vertex -2.33086824417 5.03452634811 7.14676856995
endloop
endfacet
facet normal -9.8631844209 -6.69956417835 11.64605976
outer loop
vertex -6.30292224884 8.37186813354 6.68240642548
vertex -5.25601243973 12.7700777054 10.0991802216
vertex -8.26588153839 11.2494354248 6.6753153801
endloop
endfacet
facet normal -9.0836359437 -10.8014610066 16.6873314312
outer loop
vertex -5.25601243973 12.7700777054 10.0991802216
vertex -6.30292224884 8.37186813354 6.68240642548
vertex -2.39924502373 8.83213615417 9.10527133942
endloop
endfacet
facet normal -11.4075895727 -9.74084563787 15.567215172
outer loop
vertex -7.36129808426 21.2236194611 13.7673492432
vertex -12.0714626312 25.1368579865 12.7643842697
vertex -10.7674341202 20.7484359741 10.9740114212
endloop
endfacet
facet normal -12.177042489 -10.2013326714 17.3840824557
outer loop
vertex -12.0714626312 25.1368579865 12.7643842697
vertex -7.36129808426 21.2236194611 13.7673492432
vertex -7.90298986435 25.3644199371 15.8178157806
endloop
endfacet
facet normal -4.42737137575 -8.79093340659 15.6650525179
outer loop
vertex -2.64718937874 17.5372409821 13.5117473602
vertex -5.25601243973 12.7700777054 10.0991802216
vertex -1.22169589996 14.1374349594 12.0067234039
endloop
endfacet
facet normal -10.3930262429 -11.4140350358 23.8899725293
outer loop
vertex -5.25601243973 12.7700777054 10.0991802216
vertex -2.64718937874 17.5372409821 13.5117473602
vertex -7.88216781616 17.1286182404 11.0391073227
endloop
endfacet
facet normal -0.551622279205 -8.47188491831 17.0421876886
outer loop
vertex 1.79827070236 18.2352828979 14.0026435852
vertex -2.93300533295 21.3259773254 15.3859243393
vertex -2.64718937874 17.5372409821 13.5117473602
endloop
endfacet
facet normal -0.600505043987 -8.31557664542 16.5257495328
outer loop
vertex -2.93300533295 21.3259773254 15.3859243393
vertex 1.79827070236 18.2352828979 14.0026435852
vertex 1.80893015862 21.7211933136 15.7571029663
endloop
endfacet
facet normal 13.4718625018 -7.31226045422 7.5276114959
outer loop
vertex 9.61076641083 14.2155361176 7.36418437958
vertex 8.98489379883 9.99639225006 4.38584136963
vertex 11.4293823242 14.4478368759 4.33513593674
endloop
endfacet
facet normal 10.9039996326 -7.78121853231 8.73155497337
outer loop
vertex 8.98489379883 9.99639225006 4.38584136963
vertex 9.61076641083 14.2155361176 7.36418437958
vertex 7.14376211166 11.5359315872 8.0570306778
endloop
endfacet
facet normal 19.5231470622 -10.6696675029 4.50986994055
outer loop
vertex 10.0 10.0 0.0
vertex 11.4293823242 14.4478368759 4.33513593674
vertex 8.98489379883 9.99639225006 4.38584136963
endloop
endfacet
facet normal 21.6756796837 -10.8378398418 3.9726805687
outer loop
vertex 11.4293823242 14.4478368759 4.33513593674
vertex 10.0 10.0 0.0
vertex 12.5 15.0 0.0
endloop
endfacet
facet normal 14.9234022541 -10.556278347 14.036748473
outer loop
vertex 14.4770412445 25.4432678223 10.2211341858
vertex 13.0972146988 30.0 15.114991188
vertex 11.2683458328 25.8668117523 13.9510364532
endloop
endfacet
facet normal 19.603857289 -12.3073426283 16.9868442875
outer loop
vertex 13.0972146988 30.0 15.114991188
vertex 14.4770412445 25.4432678223 10.2211341858
vertex 16.8250713348 30.0 10.8128166199
endloop
endfacet
facet normal -18.2604124261 -11.0926293013 -15.8227423274
outer loop
vertex -12.8111200333 25.7555389404 -12.4695568085
vertex -16.8250713348 30.0 -10.8128166199
vertex -13.0972146988 30.0 -15.114991188
endloop
endfacet
facet normal -11.7427465739 -7.67948625806 -8.77598830198
outer loop
vertex -16.8250713348 30.0 -10.8128166199
vertex -12.8111200333 25.7555389404 -12.4695568085
vertex -15.9545917511 26.8931598663 -9.25890445709
endloop
endfacet
facet normal -19.8810154353 -9.45715861234 -2.85845874764
outer loop
vertex -19.1898593903 30.0 -5.63465118408
vertex -18.2228965759 26.4716510773 -0.686546623707
vertex -20.0 30.0 1.13310773728e-14
endloop
endfacet
facet normal -14.0063498954 -7.22480745614 -2.41466645373
outer loop
vertex -18.2228965759 26.4716510773 -0.686546623707
vertex -19.1898593903 30.0 -5.63465118408
vertex -17.7012062073 27.0652217865 -5.48862266541
endloop
endfacet
endsolid
