solid Shell (Meshed) 
  facet normal -0.865459 -0.499941 0.032238
    outer loop
      vertex -25.980675 -15.000152 87.074120
      vertex -24.211435 -17.714581 92.476189
      vertex -27.442230 -12.121222 92.483261
    endloop
  endfacet
  facet normal -0.087980 0.996122 -0.000000
    outer loop
      vertex -0.000000 30.000000 81.360001
      vertex -0.000000 30.000000 74.639999
      vertex -5.258341 29.535570 78.040237
    endloop
  endfacet
  facet normal -0.588016 -0.808457 -0.025189
    outer loop
      vertex -19.604681 -22.708071 49.070274
      vertex -15.465416 -25.706438 48.677193
      vertex -17.537548 -24.339975 53.191841
    endloop
  endfacet
  facet normal -0.978449 -0.205870 -0.015981
    outer loop
      vertex -29.748352 -3.877572 10.407982
      vertex -28.786474 -8.446238 10.370531
      vertex -29.313913 -6.379224 16.035761
    endloop
  endfacet
  facet normal 0.000000 -0.000000 -1.000000
    outer loop
      vertex -12.962840 16.927563 -0.000000
      vertex -14.095231 21.472403 -0.000000
      vertex -10.392326 20.068094 -0.000000
    endloop
  endfacet
   
  facet normal 0.000000 0.000000 -1.000000
    outer loop
      vertex 18.969919 16.700281 -0.000000
      vertex 24.270510 17.633558 0.000000
      vertex 22.053194 12.928273 -0.000000
    endloop
  endfacet
endsolid Mesh
