solid Created by Gmsh
facet normal 0 0 1
  outer loop
    vertex 1 -0.5 3
    vertex 0.559524 3.10552e-13 3
    vertex 0.416667 -0.416667 3
  endloop
endfacet
facet normal 0 0 1
  outer loop
    vertex 0.5 1 3
    vertex -3.10552e-13 0.559524 3
    vertex 0.416667 0.416667 3
  endloop
endfacet
facet normal 0 0 1
  outer loop
    vertex -0.5 -1 3
    vertex 3.10552e-13 -0.559524 3
    vertex -0.416667 -0.416667 3
  endloop
endfacet
facet normal 0 0 1
  outer loop
    vertex -1 0.5 3
    vertex -0.559524 -3.10437e-13 3
    vertex -0.416667 0.416667 3
  endloop
endfacet
facet normal 0 0 1
  outer loop
    vertex -1 -0.5 3
    vertex -0.416667 -0.416667 3
    vertex -0.559524 -3.10437e-13 3
  endloop
endfacet
facet normal 0 0 1
  outer loop
    vertex 1 0.5 3
    vertex 0.416667 0.416667 3
    vertex 0.559524 3.10552e-13 3
  endloop
endfacet
facet normal 0 0 1
  outer loop
    vertex -0.5 1 3
    vertex -0.416667 0.416667 3
    vertex -3.10552e-13 0.559524 3
  endloop
endfacet
facet normal 0 0 1
  outer loop
    vertex 0.5 -1 3
    vertex 0.416667 -0.416667 3
    vertex 3.10552e-13 -0.559524 3
  endloop
endfacet
facet normal 0 0 1
  outer loop
    vertex -0.5 -1 3
    vertex -2.7528e-12 -1 3
    vertex 3.10552e-13 -0.559524 3
  endloop
endfacet
facet normal 0 -0 1
  outer loop
    vertex 1 -0.5 3
    vertex 1 -2.7528e-12 3
    vertex 0.559524 3.10552e-13 3
  endloop
endfacet
facet normal 0 0 1
  outer loop
    vertex 0.5 1 3
    vertex 2.7528e-12 1 3
    vertex -3.10552e-13 0.559524 3
  endloop
endfacet
facet normal 0 0 1
  outer loop
    vertex -1 0.5 3
    vertex -1 2.7528e-12 3
    vertex -0.559524 -3.10437e-13 3
  endloop
endfacet
facet normal 0 0 1
  outer loop
    vertex -2.7528e-12 -1 3
    vertex 0.5 -1 3
    vertex 3.10552e-13 -0.559524 3
  endloop
endfacet
facet normal 0 -0 1
  outer loop
    vertex 1 -2.7528e-12 3
    vertex 1 0.5 3
    vertex 0.559524 3.10552e-13 3
  endloop
endfacet
facet normal 0 0 1
  outer loop
    vertex 2.7528e-12 1 3
    vertex -0.5 1 3
    vertex -3.10552e-13 0.559524 3
  endloop
endfacet
facet normal 0 0 1
  outer loop
    vertex -1 2.7528e-12 3
    vertex -1 -0.5 3
    vertex -0.559524 -3.10437e-13 3
  endloop
endfacet
facet normal 0 0 1
  outer loop
    vertex -7.225e-18 2.52875e-18 3
    vertex 3.10552e-13 -0.559524 3
    vertex 0.416667 -0.416667 3
  endloop
endfacet
facet normal 0 0 1
  outer loop
    vertex -7.225e-18 2.52875e-18 3
    vertex -0.416667 -0.416667 3
    vertex 3.10552e-13 -0.559524 3
  endloop
endfacet
facet normal -0 0 1
  outer loop
    vertex -7.225e-18 2.52875e-18 3
    vertex 0.416667 -0.416667 3
    vertex 0.559524 3.10552e-13 3
  endloop
endfacet
facet normal 0 -0 1
  outer loop
    vertex -7.225e-18 2.52875e-18 3
    vertex 0.416667 0.416667 3
    vertex -3.10552e-13 0.559524 3
  endloop
endfacet
facet normal 0 0 1
  outer loop
    vertex -7.225e-18 2.52875e-18 3
    vertex -0.416667 0.416667 3
    vertex -0.559524 -3.10437e-13 3
  endloop
endfacet
facet normal 0 0 1
  outer loop
    vertex -7.225e-18 2.52875e-18 3
    vertex 0.559524 3.10552e-13 3
    vertex 0.416667 0.416667 3
  endloop
endfacet
facet normal 0 0 1
  outer loop
    vertex -7.225e-18 2.52875e-18 3
    vertex -3.10552e-13 0.559524 3
    vertex -0.416667 0.416667 3
  endloop
endfacet
facet normal 0 0 1
  outer loop
    vertex -7.225e-18 2.52875e-18 3
    vertex -0.559524 -3.10437e-13 3
    vertex -0.416667 -0.416667 3
  endloop
endfacet
facet normal 0 0 1
  outer loop
    vertex 1 -0.5 3
    vertex 0.416667 -0.416667 3
    vertex 0.677083 -0.677083 3
  endloop
endfacet
facet normal 0 0 1
  outer loop
    vertex 0.5 1 3
    vertex 0.416667 0.416667 3
    vertex 0.677083 0.677083 3
  endloop
endfacet
facet normal -0 0 1
  outer loop
    vertex -1 0.5 3
    vertex -0.416667 0.416667 3
    vertex -0.677083 0.677083 3
  endloop
endfacet
facet normal 0 -0 1
  outer loop
    vertex -0.5 -1 3
    vertex -0.416667 -0.416667 3
    vertex -0.677083 -0.677083 3
  endloop
endfacet
facet normal 0 -0 1
  outer loop
    vertex 0.5 -1 3
    vertex 0.677083 -0.677083 3
    vertex 0.416667 -0.416667 3
  endloop
endfacet
facet normal 0 0 1
  outer loop
    vertex 1 0.5 3
    vertex 0.677083 0.677083 3
    vertex 0.416667 0.416667 3
  endloop
endfacet
facet normal 0 0 1
  outer loop
    vertex -0.5 1 3
    vertex -0.677083 0.677083 3
    vertex -0.416667 0.416667 3
  endloop
endfacet
facet normal -0 0 1
  outer loop
    vertex -1 -0.5 3
    vertex -0.677083 -0.677083 3
    vertex -0.416667 -0.416667 3
  endloop
endfacet
facet normal 0 0 1
  outer loop
    vertex 1 -1 3
    vertex 0.677083 -0.677083 3
    vertex 0.5 -1 3
  endloop
endfacet
facet normal 0 0 1
  outer loop
    vertex 1 1 3
    vertex 0.677083 0.677083 3
    vertex 1 0.5 3
  endloop
endfacet
facet normal -0 0 1
  outer loop
    vertex -1 1 3
    vertex -0.677083 0.677083 3
    vertex -0.5 1 3
  endloop
endfacet
facet normal 0 0 1
  outer loop
    vertex -1 -1 3
    vertex -0.677083 -0.677083 3
    vertex -1 -0.5 3
  endloop
endfacet
facet normal 0 -0 1
  outer loop
    vertex 1 -1 3
    vertex 1 -0.5 3
    vertex 0.677083 -0.677083 3
  endloop
endfacet
facet normal 0 0 1
  outer loop
    vertex 1 1 3
    vertex 0.5 1 3
    vertex 0.677083 0.677083 3
  endloop
endfacet
facet normal 0 0 1
  outer loop
    vertex -1 1 3
    vertex -1 0.5 3
    vertex -0.677083 0.677083 3
  endloop
endfacet
facet normal 0 0 1
  outer loop
    vertex -1 -1 3
    vertex -0.5 -1 3
    vertex -0.677083 -0.677083 3
  endloop
endfacet
endsolid Created by Gmsh
