solid Created by Gmsh
facet normal 0.209289 0.952274 -0.222197
  outer loop
    vertex 0 0.825 2.25
    vertex 0 0.9125 2.625
    vertex 0.38118 0.825304 2.61034
  endloop
endfacet
facet normal 0.207634 0.948141 -0.24066
  outer loop
    vertex 0 0.9125 2.625
    vertex 0.382683 0.92388 3
    vertex 0.38118 0.825304 2.61034
  endloop
endfacet
facet normal 0.190174 0.956069 -0.223083
  outer loop
    vertex 0 0.9125 2.625
    vertex 0 1 3
    vertex 0.382683 0.92388 3
  endloop
endfacet
facet normal 0.543437 0.813312 -0.207847
  outer loop
    vertex 0.38118 0.825304 2.61034
    vertex 0.382683 0.92388 3
    vertex 0.707107 0.707107 3
  endloop
endfacet
facet normal 0.615161 0.747021 -0.252067
  outer loop
    vertex 0.654517 0.502228 2.25
    vertex 0.362945 0.73598 2.23117
    vertex 0.682354 0.60571 2.62461
  endloop
endfacet
facet normal 0.582217 0.784676 -0.212854
  outer loop
    vertex 0.362945 0.73598 2.23117
    vertex 0.38118 0.825304 2.61034
    vertex 0.682354 0.60571 2.62461
  endloop
endfacet
facet normal 0.220163 0.947056 -0.233695
  outer loop
    vertex 0.362945 0.73598 2.23117
    vertex 0 0.825 2.25
    vertex 0.38118 0.825304 2.61034
  endloop
endfacet
facet normal 0.578386 0.777135 -0.248053
  outer loop
    vertex 0.682354 0.60571 2.62461
    vertex 0.38118 0.825304 2.61034
    vertex 0.707107 0.707107 3
  endloop
endfacet
facet normal 0.561779 0.800431 -0.209083
  outer loop
    vertex 0.446105 0.423338 1.35
    vertex 0.241478 0.486081 1.04039
    vertex 0.248176 0.57948 1.41595
  endloop
endfacet
facet normal 0.21575 0.946676 -0.239283
  outer loop
    vertex 0.241478 0.486081 1.04039
    vertex 0 0.5625 1.125
    vertex 0.248176 0.57948 1.41595
  endloop
endfacet
facet normal 0.222823 0.949358 -0.221517
  outer loop
    vertex 0.241478 0.486081 1.04039
    vertex 0 0.475 0.75
    vertex 0 0.5625 1.125
  endloop
endfacet
facet normal 0.19589 0.954974 -0.222827
  outer loop
    vertex 0.248176 0.57948 1.41595
    vertex 0 0.5625 1.125
    vertex 0 0.65 1.5
  endloop
endfacet
facet normal 0.824378 0.526109 -0.208833
  outer loop
    vertex 0.446105 0.423338 1.35
    vertex 0.587858 0.227042 1.41505
    vertex 0.493431 0.226791 1.04166
  endloop
endfacet
facet normal 0.949677 0.200921 -0.2403
  outer loop
    vertex 0.587858 0.227042 1.41505
    vertex 0.5625 0 1.125
    vertex 0.493431 0.226791 1.04166
  endloop
endfacet
facet normal 0.958183 0.178606 -0.223576
  outer loop
    vertex 0.587858 0.227042 1.41505
    vertex 0.65 0 1.5
    vertex 0.5625 0 1.125
  endloop
endfacet
facet normal 0.952458 0.208405 -0.22224
  outer loop
    vertex 0.493431 0.226791 1.04166
    vertex 0.5625 0 1.125
    vertex 0.475 0 0.75
  endloop
endfacet
facet normal 0.354071 0.875869 -0.327853
  outer loop
    vertex 0 0.475 0.75
    vertex 0.241478 0.486081 1.04039
    vertex 0.332005 0.332005 0.726539
  endloop
endfacet
facet normal 0.711062 0.690286 -0.133777
  outer loop
    vertex 0.241478 0.486081 1.04039
    vertex 0.493431 0.226791 1.04166
    vertex 0.332005 0.332005 0.726539
  endloop
endfacet
facet normal 0.681122 0.660297 -0.316357
  outer loop
    vertex 0.241478 0.486081 1.04039
    vertex 0.446105 0.423338 1.35
    vertex 0.493431 0.226791 1.04166
  endloop
endfacet
facet normal 0.875159 0.353595 -0.330253
  outer loop
    vertex 0.332005 0.332005 0.726539
    vertex 0.493431 0.226791 1.04166
    vertex 0.475 0 0.75
  endloop
endfacet
facet normal 0.962719 0.191497 -0.191055
  outer loop
    vertex 1 0 3
    vertex 0.871286 0.264035 2.61606
    vertex 0.92388 0.382683 3
  endloop
endfacet
facet normal 0.84195 0.472103 -0.261226
  outer loop
    vertex 0.871286 0.264035 2.61606
    vertex 0.682354 0.60571 2.62461
    vertex 0.92388 0.382683 3
  endloop
endfacet
facet normal 0.856109 0.478292 -0.195739
  outer loop
    vertex 0.871286 0.264035 2.61606
    vertex 0.654517 0.502228 2.25
    vertex 0.682354 0.60571 2.62461
  endloop
endfacet
facet normal 0.814548 0.544263 -0.200723
  outer loop
    vertex 0.92388 0.382683 3
    vertex 0.682354 0.60571 2.62461
    vertex 0.707107 0.707107 3
  endloop
endfacet
facet normal 0.963856 0.142837 -0.2249
  outer loop
    vertex 1 0 3
    vertex 0.9125 0 2.625
    vertex 0.871286 0.264035 2.61606
  endloop
endfacet
facet normal 0.961369 0.142081 -0.23576
  outer loop
    vertex 0.9125 0 2.625
    vertex 0.779077 0.264461 2.24031
    vertex 0.871286 0.264035 2.61606
  endloop
endfacet
facet normal 0.961493 0.158743 -0.224348
  outer loop
    vertex 0.9125 0 2.625
    vertex 0.825 0 2.25
    vertex 0.779077 0.264461 2.24031
  endloop
endfacet
facet normal 0.862287 0.460331 -0.211085
  outer loop
    vertex 0.871286 0.264035 2.61606
    vertex 0.779077 0.264461 2.24031
    vertex 0.654517 0.502228 2.25
  endloop
endfacet
facet normal 0.620655 0.758034 -0.20043
  outer loop
    vertex 0.654517 0.502228 2.25
    vertex 0.362381 0.637886 1.85843
    vertex 0.362945 0.73598 2.23117
  endloop
endfacet
facet normal 0.246325 0.937182 -0.24701
  outer loop
    vertex 0.362381 0.637886 1.85843
    vertex 0 0.7375 1.875
    vertex 0.362945 0.73598 2.23117
  endloop
endfacet
facet normal 0.24919 0.943121 -0.220062
  outer loop
    vertex 0.362381 0.637886 1.85843
    vertex 0 0.65 1.5
    vertex 0 0.7375 1.875
  endloop
endfacet
facet normal 0.221431 0.949667 -0.221589
  outer loop
    vertex 0.362945 0.73598 2.23117
    vertex 0 0.7375 1.875
    vertex 0 0.825 2.25
  endloop
endfacet
facet normal 0.861702 0.460139 -0.213874
  outer loop
    vertex 0.654517 0.502228 2.25
    vertex 0.779077 0.264461 2.24031
    vertex 0.686397 0.264257 1.86646
  endloop
endfacet
facet normal 0.955257 0.177079 -0.236912
  outer loop
    vertex 0.779077 0.264461 2.24031
    vertex 0.7375 0 1.875
    vertex 0.686397 0.264257 1.86646
  endloop
endfacet
facet normal 0.961493 0.158743 -0.224348
  outer loop
    vertex 0.779077 0.264461 2.24031
    vertex 0.825 0 2.25
    vertex 0.7375 0 1.875
  endloop
endfacet
facet normal 0.958273 0.178092 -0.223597
  outer loop
    vertex 0.686397 0.264257 1.86646
    vertex 0.7375 0 1.875
    vertex 0.65 0 1.5
  endloop
endfacet
facet normal 0.628273 0.749361 -0.209118
  outer loop
    vertex 0.654517 0.502228 2.25
    vertex 0.551018 0.463365 1.79979
    vertex 0.362381 0.637886 1.85843
  endloop
endfacet
facet normal 0.612141 0.747918 -0.256716
  outer loop
    vertex 0.551018 0.463365 1.79979
    vertex 0.248176 0.57948 1.41595
    vertex 0.362381 0.637886 1.85843
  endloop
endfacet
facet normal 0.563952 0.800524 -0.202782
  outer loop
    vertex 0.551018 0.463365 1.79979
    vertex 0.446105 0.423338 1.35
    vertex 0.248176 0.57948 1.41595
  endloop
endfacet
facet normal 0.211481 0.96041 -0.181353
  outer loop
    vertex 0.362381 0.637886 1.85843
    vertex 0.248176 0.57948 1.41595
    vertex 0 0.65 1.5
  endloop
endfacet
facet normal 0.958137 0.178485 -0.223866
  outer loop
    vertex 0.65 0 1.5
    vertex 0.587858 0.227042 1.41505
    vertex 0.686397 0.264257 1.86646
  endloop
endfacet
facet normal 0.839184 0.495556 -0.22404
  outer loop
    vertex 0.587858 0.227042 1.41505
    vertex 0.551018 0.463365 1.79979
    vertex 0.686397 0.264257 1.86646
  endloop
endfacet
facet normal 0.823149 0.515594 -0.237883
  outer loop
    vertex 0.587858 0.227042 1.41505
    vertex 0.446105 0.423338 1.35
    vertex 0.551018 0.463365 1.79979
  endloop
endfacet
facet normal 0.838573 0.491404 -0.235196
  outer loop
    vertex 0.686397 0.264257 1.86646
    vertex 0.551018 0.463365 1.79979
    vertex 0.654517 0.502228 2.25
  endloop
endfacet
facet normal 0.8145 0.544231 -0.201003
  outer loop
    vertex 0.212132 0.212132 0
    vertex 0.368955 0.113658 0.36885
    vertex 0.277164 0.114805 0
  endloop
endfacet
facet normal 0.960422 0.143796 -0.238562
  outer loop
    vertex 0.368955 0.113658 0.36885
    vertex 0.3875 0 0.375
    vertex 0.277164 0.114805 0
  endloop
endfacet
facet normal 0.963542 0.145049 -0.224827
  outer loop
    vertex 0.368955 0.113658 0.36885
    vertex 0.475 0 0.75
    vertex 0.3875 0 0.375
  endloop
endfacet
facet normal 0.956069 0.190174 -0.223083
  outer loop
    vertex 0.277164 0.114805 0
    vertex 0.3875 0 0.375
    vertex 0.3 0 0
  endloop
endfacet
facet normal 0.1488 0.963 -0.2247
  outer loop
    vertex 0 0.475 0.75
    vertex 0.11651 0.368011 0.368632
    vertex 0 0.3875 0.375
  endloop
endfacet
facet normal 0.147635 0.960151 -0.237307
  outer loop
    vertex 0.11651 0.368011 0.368632
    vertex 0.114805 0.277164 0
    vertex 0 0.3875 0.375
  endloop
endfacet
facet normal 0.543985 0.814131 -0.203155
  outer loop
    vertex 0.11651 0.368011 0.368632
    vertex 0.212132 0.212132 0
    vertex 0.114805 0.277164 0
  endloop
endfacet
facet normal 0.190174 0.956069 -0.223083
  outer loop
    vertex 0 0.3875 0.375
    vertex 0.114805 0.277164 0
    vertex 0 0.3 0
  endloop
endfacet
facet normal 0.383429 0.913049 -0.139006
  outer loop
    vertex 0 0.475 0.75
    vertex 0.332005 0.332005 0.726539
    vertex 0.11651 0.368011 0.368632
  endloop
endfacet
facet normal 0.668676 0.663372 -0.335871
  outer loop
    vertex 0.332005 0.332005 0.726539
    vertex 0.368955 0.113658 0.36885
    vertex 0.11651 0.368011 0.368632
  endloop
endfacet
facet normal 0.912977 0.38335 -0.139697
  outer loop
    vertex 0.332005 0.332005 0.726539
    vertex 0.475 0 0.75
    vertex 0.368955 0.113658 0.36885
  endloop
endfacet
facet normal 0.705266 0.699879 -0.113006
  outer loop
    vertex 0.11651 0.368011 0.368632
    vertex 0.368955 0.113658 0.36885
    vertex 0.212132 0.212132 0
  endloop
endfacet
facet normal 0.952302 -0.209155 -0.222204
  outer loop
    vertex 0.825 0 2.25
    vertex 0.9125 0 2.625
    vertex 0.825292 -0.380893 2.60978
  endloop
endfacet
facet normal 0.948211 -0.207487 -0.240512
  outer loop
    vertex 0.9125 0 2.625
    vertex 0.92388 -0.382683 3
    vertex 0.825292 -0.380893 2.60978
  endloop
endfacet
facet normal 0.956069 -0.190174 -0.223083
  outer loop
    vertex 0.9125 0 2.625
    vertex 1 0 3
    vertex 0.92388 -0.382683 3
  endloop
endfacet
facet normal 0.81329 -0.543423 -0.207966
  outer loop
    vertex 0.825292 -0.380893 2.60978
    vertex 0.92388 -0.382683 3
    vertex 0.707107 -0.707107 3
  endloop
endfacet
facet normal 0.747383 -0.614653 -0.252231
  outer loop
    vertex 0.502228 -0.654517 2.25
    vertex 0.737502 -0.363696 2.23844
    vertex 0.605887 -0.682184 2.62457
  endloop
endfacet
facet normal 0.784911 -0.582021 -0.212523
  outer loop
    vertex 0.737502 -0.363696 2.23844
    vertex 0.825292 -0.380893 2.60978
    vertex 0.605887 -0.682184 2.62457
  endloop
endfacet
facet normal 0.946913 -0.220372 -0.234075
  outer loop
    vertex 0.737502 -0.363696 2.23844
    vertex 0.825 0 2.25
    vertex 0.825292 -0.380893 2.60978
  endloop
endfacet
facet normal 0.777295 -0.578215 -0.247953
  outer loop
    vertex 0.605887 -0.682184 2.62457
    vertex 0.825292 -0.380893 2.60978
    vertex 0.707107 -0.707107 3
  endloop
endfacet
facet normal 0.803678 -0.558231 -0.206106
  outer loop
    vertex 0.423338 -0.446105 1.35
    vertex 0.486134 -0.241425 1.04049
    vertex 0.581617 -0.241734 1.41365
  endloop
endfacet
facet normal 0.946198 -0.214487 -0.24229
  outer loop
    vertex 0.486134 -0.241425 1.04049
    vertex 0.5625 0 1.125
    vertex 0.581617 -0.241734 1.41365
  endloop
endfacet
facet normal 0.949372 -0.222761 -0.22152
  outer loop
    vertex 0.486134 -0.241425 1.04049
    vertex 0.475 0 0.75
    vertex 0.5625 0 1.125
  endloop
endfacet
facet normal 0.95596 -0.19075 -0.223057
  outer loop
    vertex 0.581617 -0.241734 1.41365
    vertex 0.5625 0 1.125
    vertex 0.65 0 1.5
  endloop
endfacet
facet normal 0.529485 -0.821559 -0.211393
  outer loop
    vertex 0.423338 -0.446105 1.35
    vertex 0.233014 -0.585983 1.41691
    vertex 0.226839 -0.493384 1.04157
  endloop
endfacet
facet normal 0.202049 -0.950088 -0.237715
  outer loop
    vertex 0.233014 -0.585983 1.41691
    vertex 0 -0.5625 1.125
    vertex 0.226839 -0.493384 1.04157
  endloop
endfacet
facet normal 0.183357 -0.957331 -0.223377
  outer loop
    vertex 0.233014 -0.585983 1.41691
    vertex 0 -0.65 1.5
    vertex 0 -0.5625 1.125
  endloop
endfacet
facet normal 0.20846 -0.952447 -0.222238
  outer loop
    vertex 0.226839 -0.493384 1.04157
    vertex 0 -0.5625 1.125
    vertex 0 -0.475 0.75
  endloop
endfacet
facet normal 0.875874 -0.354074 -0.327835
  outer loop
    vertex 0.475 0 0.75
    vertex 0.486134 -0.241425 1.04049
    vertex 0.332005 -0.332005 0.726539
  endloop
endfacet
facet normal 0.69034 -0.71101 -0.133772
  outer loop
    vertex 0.486134 -0.241425 1.04049
    vertex 0.226839 -0.493384 1.04157
    vertex 0.332005 -0.332005 0.726539
  endloop
endfacet
facet normal 0.660423 -0.680998 -0.316359
  outer loop
    vertex 0.486134 -0.241425 1.04049
    vertex 0.423338 -0.446105 1.35
    vertex 0.226839 -0.493384 1.04157
  endloop
endfacet
facet normal 0.353591 -0.875152 -0.330276
  outer loop
    vertex 0.332005 -0.332005 0.726539
    vertex 0.226839 -0.493384 1.04157
    vertex 0 -0.475 0.75
  endloop
endfacet
facet normal 0.191414 -0.962305 -0.193208
  outer loop
    vertex 0 -1 3
    vertex 0.270287 -0.868154 2.6111
    vertex 0.382683 -0.92388 3
  endloop
endfacet
facet normal 0.476186 -0.840622 -0.258074
  outer loop
    vertex 0.270287 -0.868154 2.6111
    vertex 0.605887 -0.682184 2.62457
    vertex 0.382683 -0.92388 3
  endloop
endfacet
facet normal 0.481286 -0.854302 -0.196293
  outer loop
    vertex 0.270287 -0.868154 2.6111
    vertex 0.502228 -0.654517 2.25
    vertex 0.605887 -0.682184 2.62457
  endloop
endfacet
facet normal 0.544253 -0.814533 -0.20081
  outer loop
    vertex 0.382683 -0.92388 3
    vertex 0.605887 -0.682184 2.62457
    vertex 0.707107 -0.707107 3
  endloop
endfacet
facet normal 0.146493 -0.963335 -0.224778
  outer loop
    vertex 0 -1 3
    vertex 0 -0.9125 2.625
    vertex 0.270287 -0.868154 2.6111
  endloop
endfacet
facet normal 0.145744 -0.96143 -0.233263
  outer loop
    vertex 0 -0.9125 2.625
    vertex 0.264461 -0.779077 2.24031
    vertex 0.270287 -0.868154 2.6111
  endloop
endfacet
facet normal 0.158743 -0.961493 -0.224348
  outer loop
    vertex 0 -0.9125 2.625
    vertex 0 -0.825 2.25
    vertex 0.264461 -0.779077 2.24031
  endloop
endfacet
facet normal 0.460114 -0.861628 -0.214227
  outer loop
    vertex 0.270287 -0.868154 2.6111
    vertex 0.264461 -0.779077 2.24031
    vertex 0.502228 -0.654517 2.25
  endloop
endfacet
facet normal 0.757696 -0.620953 -0.200782
  outer loop
    vertex 0.502228 -0.654517 2.25
    vertex 0.637899 -0.362353 1.85842
    vertex 0.737502 -0.363696 2.23844
  endloop
endfacet
facet normal 0.937299 -0.246358 -0.246533
  outer loop
    vertex 0.637899 -0.362353 1.85842
    vertex 0.7375 0 1.875
    vertex 0.737502 -0.363696 2.23844
  endloop
endfacet
facet normal 0.943126 -0.249171 -0.220063
  outer loop
    vertex 0.637899 -0.362353 1.85842
    vertex 0.65 0 1.5
    vertex 0.7375 0 1.875
  endloop
endfacet
facet normal 0.949667 -0.221431 -0.221589
  outer loop
    vertex 0.737502 -0.363696 2.23844
    vertex 0.7375 0 1.875
    vertex 0.825 0 2.25
  endloop
endfacet
facet normal 0.460149 -0.861733 -0.213726
  outer loop
    vertex 0.502228 -0.654517 2.25
    vertex 0.264461 -0.779077 2.24031
    vertex 0.264698 -0.686473 1.86745
  endloop
endfacet
facet normal 0.177365 -0.955155 -0.237108
  outer loop
    vertex 0.264461 -0.779077 2.24031
    vertex 0 -0.7375 1.875
    vertex 0.264698 -0.686473 1.86745
  endloop
endfacet
facet normal 0.158743 -0.961493 -0.224348
  outer loop
    vertex 0.264461 -0.779077 2.24031
    vertex 0 -0.825 2.25
    vertex 0 -0.7375 1.875
  endloop
endfacet
facet normal 0.178343 -0.958229 -0.223587
  outer loop
    vertex 0.264698 -0.686473 1.86745
    vertex 0 -0.7375 1.875
    vertex 0 -0.65 1.5
  endloop
endfacet
facet normal 0.749379 -0.628254 -0.209111
  outer loop
    vertex 0.502228 -0.654517 2.25
    vertex 0.463373 -0.551012 1.79979
    vertex 0.637899 -0.362353 1.85842
  endloop
endfacet
facet normal 0.747748 -0.610842 -0.260279
  outer loop
    vertex 0.463373 -0.551012 1.79979
    vertex 0.581617 -0.241734 1.41365
    vertex 0.637899 -0.362353 1.85842
  endloop
endfacet
facet normal 0.803777 -0.559569 -0.202054
  outer loop
    vertex 0.463373 -0.551012 1.79979
    vertex 0.423338 -0.446105 1.35
    vertex 0.581617 -0.241734 1.41365
  endloop
endfacet
facet normal 0.961674 -0.208388 -0.178206
  outer loop
    vertex 0.637899 -0.362353 1.85842
    vertex 0.581617 -0.241734 1.41365
    vertex 0.65 0 1.5
  endloop
endfacet
facet normal 0.182212 -0.956878 -0.226239
  outer loop
    vertex 0 -0.65 1.5
    vertex 0.233014 -0.585983 1.41691
    vertex 0.264698 -0.686473 1.86745
  endloop
endfacet
facet normal 0.496512 -0.839139 -0.222082
  outer loop
    vertex 0.233014 -0.585983 1.41691
    vertex 0.463373 -0.551012 1.79979
    vertex 0.264698 -0.686473 1.86745
  endloop
endfacet
facet normal 0.519607 -0.820685 -0.237663
  outer loop
    vertex 0.233014 -0.585983 1.41691
    vertex 0.423338 -0.446105 1.35
    vertex 0.463373 -0.551012 1.79979
  endloop
endfacet
facet normal 0.491589 -0.838466 -0.235191
  outer loop
    vertex 0.264698 -0.686473 1.86745
    vertex 0.463373 -0.551012 1.79979
    vertex 0.502228 -0.654517 2.25
  endloop
endfacet
facet normal 0.543985 -0.814131 -0.203155
  outer loop
    vertex 0.212132 -0.212132 0
    vertex 0.11651 -0.368011 0.368632
    vertex 0.114805 -0.277164 0
  endloop
endfacet
facet normal 0.147635 -0.960151 -0.237307
  outer loop
    vertex 0.11651 -0.368011 0.368632
    vertex 0 -0.3875 0.375
    vertex 0.114805 -0.277164 0
  endloop
endfacet
facet normal 0.1488 -0.963 -0.2247
  outer loop
    vertex 0.11651 -0.368011 0.368632
    vertex 0 -0.475 0.75
    vertex 0 -0.3875 0.375
  endloop
endfacet
facet normal 0.190174 -0.956069 -0.223083
  outer loop
    vertex 0.114805 -0.277164 0
    vertex 0 -0.3875 0.375
    vertex 0 -0.3 0
  endloop
endfacet
facet normal 0.963542 -0.145049 -0.224827
  outer loop
    vertex 0.475 0 0.75
    vertex 0.368955 -0.113658 0.36885
    vertex 0.3875 0 0.375
  endloop
endfacet
facet normal 0.960422 -0.143796 -0.238562
  outer loop
    vertex 0.368955 -0.113658 0.36885
    vertex 0.277164 -0.114805 0
    vertex 0.3875 0 0.375
  endloop
endfacet
facet normal 0.8145 -0.544231 -0.201003
  outer loop
    vertex 0.368955 -0.113658 0.36885
    vertex 0.212132 -0.212132 0
    vertex 0.277164 -0.114805 0
  endloop
endfacet
facet normal 0.956069 -0.190174 -0.223083
  outer loop
    vertex 0.3875 0 0.375
    vertex 0.277164 -0.114805 0
    vertex 0.3 0 0
  endloop
endfacet
facet normal 0.912977 -0.38335 -0.139697
  outer loop
    vertex 0.475 0 0.75
    vertex 0.332005 -0.332005 0.726539
    vertex 0.368955 -0.113658 0.36885
  endloop
endfacet
facet normal 0.668676 -0.663372 -0.335871
  outer loop
    vertex 0.332005 -0.332005 0.726539
    vertex 0.11651 -0.368011 0.368632
    vertex 0.368955 -0.113658 0.36885
  endloop
endfacet
facet normal 0.383429 -0.913049 -0.139006
  outer loop
    vertex 0.332005 -0.332005 0.726539
    vertex 0 -0.475 0.75
    vertex 0.11651 -0.368011 0.368632
  endloop
endfacet
facet normal 0.705266 -0.699879 -0.113006
  outer loop
    vertex 0.368955 -0.113658 0.36885
    vertex 0.11651 -0.368011 0.368632
    vertex 0.212132 -0.212132 0
  endloop
endfacet
facet normal -0.952302 -0.209155 -0.222204
  outer loop
    vertex -0.825 0 2.25
    vertex -0.825292 -0.380893 2.60978
    vertex -0.9125 0 2.625
  endloop
endfacet
facet normal -0.948211 -0.207487 -0.240512
  outer loop
    vertex -0.825292 -0.380893 2.60978
    vertex -0.92388 -0.382683 3
    vertex -0.9125 0 2.625
  endloop
endfacet
facet normal -0.81329 -0.543423 -0.207966
  outer loop
    vertex -0.825292 -0.380893 2.60978
    vertex -0.707107 -0.707107 3
    vertex -0.92388 -0.382683 3
  endloop
endfacet
facet normal -0.956069 -0.190174 -0.223083
  outer loop
    vertex -0.9125 0 2.625
    vertex -0.92388 -0.382683 3
    vertex -1 0 3
  endloop
endfacet
facet normal -0.946913 -0.220372 -0.234075
  outer loop
    vertex -0.825 0 2.25
    vertex -0.737502 -0.363696 2.23844
    vertex -0.825292 -0.380893 2.60978
  endloop
endfacet
facet normal -0.784911 -0.582021 -0.212523
  outer loop
    vertex -0.737502 -0.363696 2.23844
    vertex -0.605887 -0.682184 2.62457
    vertex -0.825292 -0.380893 2.60978
  endloop
endfacet
facet normal -0.747383 -0.614653 -0.252231
  outer loop
    vertex -0.737502 -0.363696 2.23844
    vertex -0.502228 -0.654517 2.25
    vertex -0.605887 -0.682184 2.62457
  endloop
endfacet
facet normal -0.777295 -0.578215 -0.247953
  outer loop
    vertex -0.825292 -0.380893 2.60978
    vertex -0.605887 -0.682184 2.62457
    vertex -0.707107 -0.707107 3
  endloop
endfacet
facet normal -0.353591 -0.875152 -0.330276
  outer loop
    vertex 0 -0.475 0.75
    vertex -0.226839 -0.493384 1.04157
    vertex -0.332005 -0.332005 0.726539
  endloop
endfacet
facet normal -0.69034 -0.71101 -0.133772
  outer loop
    vertex -0.226839 -0.493384 1.04157
    vertex -0.486134 -0.241425 1.04049
    vertex -0.332005 -0.332005 0.726539
  endloop
endfacet
facet normal -0.660423 -0.680998 -0.316359
  outer loop
    vertex -0.226839 -0.493384 1.04157
    vertex -0.423338 -0.446105 1.35
    vertex -0.486134 -0.241425 1.04049
  endloop
endfacet
facet normal -0.875874 -0.354074 -0.327835
  outer loop
    vertex -0.332005 -0.332005 0.726539
    vertex -0.486134 -0.241425 1.04049
    vertex -0.475 0 0.75
  endloop
endfacet
facet normal -0.529485 -0.821559 -0.211393
  outer loop
    vertex -0.423338 -0.446105 1.35
    vertex -0.226839 -0.493384 1.04157
    vertex -0.233014 -0.585983 1.41691
  endloop
endfacet
facet normal -0.202049 -0.950088 -0.237715
  outer loop
    vertex -0.226839 -0.493384 1.04157
    vertex 0 -0.5625 1.125
    vertex -0.233014 -0.585983 1.41691
  endloop
endfacet
facet normal -0.20846 -0.952447 -0.222238
  outer loop
    vertex -0.226839 -0.493384 1.04157
    vertex 0 -0.475 0.75
    vertex 0 -0.5625 1.125
  endloop
endfacet
facet normal -0.183357 -0.957331 -0.223377
  outer loop
    vertex -0.233014 -0.585983 1.41691
    vertex 0 -0.5625 1.125
    vertex 0 -0.65 1.5
  endloop
endfacet
facet normal -0.803678 -0.558231 -0.206106
  outer loop
    vertex -0.423338 -0.446105 1.35
    vertex -0.581617 -0.241734 1.41365
    vertex -0.486134 -0.241425 1.04049
  endloop
endfacet
facet normal -0.946198 -0.214487 -0.24229
  outer loop
    vertex -0.581617 -0.241734 1.41365
    vertex -0.5625 0 1.125
    vertex -0.486134 -0.241425 1.04049
  endloop
endfacet
facet normal -0.95596 -0.19075 -0.223057
  outer loop
    vertex -0.581617 -0.241734 1.41365
    vertex -0.65 0 1.5
    vertex -0.5625 0 1.125
  endloop
endfacet
facet normal -0.949372 -0.222761 -0.22152
  outer loop
    vertex -0.486134 -0.241425 1.04049
    vertex -0.5625 0 1.125
    vertex -0.475 0 0.75
  endloop
endfacet
facet normal -0.481286 -0.854302 -0.196293
  outer loop
    vertex -0.502228 -0.654517 2.25
    vertex -0.270287 -0.868154 2.6111
    vertex -0.605887 -0.682184 2.62457
  endloop
endfacet
facet normal -0.476186 -0.840622 -0.258074
  outer loop
    vertex -0.270287 -0.868154 2.6111
    vertex -0.382683 -0.92388 3
    vertex -0.605887 -0.682184 2.62457
  endloop
endfacet
facet normal -0.191414 -0.962305 -0.193208
  outer loop
    vertex -0.270287 -0.868154 2.6111
    vertex 0 -1 3
    vertex -0.382683 -0.92388 3
  endloop
endfacet
facet normal -0.544253 -0.814533 -0.20081
  outer loop
    vertex -0.605887 -0.682184 2.62457
    vertex -0.382683 -0.92388 3
    vertex -0.707107 -0.707107 3
  endloop
endfacet
facet normal -0.158743 -0.961493 -0.224348
  outer loop
    vertex 0 -0.825 2.25
    vertex 0 -0.9125 2.625
    vertex -0.264461 -0.779077 2.24031
  endloop
endfacet
facet normal -0.145744 -0.96143 -0.233263
  outer loop
    vertex 0 -0.9125 2.625
    vertex -0.270287 -0.868154 2.6111
    vertex -0.264461 -0.779077 2.24031
  endloop
endfacet
facet normal -0.146493 -0.963335 -0.224778
  outer loop
    vertex 0 -0.9125 2.625
    vertex 0 -1 3
    vertex -0.270287 -0.868154 2.6111
  endloop
endfacet
facet normal -0.460114 -0.861628 -0.214227
  outer loop
    vertex -0.264461 -0.779077 2.24031
    vertex -0.270287 -0.868154 2.6111
    vertex -0.502228 -0.654517 2.25
  endloop
endfacet
facet normal -0.943126 -0.249171 -0.220063
  outer loop
    vertex -0.65 0 1.5
    vertex -0.637899 -0.362353 1.85842
    vertex -0.7375 0 1.875
  endloop
endfacet
facet normal -0.937299 -0.246358 -0.246533
  outer loop
    vertex -0.637899 -0.362353 1.85842
    vertex -0.737502 -0.363696 2.23844
    vertex -0.7375 0 1.875
  endloop
endfacet
facet normal -0.757696 -0.620953 -0.200782
  outer loop
    vertex -0.637899 -0.362353 1.85842
    vertex -0.502228 -0.654517 2.25
    vertex -0.737502 -0.363696 2.23844
  endloop
endfacet
facet normal -0.949667 -0.221431 -0.221589
  outer loop
    vertex -0.7375 0 1.875
    vertex -0.737502 -0.363696 2.23844
    vertex -0.825 0 2.25
  endloop
endfacet
facet normal -0.158743 -0.961493 -0.224348
  outer loop
    vertex 0 -0.825 2.25
    vertex -0.264461 -0.779077 2.24031
    vertex 0 -0.7375 1.875
  endloop
endfacet
facet normal -0.177365 -0.955155 -0.237108
  outer loop
    vertex -0.264461 -0.779077 2.24031
    vertex -0.264698 -0.686473 1.86745
    vertex 0 -0.7375 1.875
  endloop
endfacet
facet normal -0.460149 -0.861733 -0.213726
  outer loop
    vertex -0.264461 -0.779077 2.24031
    vertex -0.502228 -0.654517 2.25
    vertex -0.264698 -0.686473 1.86745
  endloop
endfacet
facet normal -0.178343 -0.958229 -0.223587
  outer loop
    vertex 0 -0.7375 1.875
    vertex -0.264698 -0.686473 1.86745
    vertex 0 -0.65 1.5
  endloop
endfacet
facet normal -0.803777 -0.559569 -0.202054
  outer loop
    vertex -0.423338 -0.446105 1.35
    vertex -0.463373 -0.551012 1.79979
    vertex -0.581617 -0.241734 1.41365
  endloop
endfacet
facet normal -0.747748 -0.610842 -0.260279
  outer loop
    vertex -0.463373 -0.551012 1.79979
    vertex -0.637899 -0.362353 1.85842
    vertex -0.581617 -0.241734 1.41365
  endloop
endfacet
facet normal -0.749379 -0.628254 -0.209111
  outer loop
    vertex -0.463373 -0.551012 1.79979
    vertex -0.502228 -0.654517 2.25
    vertex -0.637899 -0.362353 1.85842
  endloop
endfacet
facet normal -0.961674 -0.208388 -0.178206
  outer loop
    vertex -0.581617 -0.241734 1.41365
    vertex -0.637899 -0.362353 1.85842
    vertex -0.65 0 1.5
  endloop
endfacet
facet normal -0.519607 -0.820685 -0.237663
  outer loop
    vertex -0.423338 -0.446105 1.35
    vertex -0.233014 -0.585983 1.41691
    vertex -0.463373 -0.551012 1.79979
  endloop
endfacet
facet normal -0.496512 -0.839139 -0.222082
  outer loop
    vertex -0.233014 -0.585983 1.41691
    vertex -0.264698 -0.686473 1.86745
    vertex -0.463373 -0.551012 1.79979
  endloop
endfacet
facet normal -0.182212 -0.956878 -0.226239
  outer loop
    vertex -0.233014 -0.585983 1.41691
    vertex 0 -0.65 1.5
    vertex -0.264698 -0.686473 1.86745
  endloop
endfacet
facet normal -0.491589 -0.838466 -0.235191
  outer loop
    vertex -0.463373 -0.551012 1.79979
    vertex -0.264698 -0.686473 1.86745
    vertex -0.502228 -0.654517 2.25
  endloop
endfacet
facet normal -0.1488 -0.963 -0.2247
  outer loop
    vertex 0 -0.475 0.75
    vertex -0.11651 -0.368011 0.368632
    vertex 0 -0.3875 0.375
  endloop
endfacet
facet normal -0.147635 -0.960151 -0.237307
  outer loop
    vertex -0.11651 -0.368011 0.368632
    vertex -0.114805 -0.277164 0
    vertex 0 -0.3875 0.375
  endloop
endfacet
facet normal -0.543985 -0.814131 -0.203155
  outer loop
    vertex -0.11651 -0.368011 0.368632
    vertex -0.212132 -0.212132 0
    vertex -0.114805 -0.277164 0
  endloop
endfacet
facet normal -0.190174 -0.956069 -0.223083
  outer loop
    vertex 0 -0.3875 0.375
    vertex -0.114805 -0.277164 0
    vertex 0 -0.3 0
  endloop
endfacet
facet normal -0.8145 -0.544231 -0.201003
  outer loop
    vertex -0.212132 -0.212132 0
    vertex -0.368955 -0.113658 0.36885
    vertex -0.277164 -0.114805 0
  endloop
endfacet
facet normal -0.960422 -0.143796 -0.238562
  outer loop
    vertex -0.368955 -0.113658 0.36885
    vertex -0.3875 0 0.375
    vertex -0.277164 -0.114805 0
  endloop
endfacet
facet normal -0.963542 -0.145049 -0.224827
  outer loop
    vertex -0.368955 -0.113658 0.36885
    vertex -0.475 0 0.75
    vertex -0.3875 0 0.375
  endloop
endfacet
facet normal -0.956069 -0.190174 -0.223083
  outer loop
    vertex -0.277164 -0.114805 0
    vertex -0.3875 0 0.375
    vertex -0.3 0 0
  endloop
endfacet
facet normal -0.383429 -0.913049 -0.139006
  outer loop
    vertex 0 -0.475 0.75
    vertex -0.332005 -0.332005 0.726539
    vertex -0.11651 -0.368011 0.368632
  endloop
endfacet
facet normal -0.668676 -0.663372 -0.335871
  outer loop
    vertex -0.332005 -0.332005 0.726539
    vertex -0.368955 -0.113658 0.36885
    vertex -0.11651 -0.368011 0.368632
  endloop
endfacet
facet normal -0.912977 -0.38335 -0.139697
  outer loop
    vertex -0.332005 -0.332005 0.726539
    vertex -0.475 0 0.75
    vertex -0.368955 -0.113658 0.36885
  endloop
endfacet
facet normal -0.705266 -0.699879 -0.113006
  outer loop
    vertex -0.11651 -0.368011 0.368632
    vertex -0.368955 -0.113658 0.36885
    vertex -0.212132 -0.212132 0
  endloop
endfacet
facet normal 0.952302 -0.209155 0.222204
  outer loop
    vertex -0.825 0 2.25
    vertex -0.825292 0.380893 2.60978
    vertex -0.9125 0 2.625
  endloop
endfacet
facet normal 0.948211 -0.207487 0.240512
  outer loop
    vertex -0.825292 0.380893 2.60978
    vertex -0.92388 0.382683 3
    vertex -0.9125 0 2.625
  endloop
endfacet
facet normal 0.81329 -0.543423 0.207966
  outer loop
    vertex -0.825292 0.380893 2.60978
    vertex -0.707107 0.707107 3
    vertex -0.92388 0.382683 3
  endloop
endfacet
facet normal 0.956069 -0.190174 0.223083
  outer loop
    vertex -0.9125 0 2.625
    vertex -0.92388 0.382683 3
    vertex -1 0 3
  endloop
endfacet
facet normal 0.946913 -0.220372 0.234075
  outer loop
    vertex -0.825 0 2.25
    vertex -0.737502 0.363696 2.23844
    vertex -0.825292 0.380893 2.60978
  endloop
endfacet
facet normal 0.784911 -0.582021 0.212523
  outer loop
    vertex -0.737502 0.363696 2.23844
    vertex -0.605887 0.682184 2.62457
    vertex -0.825292 0.380893 2.60978
  endloop
endfacet
facet normal 0.747383 -0.614653 0.252231
  outer loop
    vertex -0.737502 0.363696 2.23844
    vertex -0.502228 0.654517 2.25
    vertex -0.605887 0.682184 2.62457
  endloop
endfacet
facet normal 0.777295 -0.578215 0.247953
  outer loop
    vertex -0.825292 0.380893 2.60978
    vertex -0.605887 0.682184 2.62457
    vertex -0.707107 0.707107 3
  endloop
endfacet
facet normal 0.803678 -0.558231 0.206106
  outer loop
    vertex -0.423338 0.446105 1.35
    vertex -0.581617 0.241734 1.41365
    vertex -0.486134 0.241425 1.04049
  endloop
endfacet
facet normal 0.946198 -0.214487 0.24229
  outer loop
    vertex -0.581617 0.241734 1.41365
    vertex -0.5625 0 1.125
    vertex -0.486134 0.241425 1.04049
  endloop
endfacet
facet normal 0.95596 -0.19075 0.223057
  outer loop
    vertex -0.581617 0.241734 1.41365
    vertex -0.65 0 1.5
    vertex -0.5625 0 1.125
  endloop
endfacet
facet normal 0.949372 -0.222761 0.22152
  outer loop
    vertex -0.486134 0.241425 1.04049
    vertex -0.5625 0 1.125
    vertex -0.475 0 0.75
  endloop
endfacet
facet normal 0.529485 -0.821559 0.211393
  outer loop
    vertex -0.423338 0.446105 1.35
    vertex -0.226839 0.493384 1.04157
    vertex -0.233014 0.585983 1.41691
  endloop
endfacet
facet normal 0.202049 -0.950088 0.237715
  outer loop
    vertex -0.226839 0.493384 1.04157
    vertex 0 0.5625 1.125
    vertex -0.233014 0.585983 1.41691
  endloop
endfacet
facet normal 0.20846 -0.952447 0.222238
  outer loop
    vertex -0.226839 0.493384 1.04157
    vertex 0 0.475 0.75
    vertex 0 0.5625 1.125
  endloop
endfacet
facet normal 0.183357 -0.957331 0.223377
  outer loop
    vertex -0.233014 0.585983 1.41691
    vertex 0 0.5625 1.125
    vertex 0 0.65 1.5
  endloop
endfacet
facet normal 0.353591 -0.875152 0.330276
  outer loop
    vertex 0 0.475 0.75
    vertex -0.226839 0.493384 1.04157
    vertex -0.332005 0.332005 0.726539
  endloop
endfacet
facet normal 0.69034 -0.71101 0.133772
  outer loop
    vertex -0.226839 0.493384 1.04157
    vertex -0.486134 0.241425 1.04049
    vertex -0.332005 0.332005 0.726539
  endloop
endfacet
facet normal 0.660423 -0.680998 0.316359
  outer loop
    vertex -0.226839 0.493384 1.04157
    vertex -0.423338 0.446105 1.35
    vertex -0.486134 0.241425 1.04049
  endloop
endfacet
facet normal 0.875874 -0.354074 0.327835
  outer loop
    vertex -0.332005 0.332005 0.726539
    vertex -0.486134 0.241425 1.04049
    vertex -0.475 0 0.75
  endloop
endfacet
facet normal 0.480676 -0.854678 0.196152
  outer loop
    vertex -0.502228 0.654517 2.25
    vertex -0.268734 0.869837 2.61602
    vertex -0.605887 0.682184 2.62457
  endloop
endfacet
facet normal 0.474715 -0.841091 0.25925
  outer loop
    vertex -0.268734 0.869837 2.61602
    vertex -0.382683 0.92388 3
    vertex -0.605887 0.682184 2.62457
  endloop
endfacet
facet normal 0.19145 -0.962485 0.192275
  outer loop
    vertex -0.268734 0.869837 2.61602
    vertex 0 1 3
    vertex -0.382683 0.92388 3
  endloop
endfacet
facet normal 0.544253 -0.814533 0.20081
  outer loop
    vertex -0.605887 0.682184 2.62457
    vertex -0.382683 0.92388 3
    vertex -0.707107 0.707107 3
  endloop
endfacet
facet normal 0.158743 -0.961493 0.224348
  outer loop
    vertex 0 0.825 2.25
    vertex 0 0.9125 2.625
    vertex -0.264461 0.779077 2.24031
  endloop
endfacet
facet normal 0.14481 -0.961416 0.233901
  outer loop
    vertex 0 0.9125 2.625
    vertex -0.268734 0.869837 2.61602
    vertex -0.264461 0.779077 2.24031
  endloop
endfacet
facet normal 0.145442 -0.963486 0.224813
  outer loop
    vertex 0 0.9125 2.625
    vertex 0 1 3
    vertex -0.268734 0.869837 2.61602
  endloop
endfacet
facet normal 0.46017 -0.861797 0.213422
  outer loop
    vertex -0.264461 0.779077 2.24031
    vertex -0.268734 0.869837 2.61602
    vertex -0.502228 0.654517 2.25
  endloop
endfacet
facet normal 0.943126 -0.249171 0.220063
  outer loop
    vertex -0.65 0 1.5
    vertex -0.637899 0.362353 1.85842
    vertex -0.7375 0 1.875
  endloop
endfacet
facet normal 0.937299 -0.246358 0.246533
  outer loop
    vertex -0.637899 0.362353 1.85842
    vertex -0.737502 0.363696 2.23844
    vertex -0.7375 0 1.875
  endloop
endfacet
facet normal 0.757696 -0.620953 0.200782
  outer loop
    vertex -0.637899 0.362353 1.85842
    vertex -0.502228 0.654517 2.25
    vertex -0.737502 0.363696 2.23844
  endloop
endfacet
facet normal 0.949667 -0.221431 0.221589
  outer loop
    vertex -0.7375 0 1.875
    vertex -0.737502 0.363696 2.23844
    vertex -0.825 0 2.25
  endloop
endfacet
facet normal 0.158743 -0.961493 0.224348
  outer loop
    vertex 0 0.825 2.25
    vertex -0.264461 0.779077 2.24031
    vertex 0 0.7375 1.875
  endloop
endfacet
facet normal 0.177365 -0.955155 0.237108
  outer loop
    vertex -0.264461 0.779077 2.24031
    vertex -0.264698 0.686473 1.86745
    vertex 0 0.7375 1.875
  endloop
endfacet
facet normal 0.460149 -0.861733 0.213726
  outer loop
    vertex -0.264461 0.779077 2.24031
    vertex -0.502228 0.654517 2.25
    vertex -0.264698 0.686473 1.86745
  endloop
endfacet
facet normal 0.178343 -0.958229 0.223587
  outer loop
    vertex 0 0.7375 1.875
    vertex -0.264698 0.686473 1.86745
    vertex 0 0.65 1.5
  endloop
endfacet
facet normal 0.803777 -0.559569 0.202054
  outer loop
    vertex -0.423338 0.446105 1.35
    vertex -0.463373 0.551012 1.79979
    vertex -0.581617 0.241734 1.41365
  endloop
endfacet
facet normal 0.747748 -0.610842 0.260279
  outer loop
    vertex -0.463373 0.551012 1.79979
    vertex -0.637899 0.362353 1.85842
    vertex -0.581617 0.241734 1.41365
  endloop
endfacet
facet normal 0.749379 -0.628254 0.209111
  outer loop
    vertex -0.463373 0.551012 1.79979
    vertex -0.502228 0.654517 2.25
    vertex -0.637899 0.362353 1.85842
  endloop
endfacet
facet normal 0.961674 -0.208388 0.178206
  outer loop
    vertex -0.581617 0.241734 1.41365
    vertex -0.637899 0.362353 1.85842
    vertex -0.65 0 1.5
  endloop
endfacet
facet normal 0.519607 -0.820685 0.237663
  outer loop
    vertex -0.423338 0.446105 1.35
    vertex -0.233014 0.585983 1.41691
    vertex -0.463373 0.551012 1.79979
  endloop
endfacet
facet normal 0.496512 -0.839139 0.222082
  outer loop
    vertex -0.233014 0.585983 1.41691
    vertex -0.264698 0.686473 1.86745
    vertex -0.463373 0.551012 1.79979
  endloop
endfacet
facet normal 0.182212 -0.956878 0.226239
  outer loop
    vertex -0.233014 0.585983 1.41691
    vertex 0 0.65 1.5
    vertex -0.264698 0.686473 1.86745
  endloop
endfacet
facet normal 0.491589 -0.838466 0.235191
  outer loop
    vertex -0.463373 0.551012 1.79979
    vertex -0.264698 0.686473 1.86745
    vertex -0.502228 0.654517 2.25
  endloop
endfacet
facet normal 0.1488 -0.963 0.2247
  outer loop
    vertex 0 0.475 0.75
    vertex -0.11651 0.368011 0.368632
    vertex 0 0.3875 0.375
  endloop
endfacet
facet normal 0.147635 -0.960151 0.237307
  outer loop
    vertex -0.11651 0.368011 0.368632
    vertex -0.114805 0.277164 0
    vertex 0 0.3875 0.375
  endloop
endfacet
facet normal 0.543985 -0.814131 0.203155
  outer loop
    vertex -0.11651 0.368011 0.368632
    vertex -0.212132 0.212132 0
    vertex -0.114805 0.277164 0
  endloop
endfacet
facet normal 0.190174 -0.956069 0.223083
  outer loop
    vertex 0 0.3875 0.375
    vertex -0.114805 0.277164 0
    vertex 0 0.3 0
  endloop
endfacet
facet normal 0.8145 -0.544231 0.201003
  outer loop
    vertex -0.212132 0.212132 0
    vertex -0.368955 0.113658 0.36885
    vertex -0.277164 0.114805 0
  endloop
endfacet
facet normal 0.960422 -0.143796 0.238562
  outer loop
    vertex -0.368955 0.113658 0.36885
    vertex -0.3875 0 0.375
    vertex -0.277164 0.114805 0
  endloop
endfacet
facet normal 0.963542 -0.145049 0.224827
  outer loop
    vertex -0.368955 0.113658 0.36885
    vertex -0.475 0 0.75
    vertex -0.3875 0 0.375
  endloop
endfacet
facet normal 0.956069 -0.190174 0.223083
  outer loop
    vertex -0.277164 0.114805 0
    vertex -0.3875 0 0.375
    vertex -0.3 0 0
  endloop
endfacet
facet normal 0.383429 -0.913049 0.139006
  outer loop
    vertex 0 0.475 0.75
    vertex -0.332005 0.332005 0.726539
    vertex -0.11651 0.368011 0.368632
  endloop
endfacet
facet normal 0.668676 -0.663372 0.335871
  outer loop
    vertex -0.332005 0.332005 0.726539
    vertex -0.368955 0.113658 0.36885
    vertex -0.11651 0.368011 0.368632
  endloop
endfacet
facet normal 0.912977 -0.38335 0.139697
  outer loop
    vertex -0.332005 0.332005 0.726539
    vertex -0.475 0 0.75
    vertex -0.368955 0.113658 0.36885
  endloop
endfacet
facet normal 0.705266 -0.699879 0.113006
  outer loop
    vertex -0.11651 0.368011 0.368632
    vertex -0.368955 0.113658 0.36885
    vertex -0.212132 0.212132 0
  endloop
endfacet
endsolid Created by Gmsh
