<?xml version="1.0" encoding="UTF-8" standalone="no"?>
<!-- Created with Inkscape (http://www.inkscape.org/) -->

<svg
   xmlns:osb="http://www.openswatchbook.org/uri/2009/osb"
   xmlns:dc="http://purl.org/dc/elements/1.1/"
   xmlns:cc="http://creativecommons.org/ns#"
   xmlns:rdf="http://www.w3.org/1999/02/22-rdf-syntax-ns#"
   xmlns:svg="http://www.w3.org/2000/svg"
   xmlns="http://www.w3.org/2000/svg"
   xmlns:sodipodi="http://sodipodi.sourceforge.net/DTD/sodipodi-0.dtd"
   xmlns:inkscape="http://www.inkscape.org/namespaces/inkscape"
   width="80mm"
   height="80mm"
   viewBox="0 0 80 80"
   version="1.1"
   id="svg8"
   inkscape:version="0.92.4 (33fec40, 2019-01-16)"
   sodipodi:docname="logo.svg">
  <defs
     id="defs2">
    <linearGradient
       id="linearGradient7526"
       osb:paint="solid">
      <stop
         style="stop-color:#000000;stop-opacity:1;"
         offset="0"
         id="stop7524" />
    </linearGradient>
    <marker
       inkscape:stockid="DotM"
       orient="auto"
       refY="0"
       refX="0"
       id="DotM"
       style="overflow:visible"
       inkscape:isstock="true">
      <path
         id="path4997"
         d="m -2.5,-1 c 0,2.76 -2.24,5 -5,5 -2.76,0 -5,-2.24 -5,-5 0,-2.76 2.24,-5 5,-5 2.76,0 5,2.24 5,5 z"
         style="fill:#000000;fill-opacity:1;fill-rule:evenodd;stroke:#000000;stroke-width:1.00000003pt;stroke-opacity:1"
         transform="matrix(0.4,0,0,0.4,2.96,0.4)"
         inkscape:connector-curvature="0" />
    </marker>
    <marker
       inkscape:stockid="DotM"
       orient="auto"
       refY="0"
       refX="0"
       id="DotM-0"
       style="overflow:visible"
       inkscape:isstock="true">
      <path
         inkscape:connector-curvature="0"
         id="path4997-4"
         d="m -2.5,-1 c 0,2.76 -2.24,5 -5,5 -2.76,0 -5,-2.24 -5,-5 0,-2.76 2.24,-5 5,-5 2.76,0 5,2.24 5,5 z"
         style="fill:none;fill-opacity:1;fill-rule:evenodd;stroke:none;stroke-width:1.00000003pt;stroke-opacity:1"
         transform="matrix(0.4,0,0,0.4,2.96,0.4)" />
    </marker>
    <marker
       inkscape:stockid="DotM"
       orient="auto"
       refY="0"
       refX="0"
       id="marker5437"
       style="overflow:visible"
       inkscape:isstock="true">
      <path
         inkscape:connector-curvature="0"
         id="path5435"
         d="m -2.5,-1 c 0,2.76 -2.24,5 -5,5 -2.76,0 -5,-2.24 -5,-5 0,-2.76 2.24,-5 5,-5 2.76,0 5,2.24 5,5 z"
         style="fill:#000000;fill-opacity:1;fill-rule:evenodd;stroke:#000000;stroke-width:1.00000003pt;stroke-opacity:1"
         transform="matrix(0.4,0,0,0.4,2.96,0.4)" />
    </marker>
    <marker
       inkscape:stockid="DotM"
       orient="auto"
       refY="0"
       refX="0"
       id="marker5441"
       style="overflow:visible"
       inkscape:isstock="true">
      <path
         inkscape:connector-curvature="0"
         id="path5439"
         d="m -2.5,-1 c 0,2.76 -2.24,5 -5,5 -2.76,0 -5,-2.24 -5,-5 0,-2.76 2.24,-5 5,-5 2.76,0 5,2.24 5,5 z"
         style="fill:#000000;fill-opacity:1;fill-rule:evenodd;stroke:#000000;stroke-width:1.00000003pt;stroke-opacity:1"
         transform="matrix(0.4,0,0,0.4,2.96,0.4)" />
    </marker>
    <marker
       inkscape:stockid="DotM"
       orient="auto"
       refY="0"
       refX="0"
       id="DotM-04"
       style="overflow:visible"
       inkscape:isstock="true">
      <path
         inkscape:connector-curvature="0"
         id="path4997-2"
         d="m -2.5,-1 c 0,2.76 -2.24,5 -5,5 -2.76,0 -5,-2.24 -5,-5 0,-2.76 2.24,-5 5,-5 2.76,0 5,2.24 5,5 z"
         style="fill:#000000;fill-opacity:1;fill-rule:evenodd;stroke:none;stroke-width:1.00000003pt;stroke-opacity:1"
         transform="matrix(0.4,0,0,0.4,2.96,0.4)" />
    </marker>
    <marker
       inkscape:stockid="DotM"
       orient="auto"
       refY="0"
       refX="0"
       id="marker31104"
       style="overflow:visible"
       inkscape:isstock="true">
      <path
         inkscape:connector-curvature="0"
         id="path31102"
         d="m -2.5,-1 c 0,2.76 -2.24,5 -5,5 -2.76,0 -5,-2.24 -5,-5 0,-2.76 2.24,-5 5,-5 2.76,0 5,2.24 5,5 z"
         style="fill:#000000;fill-opacity:1;fill-rule:evenodd;stroke:#000000;stroke-width:1.00000003pt;stroke-opacity:1"
         transform="matrix(0.4,0,0,0.4,2.96,0.4)" />
    </marker>
    <marker
       inkscape:stockid="DotM"
       orient="auto"
       refY="0"
       refX="0"
       id="marker31108"
       style="overflow:visible"
       inkscape:isstock="true">
      <path
         inkscape:connector-curvature="0"
         id="path31106"
         d="m -2.5,-1 c 0,2.76 -2.24,5 -5,5 -2.76,0 -5,-2.24 -5,-5 0,-2.76 2.24,-5 5,-5 2.76,0 5,2.24 5,5 z"
         style="fill:#000000;fill-opacity:1;fill-rule:evenodd;stroke:#000000;stroke-width:1.00000003pt;stroke-opacity:1"
         transform="matrix(0.4,0,0,0.4,2.96,0.4)" />
    </marker>
    <marker
       inkscape:stockid="DotM"
       orient="auto"
       refY="0"
       refX="0"
       id="DotM-04-5"
       style="overflow:visible"
       inkscape:isstock="true">
      <path
         inkscape:connector-curvature="0"
         id="path4997-2-2"
         d="m -2.5,-1 c 0,2.76 -2.24,5 -5,5 -2.76,0 -5,-2.24 -5,-5 0,-2.76 2.24,-5 5,-5 2.76,0 5,2.24 5,5 z"
         style="fill:#000080;fill-opacity:1;fill-rule:evenodd;stroke:#000000;stroke-width:1.00000003pt;stroke-opacity:1"
         transform="matrix(0.4,0,0,0.4,2.96,0.4)" />
    </marker>
    <marker
       inkscape:stockid="DotM"
       orient="auto"
       refY="0"
       refX="0"
       id="marker53391"
       style="overflow:visible"
       inkscape:isstock="true">
      <path
         inkscape:connector-curvature="0"
         id="path53389"
         d="m -2.5,-1 c 0,2.76 -2.24,5 -5,5 -2.76,0 -5,-2.24 -5,-5 0,-2.76 2.24,-5 5,-5 2.76,0 5,2.24 5,5 z"
         style="fill:#000000;fill-opacity:1;fill-rule:evenodd;stroke:#000000;stroke-width:1.00000003pt;stroke-opacity:1"
         transform="matrix(0.4,0,0,0.4,2.96,0.4)" />
    </marker>
    <marker
       inkscape:stockid="DotM"
       orient="auto"
       refY="0"
       refX="0"
       id="marker53395"
       style="overflow:visible"
       inkscape:isstock="true">
      <path
         inkscape:connector-curvature="0"
         id="path53393"
         d="m -2.5,-1 c 0,2.76 -2.24,5 -5,5 -2.76,0 -5,-2.24 -5,-5 0,-2.76 2.24,-5 5,-5 2.76,0 5,2.24 5,5 z"
         style="fill:#000000;fill-opacity:1;fill-rule:evenodd;stroke:#000000;stroke-width:1.00000003pt;stroke-opacity:1"
         transform="matrix(0.4,0,0,0.4,2.96,0.4)" />
    </marker>
  </defs>
  <sodipodi:namedview
     id="base"
     pagecolor="#ffffff"
     bordercolor="#666666"
     borderopacity="1.0"
     inkscape:pageopacity="0.0"
     inkscape:pageshadow="2"
     inkscape:zoom="1"
     inkscape:cx="264"
     inkscape:cy="280"
     inkscape:document-units="mm"
     inkscape:current-layer="layer1"
     showgrid="false"
     inkscape:snap-text-baseline="true"
     inkscape:window-width="1920"
     inkscape:window-height="1016"
     inkscape:window-x="0"
     inkscape:window-y="27"
     inkscape:window-maximized="1"
     showborder="true" />
  <metadata
     id="metadata5">
    <rdf:RDF>
      <cc:Work
         rdf:about="">
        <dc:format>image/svg+xml</dc:format>
        <dc:type
           rdf:resource="http://purl.org/dc/dcmitype/StillImage" />
        <dc:title></dc:title>
      </cc:Work>
    </rdf:RDF>
  </metadata>
  <g
     inkscape:label="Layer 1"
     inkscape:groupmode="layer"
     id="layer1"
     transform="translate(0,-217)">
    <path
       id="path4923-8"
       style="opacity:0.92099998;fill:none;fill-opacity:1;fill-rule:nonzero;stroke:none;stroke-width:1.102;stroke-miterlimit:4;stroke-dasharray:0, 1.10199999, 2.20399997, 3.30599996, 4.40799994, 5.50999993, 6.61199992, 7.7139999, 8.81599989, 9.91799987, 11.01999986, 12.12199985, 13.22399983, 14.32599982, 15.42799981;stroke-dashoffset:0;stroke-opacity:1;marker-start:url(#DotM-0);marker-mid:url(#DotM-0);marker-end:url(#DotM-0)"
       d="m 39.624497,229.79274 a 28.106629,27.709757 0 0 0 -28.106292,27.70994 28.106629,27.709757 0 0 0 28.106292,27.70994 28.106629,27.709757 0 0 0 28.10682,-27.70994 28.106629,27.709757 0 0 0 -5.53352,-16.45791 c -0.25245,-0.11648 -0.21298,-0.2536 -0.41599,-0.43357 -0.63836,-0.56587 -0.55126,-0.37478 -1.02061,-0.9219 -0.0105,-0.0122 0.0314,0.008 0.047,0.0124 -0.25986,-0.3085 -0.55752,-0.58894 -0.77979,-0.92553 -0.0115,-0.0175 -0.0257,-0.045 -0.0393,-0.0703 -0.38459,-0.16044 -0.11468,-0.0133 -1.11724,-0.87643 -0.92098,-0.91639 -1.82756,-1.84892 -2.79828,-2.7125 -0.12858,-0.11437 -0.36085,-0.18502 -0.42633,-0.32866 -0.0534,-0.006 -0.10632,-0.0141 -0.15865,-0.0274 -0.2404,-0.0612 -0.5289,-0.31521 -0.75602,-0.58859 a 28.106629,27.709757 0 0 0 -15.10813,-4.37958 z m 20.51865,8.97982 c 0.009,0.013 0.0175,0.026 0.0289,0.0362 0.055,0.049 0.18174,0.10528 0.29093,0.14728 a 28.106629,27.709757 0 0 0 -0.0506,-0.0568 c -0.0913,-0.043 -0.20306,-0.0974 -0.26923,-0.1266 z"
       inkscape:connector-curvature="0" />
    <path
       style="opacity:0.74199997;fill:#000000;fill-opacity:1;stroke:none;stroke-width:1.04702282;stroke-miterlimit:4;stroke-dasharray:none;stroke-dashoffset:0;stroke-opacity:1"
       d="m 39.624777,231.55236 a 27.119791,25.929167 0 0 0 -27.119791,25.92916 27.119791,25.929167 0 0 0 27.119791,25.92918 27.119791,25.929167 0 0 0 27.1198,-25.92918 27.119791,25.929167 0 0 0 -27.1198,-25.92916 z"
       id="path4923-1"
       inkscape:connector-curvature="0" />
    <ellipse
       style="opacity:0.92099998;fill:none;fill-opacity:1;fill-rule:nonzero;stroke:none;stroke-width:1.102;stroke-miterlimit:4;stroke-dasharray:0, 1.10199999, 2.20399997, 3.30599996, 4.40799994, 5.50999993, 6.61199992, 7.7139999, 8.81599989, 9.91799987, 11.01999986, 12.12199985, 13.22399983, 14.32599982, 15.42799981;stroke-dashoffset:0;stroke-opacity:1"
       id="path50193"
       cx="39.624775"
       cy="257.48154"
       rx="11.90625"
       ry="10.318749" />
    <path
       id="text103-9-4"
       style="font-style:normal;font-weight:normal;font-size:10.58333302px;line-height:1.25;font-family:sans-serif;letter-spacing:0px;word-spacing:0px;opacity:0.92099998;fill:#3162ff;fill-opacity:1;stroke:none;stroke-width:0.33050644"
       d="m 23.973026,238.60929 v 4.79142 h 4.06207 v 31.63492 h 5.340351 v -31.63492 h 11.73172 v 22.57706 c 0,0.78428 0.43557,6.692 1.30668,8.17912 0.87112,1.46459 2.44291,2.19687 4.71541,2.19687 0.70068,0 1.40138,-0.0676 2.10206,-0.20278 0.70068,-0.13519 1.38242,-0.34925 2.04522,-0.64218 v -4.49513 c -0.13255,0.0224 -0.40715,0.0676 -0.82377,0.13519 -0.41662,0.045 -0.76696,0.0676 -1.05103,0.0676 -1.04155,0 -1.79905,-0.34924 -2.27248,-1.04773 -0.4545,-0.72103 -0.68175,-1.8927 -0.68175,-3.515 v -23.25297 h 4.00526 v -4.75802 z"
       inkscape:connector-curvature="0"
       sodipodi:nodetypes="cccccccscsccccscscccc" />
    <text
       xml:space="preserve"
       style="font-style:normal;font-weight:normal;font-size:18.31869888px;line-height:1.25;font-family:sans-serif;letter-spacing:0px;word-spacing:0px;fill:#000000;fill-opacity:1;stroke:none;stroke-width:0.45796743"
       x="0.47680026"
       y="294.45874"
       id="text69656"
       transform="scale(1.0174271,0.9828714)"><tspan
         sodipodi:role="line"
         id="tspan69654"
         x="0.47680026"
         y="294.45874"
         style="font-style:normal;font-variant:normal;font-weight:normal;font-stretch:normal;font-size:87.92974854px;font-family:'URW Gothic L';-inkscape-font-specification:'URW Gothic L, Normal';font-variant-ligatures:normal;font-variant-caps:normal;font-variant-numeric:normal;font-feature-settings:normal;text-align:start;writing-mode:lr-tb;text-anchor:start;stroke-width:0.45796743">G</tspan></text>
  </g>
</svg>
