solid Created by Gmsh
facet normal 0 0 -1
  outer loop
    vertex -0.5 0 0.5
    vertex -0.391602 -0.046875 0.5
    vertex -0.5 -0.125 0.5
  endloop
endfacet
facet normal 0 -0 -1
  outer loop
    vertex -0.391602 -0.046875 0.5
    vertex -0.391602 -0.171875 0.5
    vertex -0.5 -0.125 0.5
  endloop
endfacet
facet normal 0 0 -1
  outer loop
    vertex -0.391602 -0.046875 0.5
    vertex -0.283203 -0.09375 0.5
    vertex -0.391602 -0.171875 0.5
  endloop
endfacet
facet normal 0 0 -1
  outer loop
    vertex -0.5 -0.125 0.5
    vertex -0.391602 -0.171875 0.5
    vertex -0.5 -0.25 0.5
  endloop
endfacet
facet normal 0 0 -1
  outer loop
    vertex 0.5 0 0.5
    vertex 0.391602 0.046875 0.5
    vertex 0.5 0.125 0.5
  endloop
endfacet
facet normal 0 0 -1
  outer loop
    vertex 0.391602 0.046875 0.5
    vertex 0.391602 0.171875 0.5
    vertex 0.5 0.125 0.5
  endloop
endfacet
facet normal 0 0 -1
  outer loop
    vertex 0.391602 0.046875 0.5
    vertex 0.283203 0.09375 0.5
    vertex 0.391602 0.171875 0.5
  endloop
endfacet
facet normal 0 0 -1
  outer loop
    vertex 0.5 0.125 0.5
    vertex 0.391602 0.171875 0.5
    vertex 0.5 0.25 0.5
  endloop
endfacet
facet normal 0 0 -1
  outer loop
    vertex -1.37262e-12 0.125 0.5
    vertex 0.141602 0.109375 0.5
    vertex 0.0979004 0.0742187 0.5
  endloop
endfacet
facet normal 0 -0 -1
  outer loop
    vertex 0.141602 0.109375 0.5
    vertex 0.239502 0.0585938 0.5
    vertex 0.0979004 0.0742187 0.5
  endloop
endfacet
facet normal 0 0 -1
  outer loop
    vertex 0.141602 0.109375 0.5
    vertex 0.283203 0.09375 0.5
    vertex 0.239502 0.0585938 0.5
  endloop
endfacet
facet normal 0 0 -1
  outer loop
    vertex 0.0979004 0.0742187 0.5
    vertex 0.239502 0.0585938 0.5
    vertex 0.195801 0.0234375 0.5
  endloop
endfacet
facet normal 0 0 -1
  outer loop
    vertex 1.37262e-12 -0.125 0.5
    vertex -0.141602 -0.109375 0.5
    vertex -0.0979004 -0.0742187 0.5
  endloop
endfacet
facet normal 0 0 -1
  outer loop
    vertex -0.141602 -0.109375 0.5
    vertex -0.239502 -0.0585938 0.5
    vertex -0.0979004 -0.0742187 0.5
  endloop
endfacet
facet normal 0 0 -1
  outer loop
    vertex -0.141602 -0.109375 0.5
    vertex -0.283203 -0.09375 0.5
    vertex -0.239502 -0.0585938 0.5
  endloop
endfacet
facet normal 0 0 -1
  outer loop
    vertex -0.0979004 -0.0742187 0.5
    vertex -0.239502 -0.0585938 0.5
    vertex -0.195801 -0.0234375 0.5
  endloop
endfacet
facet normal 0 0 -1
  outer loop
    vertex -1.37262e-12 0.125 0.5
    vertex 0.0979004 0.0742187 0.5
    vertex 0 0 0.5
  endloop
endfacet
facet normal 0 -0 -1
  outer loop
    vertex 0.0979004 0.0742187 0.5
    vertex 0.0979004 -0.0507812 0.5
    vertex 0 0 0.5
  endloop
endfacet
facet normal 0 0 -1
  outer loop
    vertex 0.0979004 0.0742187 0.5
    vertex 0.195801 0.0234375 0.5
    vertex 0.0979004 -0.0507812 0.5
  endloop
endfacet
facet normal 0 0 -1
  outer loop
    vertex 0 0 0.5
    vertex 0.0979004 -0.0507812 0.5
    vertex 1.37262e-12 -0.125 0.5
  endloop
endfacet
facet normal 0 -0 -1
  outer loop
    vertex -1.37262e-12 0.125 0.5
    vertex 0 0 0.5
    vertex -0.0979004 0.0507812 0.5
  endloop
endfacet
facet normal -0 0 -1
  outer loop
    vertex 0 0 0.5
    vertex -0.0979004 -0.0742187 0.5
    vertex -0.0979004 0.0507812 0.5
  endloop
endfacet
facet normal 0 -0 -1
  outer loop
    vertex 0 0 0.5
    vertex 1.37262e-12 -0.125 0.5
    vertex -0.0979004 -0.0742187 0.5
  endloop
endfacet
facet normal 0 -0 -1
  outer loop
    vertex -0.0979004 0.0507812 0.5
    vertex -0.0979004 -0.0742187 0.5
    vertex -0.195801 -0.0234375 0.5
  endloop
endfacet
facet normal 0 0 -1
  outer loop
    vertex -0.5 0 0.5
    vertex -0.25 0.0625 0.5
    vertex -0.3479 -0.0117188 0.5
  endloop
endfacet
facet normal 0 -0 -1
  outer loop
    vertex -0.25 0.0625 0.5
    vertex -0.0979004 0.0507812 0.5
    vertex -0.3479 -0.0117188 0.5
  endloop
endfacet
facet normal 0 0 -1
  outer loop
    vertex -0.25 0.0625 0.5
    vertex -1.37262e-12 0.125 0.5
    vertex -0.0979004 0.0507812 0.5
  endloop
endfacet
facet normal 0 0 -1
  outer loop
    vertex -0.3479 -0.0117188 0.5
    vertex -0.0979004 0.0507812 0.5
    vertex -0.195801 -0.0234375 0.5
  endloop
endfacet
facet normal 0 0 -1
  outer loop
    vertex -0.5 0 0.5
    vertex -0.3479 -0.0117188 0.5
    vertex -0.391602 -0.046875 0.5
  endloop
endfacet
facet normal 0 -0 -1
  outer loop
    vertex -0.3479 -0.0117188 0.5
    vertex -0.239502 -0.0585938 0.5
    vertex -0.391602 -0.046875 0.5
  endloop
endfacet
facet normal 0 0 -1
  outer loop
    vertex -0.3479 -0.0117188 0.5
    vertex -0.195801 -0.0234375 0.5
    vertex -0.239502 -0.0585938 0.5
  endloop
endfacet
facet normal 0 0 -1
  outer loop
    vertex -0.391602 -0.046875 0.5
    vertex -0.239502 -0.0585938 0.5
    vertex -0.283203 -0.09375 0.5
  endloop
endfacet
facet normal -0 0 -1
  outer loop
    vertex 0.5 0 0.5
    vertex 0.25 -0.0625 0.5
    vertex 0.3479 0.0117188 0.5
  endloop
endfacet
facet normal 0 0 -1
  outer loop
    vertex 0.25 -0.0625 0.5
    vertex 0.0979004 -0.0507812 0.5
    vertex 0.3479 0.0117188 0.5
  endloop
endfacet
facet normal -0 0 -1
  outer loop
    vertex 0.25 -0.0625 0.5
    vertex 1.37262e-12 -0.125 0.5
    vertex 0.0979004 -0.0507812 0.5
  endloop
endfacet
facet normal -0 0 -1
  outer loop
    vertex 0.3479 0.0117188 0.5
    vertex 0.0979004 -0.0507812 0.5
    vertex 0.195801 0.0234375 0.5
  endloop
endfacet
facet normal 0 0 -1
  outer loop
    vertex 0.5 0 0.5
    vertex 0.3479 0.0117188 0.5
    vertex 0.391602 0.046875 0.5
  endloop
endfacet
facet normal 0 0 -1
  outer loop
    vertex 0.3479 0.0117188 0.5
    vertex 0.239502 0.0585938 0.5
    vertex 0.391602 0.046875 0.5
  endloop
endfacet
facet normal 0 0 -1
  outer loop
    vertex 0.3479 0.0117188 0.5
    vertex 0.195801 0.0234375 0.5
    vertex 0.239502 0.0585938 0.5
  endloop
endfacet
facet normal 0 0 -1
  outer loop
    vertex 0.391602 0.046875 0.5
    vertex 0.239502 0.0585938 0.5
    vertex 0.283203 0.09375 0.5
  endloop
endfacet
facet normal 0 0 -1
  outer loop
    vertex -0.5 -0.25 0.5
    vertex -0.391602 -0.171875 0.5
    vertex -0.25 -0.1875 0.5
  endloop
endfacet
facet normal 0 0 -1
  outer loop
    vertex -0.391602 -0.171875 0.5
    vertex -0.141602 -0.109375 0.5
    vertex -0.25 -0.1875 0.5
  endloop
endfacet
facet normal 0 0 -1
  outer loop
    vertex -0.391602 -0.171875 0.5
    vertex -0.283203 -0.09375 0.5
    vertex -0.141602 -0.109375 0.5
  endloop
endfacet
facet normal 0 0 -1
  outer loop
    vertex -0.25 -0.1875 0.5
    vertex -0.141602 -0.109375 0.5
    vertex 1.37262e-12 -0.125 0.5
  endloop
endfacet
facet normal 0 0 -1
  outer loop
    vertex 0.5 0.25 0.5
    vertex 0.391602 0.171875 0.5
    vertex 0.25 0.1875 0.5
  endloop
endfacet
facet normal -0 0 -1
  outer loop
    vertex 0.391602 0.171875 0.5
    vertex 0.141602 0.109375 0.5
    vertex 0.25 0.1875 0.5
  endloop
endfacet
facet normal 0 0 -1
  outer loop
    vertex 0.391602 0.171875 0.5
    vertex 0.283203 0.09375 0.5
    vertex 0.141602 0.109375 0.5
  endloop
endfacet
facet normal 0 0 -1
  outer loop
    vertex 0.25 0.1875 0.5
    vertex 0.141602 0.109375 0.5
    vertex -1.37262e-12 0.125 0.5
  endloop
endfacet
facet normal 0 0 1
  outer loop
    vertex 0.125 1.41731e-12 0.5
    vertex 3.48749e-13 1.39497e-12 0.5
    vertex 0.046875 -0.108398 0.5
  endloop
endfacet
facet normal 0 0 1
  outer loop
    vertex 3.48749e-13 1.39497e-12 0.5
    vertex -0.078125 -0.108398 0.5
    vertex 0.046875 -0.108398 0.5
  endloop
endfacet
facet normal 0 0 1
  outer loop
    vertex 3.48749e-13 1.39497e-12 0.5
    vertex -0.125 1.37262e-12 0.5
    vertex -0.078125 -0.108398 0.5
  endloop
endfacet
facet normal 0 0 1
  outer loop
    vertex 0.046875 -0.108398 0.5
    vertex -0.078125 -0.108398 0.5
    vertex -0.03125 -0.216797 0.5
  endloop
endfacet
facet normal 0 0 1
  outer loop
    vertex 0.125 1.41731e-12 0.5
    vertex 0.078125 0.108398 0.5
    vertex 3.48749e-13 1.39497e-12 0.5
  endloop
endfacet
facet normal 0 0 1
  outer loop
    vertex 0.078125 0.108398 0.5
    vertex -0.046875 0.108398 0.5
    vertex 3.48749e-13 1.39497e-12 0.5
  endloop
endfacet
facet normal 0 0 1
  outer loop
    vertex 0.078125 0.108398 0.5
    vertex 0.03125 0.216797 0.5
    vertex -0.046875 0.108398 0.5
  endloop
endfacet
facet normal 0 0 1
  outer loop
    vertex 3.48749e-13 1.39497e-12 0.5
    vertex -0.046875 0.108398 0.5
    vertex -0.125 1.37262e-12 0.5
  endloop
endfacet
facet normal 0 0 1
  outer loop
    vertex 0 -0.5 0.5
    vertex -0.015625 -0.358398 0.5
    vertex -0.0507812 -0.4021 0.5
  endloop
endfacet
facet normal 0 0 1
  outer loop
    vertex -0.015625 -0.358398 0.5
    vertex -0.0664062 -0.260498 0.5
    vertex -0.0507812 -0.4021 0.5
  endloop
endfacet
facet normal 0 0 1
  outer loop
    vertex -0.015625 -0.358398 0.5
    vertex -0.03125 -0.216797 0.5
    vertex -0.0664062 -0.260498 0.5
  endloop
endfacet
facet normal 0 0 1
  outer loop
    vertex -0.0507812 -0.4021 0.5
    vertex -0.0664062 -0.260498 0.5
    vertex -0.101562 -0.304199 0.5
  endloop
endfacet
facet normal 0 0 1
  outer loop
    vertex 0 0.5 0.5
    vertex 0.015625 0.358398 0.5
    vertex 0.0507813 0.4021 0.5
  endloop
endfacet
facet normal -0 0 1
  outer loop
    vertex 0.015625 0.358398 0.5
    vertex 0.0664063 0.260498 0.5
    vertex 0.0507813 0.4021 0.5
  endloop
endfacet
facet normal 0 0 1
  outer loop
    vertex 0.015625 0.358398 0.5
    vertex 0.03125 0.216797 0.5
    vertex 0.0664063 0.260498 0.5
  endloop
endfacet
facet normal 0 0 1
  outer loop
    vertex 0.0507813 0.4021 0.5
    vertex 0.0664063 0.260498 0.5
    vertex 0.101563 0.304199 0.5
  endloop
endfacet
facet normal 0 0 1
  outer loop
    vertex 0 -0.5 0.5
    vertex -0.0507812 -0.4021 0.5
    vertex -0.125 -0.5 0.5
  endloop
endfacet
facet normal 0 0 1
  outer loop
    vertex -0.0507812 -0.4021 0.5
    vertex -0.175781 -0.4021 0.5
    vertex -0.125 -0.5 0.5
  endloop
endfacet
facet normal 0 0 1
  outer loop
    vertex -0.0507812 -0.4021 0.5
    vertex -0.101562 -0.304199 0.5
    vertex -0.175781 -0.4021 0.5
  endloop
endfacet
facet normal 0 0 1
  outer loop
    vertex -0.125 -0.5 0.5
    vertex -0.175781 -0.4021 0.5
    vertex -0.25 -0.5 0.5
  endloop
endfacet
facet normal -0 0 1
  outer loop
    vertex 0 0.5 0.5
    vertex 0.0507813 0.4021 0.5
    vertex 0.125 0.5 0.5
  endloop
endfacet
facet normal 0 0 1
  outer loop
    vertex 0.0507813 0.4021 0.5
    vertex 0.175781 0.4021 0.5
    vertex 0.125 0.5 0.5
  endloop
endfacet
facet normal -0 0 1
  outer loop
    vertex 0.0507813 0.4021 0.5
    vertex 0.101563 0.304199 0.5
    vertex 0.175781 0.4021 0.5
  endloop
endfacet
facet normal -0 0 1
  outer loop
    vertex 0.125 0.5 0.5
    vertex 0.175781 0.4021 0.5
    vertex 0.25 0.5 0.5
  endloop
endfacet
facet normal 0 -0 1
  outer loop
    vertex 0 -0.5 0.5
    vertex 0.0625 -0.25 0.5
    vertex -0.015625 -0.358398 0.5
  endloop
endfacet
facet normal 0 0 1
  outer loop
    vertex 0.0625 -0.25 0.5
    vertex 0.046875 -0.108398 0.5
    vertex -0.015625 -0.358398 0.5
  endloop
endfacet
facet normal 0 -0 1
  outer loop
    vertex 0.0625 -0.25 0.5
    vertex 0.125 1.41731e-12 0.5
    vertex 0.046875 -0.108398 0.5
  endloop
endfacet
facet normal 0 -0 1
  outer loop
    vertex -0.015625 -0.358398 0.5
    vertex 0.046875 -0.108398 0.5
    vertex -0.03125 -0.216797 0.5
  endloop
endfacet
facet normal 0 0 1
  outer loop
    vertex 0 0.5 0.5
    vertex -0.0625 0.25 0.5
    vertex 0.015625 0.358398 0.5
  endloop
endfacet
facet normal -0 0 1
  outer loop
    vertex -0.0625 0.25 0.5
    vertex -0.046875 0.108398 0.5
    vertex 0.015625 0.358398 0.5
  endloop
endfacet
facet normal 0 0 1
  outer loop
    vertex -0.0625 0.25 0.5
    vertex -0.125 1.37262e-12 0.5
    vertex -0.046875 0.108398 0.5
  endloop
endfacet
facet normal 0 0 1
  outer loop
    vertex 0.015625 0.358398 0.5
    vertex -0.046875 0.108398 0.5
    vertex 0.03125 0.216797 0.5
  endloop
endfacet
facet normal 0 0 1
  outer loop
    vertex -0.25 -0.5 0.5
    vertex -0.175781 -0.4021 0.5
    vertex -0.1875 -0.25 0.5
  endloop
endfacet
facet normal 0 -0 1
  outer loop
    vertex -0.175781 -0.4021 0.5
    vertex -0.113281 -0.1521 0.5
    vertex -0.1875 -0.25 0.5
  endloop
endfacet
facet normal 0 0 1
  outer loop
    vertex -0.175781 -0.4021 0.5
    vertex -0.101562 -0.304199 0.5
    vertex -0.113281 -0.1521 0.5
  endloop
endfacet
facet normal 0 0 1
  outer loop
    vertex -0.1875 -0.25 0.5
    vertex -0.113281 -0.1521 0.5
    vertex -0.125 1.37262e-12 0.5
  endloop
endfacet
facet normal 0 0 1
  outer loop
    vertex 0.25 0.5 0.5
    vertex 0.175781 0.4021 0.5
    vertex 0.1875 0.25 0.5
  endloop
endfacet
facet normal 0 0 1
  outer loop
    vertex 0.175781 0.4021 0.5
    vertex 0.113281 0.1521 0.5
    vertex 0.1875 0.25 0.5
  endloop
endfacet
facet normal 0 0 1
  outer loop
    vertex 0.175781 0.4021 0.5
    vertex 0.101563 0.304199 0.5
    vertex 0.113281 0.1521 0.5
  endloop
endfacet
facet normal 0 0 1
  outer loop
    vertex 0.1875 0.25 0.5
    vertex 0.113281 0.1521 0.5
    vertex 0.125 1.41731e-12 0.5
  endloop
endfacet
facet normal 0 0 1
  outer loop
    vertex 0.125 1.41731e-12 0.5
    vertex 0.113281 0.1521 0.5
    vertex 0.078125 0.108398 0.5
  endloop
endfacet
facet normal 0 0 1
  outer loop
    vertex 0.113281 0.1521 0.5
    vertex 0.0664063 0.260498 0.5
    vertex 0.078125 0.108398 0.5
  endloop
endfacet
facet normal 0 0 1
  outer loop
    vertex 0.113281 0.1521 0.5
    vertex 0.101563 0.304199 0.5
    vertex 0.0664063 0.260498 0.5
  endloop
endfacet
facet normal 0 0 1
  outer loop
    vertex 0.078125 0.108398 0.5
    vertex 0.0664063 0.260498 0.5
    vertex 0.03125 0.216797 0.5
  endloop
endfacet
facet normal 0 0 1
  outer loop
    vertex -0.125 1.37262e-12 0.5
    vertex -0.113281 -0.1521 0.5
    vertex -0.078125 -0.108398 0.5
  endloop
endfacet
facet normal -0 0 1
  outer loop
    vertex -0.113281 -0.1521 0.5
    vertex -0.0664062 -0.260498 0.5
    vertex -0.078125 -0.108398 0.5
  endloop
endfacet
facet normal 0 0 1
  outer loop
    vertex -0.113281 -0.1521 0.5
    vertex -0.101562 -0.304199 0.5
    vertex -0.0664062 -0.260498 0.5
  endloop
endfacet
facet normal 0 0 1
  outer loop
    vertex -0.078125 -0.108398 0.5
    vertex -0.0664062 -0.260498 0.5
    vertex -0.03125 -0.216797 0.5
  endloop
endfacet
endsolid Created by Gmsh
