solid Created by Gmsh
facet normal -0 0 1
  outer loop
    vertex -0.707107 -0.707107 0
    vertex -0.382683 -0.92388 0
    vertex -0.334181 -0.516131 0
  endloop
endfacet
facet normal 0 -0 1
  outer loop
    vertex 0.707107 -0.707107 0
    vertex 0.92388 -0.382683 0
    vertex 0.516131 -0.334181 0
  endloop
endfacet
facet normal 0 0 1
  outer loop
    vertex 0.707107 0.707107 0
    vertex 0.382683 0.92388 0
    vertex 0.334181 0.516131 0
  endloop
endfacet
facet normal 0 0 1
  outer loop
    vertex -0.707107 0.707107 0
    vertex -0.92388 0.382683 0
    vertex -0.516131 0.334181 0
  endloop
endfacet
facet normal 0 -0 1
  outer loop
    vertex 0.0994562 -0.5 0
    vertex 0.257317 -0.115112 0
    vertex -0.116203 -0.257413 0
  endloop
endfacet
facet normal 0 0 1
  outer loop
    vertex 0.5 0.0994562 0
    vertex 0.115108 0.257365 0
    vertex 0.257317 -0.115112 0
  endloop
endfacet
facet normal 0 0 1
  outer loop
    vertex -0.0994562 0.5 0
    vertex -0.25746 0.116201 0
    vertex 0.115108 0.257365 0
  endloop
endfacet
facet normal -0 0 1
  outer loop
    vertex -0.5 -0.0994562 0
    vertex -0.116203 -0.257413 0
    vertex -0.25746 0.116201 0
  endloop
endfacet
facet normal 0 0 1
  outer loop
    vertex -0.5 -0.0994562 0
    vertex -0.334181 -0.516131 0
    vertex -0.116203 -0.257413 0
  endloop
endfacet
facet normal 0 0 1
  outer loop
    vertex 0.0994562 -0.5 0
    vertex 0.516131 -0.334181 0
    vertex 0.257317 -0.115112 0
  endloop
endfacet
facet normal 0 0 1
  outer loop
    vertex 0.5 0.0994562 0
    vertex 0.334181 0.516131 0
    vertex 0.115108 0.257365 0
  endloop
endfacet
facet normal 0 0 1
  outer loop
    vertex -0.0994562 0.5 0
    vertex -0.516131 0.334181 0
    vertex -0.25746 0.116201 0
  endloop
endfacet
facet normal 0 0 1
  outer loop
    vertex -0.707107 -0.707107 0
    vertex -0.334181 -0.516131 0
    vertex -0.647153 -0.371732 0
  endloop
endfacet
facet normal 0 0 1
  outer loop
    vertex 0.707107 -0.707107 0
    vertex 0.516131 -0.334181 0
    vertex 0.371732 -0.647153 0
  endloop
endfacet
facet normal 0 0 1
  outer loop
    vertex 0.707107 0.707107 0
    vertex 0.334181 0.516131 0
    vertex 0.647153 0.371732 0
  endloop
endfacet
facet normal 0 0 1
  outer loop
    vertex -0.707107 0.707107 0
    vertex -0.516131 0.334181 0
    vertex -0.371732 0.647153 0
  endloop
endfacet
facet normal 0 0 1
  outer loop
    vertex -0.382683 -0.92388 0
    vertex -0.105158 -0.729639 0
    vertex -0.334181 -0.516131 0
  endloop
endfacet
facet normal 0 0 1
  outer loop
    vertex 0.92388 -0.382683 0
    vertex 0.729639 -0.105158 0
    vertex 0.516131 -0.334181 0
  endloop
endfacet
facet normal 0 0 1
  outer loop
    vertex 0.382683 0.92388 0
    vertex 0.105158 0.729639 0
    vertex 0.334181 0.516131 0
  endloop
endfacet
facet normal 0 0 1
  outer loop
    vertex -0.92388 0.382683 0
    vertex -0.729639 0.105158 0
    vertex -0.516131 0.334181 0
  endloop
endfacet
facet normal 0 0 1
  outer loop
    vertex -0.5 -0.0994562 0
    vertex -0.516131 0.334181 0
    vertex -0.729639 0.105158 0
  endloop
endfacet
facet normal 0 0 1
  outer loop
    vertex 0.0994562 -0.5 0
    vertex -0.334181 -0.516131 0
    vertex -0.105158 -0.729639 0
  endloop
endfacet
facet normal 0 0 1
  outer loop
    vertex 0.5 0.0994562 0
    vertex 0.516131 -0.334181 0
    vertex 0.729639 -0.105158 0
  endloop
endfacet
facet normal 0 0 1
  outer loop
    vertex -0.0994562 0.5 0
    vertex 0.334181 0.516131 0
    vertex 0.105158 0.729639 0
  endloop
endfacet
facet normal 0 0 1
  outer loop
    vertex -0.5 -0.0994562 0
    vertex -0.647153 -0.371732 0
    vertex -0.334181 -0.516131 0
  endloop
endfacet
facet normal -0 0 1
  outer loop
    vertex 0.0994562 -0.5 0
    vertex 0.371732 -0.647153 0
    vertex 0.516131 -0.334181 0
  endloop
endfacet
facet normal 0 -0 1
  outer loop
    vertex 0.5 0.0994562 0
    vertex 0.647153 0.371732 0
    vertex 0.334181 0.516131 0
  endloop
endfacet
facet normal 0 0 1
  outer loop
    vertex -0.0994562 0.5 0
    vertex -0.371732 0.647153 0
    vertex -0.516131 0.334181 0
  endloop
endfacet
facet normal 0 0 1
  outer loop
    vertex 0.0994562 -0.5 0
    vertex -0.116203 -0.257413 0
    vertex -0.334181 -0.516131 0
  endloop
endfacet
facet normal 0 0 1
  outer loop
    vertex 0.5 0.0994562 0
    vertex 0.257317 -0.115112 0
    vertex 0.516131 -0.334181 0
  endloop
endfacet
facet normal -0 0 1
  outer loop
    vertex -0.0994562 0.5 0
    vertex 0.115108 0.257365 0
    vertex 0.334181 0.516131 0
  endloop
endfacet
facet normal 0 -0 1
  outer loop
    vertex -0.5 -0.0994562 0
    vertex -0.25746 0.116201 0
    vertex -0.516131 0.334181 0
  endloop
endfacet
facet normal 0 0 1
  outer loop
    vertex 1.80625e-18 0 0
    vertex -0.116203 -0.257413 0
    vertex 0.257317 -0.115112 0
  endloop
endfacet
facet normal 0 0 1
  outer loop
    vertex 1.80625e-18 0 0
    vertex -0.25746 0.116201 0
    vertex -0.116203 -0.257413 0
  endloop
endfacet
facet normal -0 0 1
  outer loop
    vertex 1.80625e-18 0 0
    vertex 0.257317 -0.115112 0
    vertex 0.115108 0.257365 0
  endloop
endfacet
facet normal 0 -0 1
  outer loop
    vertex 1.80625e-18 0 0
    vertex 0.115108 0.257365 0
    vertex -0.25746 0.116201 0
  endloop
endfacet
facet normal 0 0 1
  outer loop
    vertex -1 0 0
    vertex -0.729639 0.105158 0
    vertex -0.92388 0.382683 0
  endloop
endfacet
facet normal 0 0 1
  outer loop
    vertex 0 -1 0
    vertex -0.105158 -0.729639 0
    vertex -0.382683 -0.92388 0
  endloop
endfacet
facet normal 0 0 1
  outer loop
    vertex 1 0 0
    vertex 0.729639 -0.105158 0
    vertex 0.92388 -0.382683 0
  endloop
endfacet
facet normal 0 0 1
  outer loop
    vertex 0 1 0
    vertex 0.105158 0.729639 0
    vertex 0.382683 0.92388 0
  endloop
endfacet
facet normal -0 0 1
  outer loop
    vertex -0.92388 -0.382683 0
    vertex -0.707107 -0.707107 0
    vertex -0.647153 -0.371732 0
  endloop
endfacet
facet normal 0 -0 1
  outer loop
    vertex 0.382683 -0.92388 0
    vertex 0.707107 -0.707107 0
    vertex 0.371732 -0.647153 0
  endloop
endfacet
facet normal 0 0 1
  outer loop
    vertex 0.92388 0.382683 0
    vertex 0.707107 0.707107 0
    vertex 0.647153 0.371732 0
  endloop
endfacet
facet normal 0 0 1
  outer loop
    vertex -0.382683 0.92388 0
    vertex -0.707107 0.707107 0
    vertex -0.371732 0.647153 0
  endloop
endfacet
facet normal 0 0 1
  outer loop
    vertex -1 0 0
    vertex -0.92388 -0.382683 0
    vertex -0.760134 -0.149743 0
  endloop
endfacet
facet normal 0 0 1
  outer loop
    vertex 0 -1 0
    vertex 0.382683 -0.92388 0
    vertex 0.149743 -0.760134 0
  endloop
endfacet
facet normal 0 0 1
  outer loop
    vertex 1 0 0
    vertex 0.92388 0.382683 0
    vertex 0.760134 0.149743 0
  endloop
endfacet
facet normal 0 0 1
  outer loop
    vertex 0 1 0
    vertex -0.382683 0.92388 0
    vertex -0.149743 0.760134 0
  endloop
endfacet
facet normal 0 0 1
  outer loop
    vertex -0.92388 -0.382683 0
    vertex -0.647153 -0.371732 0
    vertex -0.760134 -0.149743 0
  endloop
endfacet
facet normal 0 0 1
  outer loop
    vertex 0.382683 -0.92388 0
    vertex 0.371732 -0.647153 0
    vertex 0.149743 -0.760134 0
  endloop
endfacet
facet normal 0 0 1
  outer loop
    vertex 0.92388 0.382683 0
    vertex 0.647153 0.371732 0
    vertex 0.760134 0.149743 0
  endloop
endfacet
facet normal 0 0 1
  outer loop
    vertex -0.382683 0.92388 0
    vertex -0.371732 0.647153 0
    vertex -0.149743 0.760134 0
  endloop
endfacet
facet normal 0 -0 1
  outer loop
    vertex 0 -1 0
    vertex 0.149743 -0.760134 0
    vertex -0.105158 -0.729639 0
  endloop
endfacet
facet normal 0 0 1
  outer loop
    vertex 1 0 0
    vertex 0.760134 0.149743 0
    vertex 0.729639 -0.105158 0
  endloop
endfacet
facet normal 0 0 1
  outer loop
    vertex 0 1 0
    vertex -0.149743 0.760134 0
    vertex 0.105158 0.729639 0
  endloop
endfacet
facet normal -0 0 1
  outer loop
    vertex -1 0 0
    vertex -0.760134 -0.149743 0
    vertex -0.729639 0.105158 0
  endloop
endfacet
facet normal 0 0 1
  outer loop
    vertex -0.5 -0.0994562 0
    vertex -0.729639 0.105158 0
    vertex -0.760134 -0.149743 0
  endloop
endfacet
facet normal 0 0 1
  outer loop
    vertex 0.0994562 -0.5 0
    vertex -0.105158 -0.729639 0
    vertex 0.149743 -0.760134 0
  endloop
endfacet
facet normal -0 0 1
  outer loop
    vertex 0.5 0.0994562 0
    vertex 0.729639 -0.105158 0
    vertex 0.760134 0.149743 0
  endloop
endfacet
facet normal 0 -0 1
  outer loop
    vertex -0.0994562 0.5 0
    vertex 0.105158 0.729639 0
    vertex -0.149743 0.760134 0
  endloop
endfacet
facet normal 0 0 1
  outer loop
    vertex -0.5 -0.0994562 0
    vertex -0.760134 -0.149743 0
    vertex -0.647153 -0.371732 0
  endloop
endfacet
facet normal 0 0 1
  outer loop
    vertex 0.0994562 -0.5 0
    vertex 0.149743 -0.760134 0
    vertex 0.371732 -0.647153 0
  endloop
endfacet
facet normal 0 0 1
  outer loop
    vertex 0.5 0.0994562 0
    vertex 0.760134 0.149743 0
    vertex 0.647153 0.371732 0
  endloop
endfacet
facet normal 0 0 1
  outer loop
    vertex -0.0994562 0.5 0
    vertex -0.149743 0.760134 0
    vertex -0.371732 0.647153 0
  endloop
endfacet
facet normal -0.181525 -0.983386 0
  outer loop
    vertex -0.357018 -0.934097 3.32137
    vertex 0 -1 3
    vertex 0 -1 3.5
  endloop
endfacet
facet normal -0.983898 -0.178731 0
  outer loop
    vertex -1 0 3
    vertex -0.93611 -0.351707 3.32137
    vertex -1 0 3.5
  endloop
endfacet
facet normal -0.542561 -0.837853 0.0602469
  outer loop
    vertex -0.339738 -0.94052 0.848264
    vertex -0.725937 -0.687761 0.885417
    vertex -0.511848 -0.859076 0.430948
  endloop
endfacet
facet normal -0.859964 -0.509952 0.0202552
  outer loop
    vertex -0.725937 -0.687761 0.885417
    vertex -0.950874 -0.309577 0.856667
    vertex -0.936496 -0.350678 0.432349
  endloop
endfacet
facet normal -0.196153 -0.980428 -0.0168573
  outer loop
    vertex -0.395194 -0.918598 2.86411
    vertex 0 -1 3
    vertex -0.357018 -0.934097 3.32137
  endloop
endfacet
facet normal -0.555029 -0.831633 0.0181487
  outer loop
    vertex -0.71678 -0.6973 3.16988
    vertex -0.395194 -0.918598 2.86411
    vertex -0.357018 -0.934097 3.32137
  endloop
endfacet
facet normal -0.980534 -0.195433 -0.0189468
  outer loop
    vertex -1 0 3
    vertex -0.918615 -0.395153 2.86411
    vertex -0.93611 -0.351707 3.32137
  endloop
endfacet
facet normal -0.840304 -0.54177 0.0193258
  outer loop
    vertex -0.918615 -0.395153 2.86411
    vertex -0.71678 -0.6973 3.16988
    vertex -0.93611 -0.351707 3.32137
  endloop
endfacet
facet normal -0.172453 -0.985018 0
  outer loop
    vertex -0.339738 -0.94052 0.848264
    vertex 0 -1 0.5
    vertex 0 -1 1
  endloop
endfacet
facet normal -0.254066 -0.963595 -0.0832744
  outer loop
    vertex -0.511848 -0.859076 0.430948
    vertex 0 -1 0.5
    vertex -0.339738 -0.94052 0.848264
  endloop
endfacet
facet normal -0.987642 -0.156725 0
  outer loop
    vertex -1 0 0.5
    vertex -0.950874 -0.309577 0.856667
    vertex -1 0 1
  endloop
endfacet
facet normal -0.984414 -0.175103 -0.0163962
  outer loop
    vertex -1 0 0.5
    vertex -0.936496 -0.350678 0.432349
    vertex -0.950874 -0.309577 0.856667
  endloop
endfacet
facet normal -0.980254 -0.197744 0
  outer loop
    vertex -1 0 1.5
    vertex -0.921795 -0.387678 1.79567
    vertex -1 0 2
  endloop
endfacet
facet normal -0.981503 -0.191242 0.00885609
  outer loop
    vertex -1 0 1.5
    vertex -0.930706 -0.365768 1.28118
    vertex -0.921795 -0.387678 1.79567
  endloop
endfacet
facet normal -0.830838 -0.556513 0.00103209
  outer loop
    vertex -0.7082 -0.706012 2.0922
    vertex -0.921795 -0.387678 1.79567
    vertex -0.710281 -0.703918 1.54572
  endloop
endfacet
facet normal -0.834459 -0.550996 -0.00901163
  outer loop
    vertex -0.930706 -0.365768 1.28118
    vertex -0.710281 -0.703918 1.54572
    vertex -0.921795 -0.387678 1.79567
  endloop
endfacet
facet normal -0.199915 -0.979813 0
  outer loop
    vertex -0.391758 -0.920068 1.79544
    vertex 0 -1 1.5
    vertex 0 -1 2
  endloop
endfacet
facet normal -0.196512 -0.98049 0.00469463
  outer loop
    vertex -0.38044 -0.924806 1.27978
    vertex 0 -1 1.5
    vertex -0.391758 -0.920068 1.79544
  endloop
endfacet
facet normal -0.560962 -0.827841 -0.00103571
  outer loop
    vertex -0.391758 -0.920068 1.79544
    vertex -0.7082 -0.706012 2.0922
    vertex -0.710281 -0.703918 1.54572
  endloop
endfacet
facet normal -0.559012 -0.829146 -0.0046524
  outer loop
    vertex -0.710281 -0.703918 1.54572
    vertex -0.38044 -0.924806 1.27978
    vertex -0.391758 -0.920068 1.79544
  endloop
endfacet
facet normal -0.197138 -0.980376 0
  outer loop
    vertex -0.386538 -0.922274 2.32146
    vertex 0 -1 2
    vertex 0 -1 2.5
  endloop
endfacet
facet normal -0.198844 -0.980029 -0.00213548
  outer loop
    vertex -0.391758 -0.920068 1.79544
    vertex 0 -1 2
    vertex -0.386538 -0.922274 2.32146
  endloop
endfacet
facet normal -0.558962 -0.829191 0.00207098
  outer loop
    vertex -0.7082 -0.706012 2.0922
    vertex -0.391758 -0.920068 1.79544
    vertex -0.386538 -0.922274 2.32146
  endloop
endfacet
facet normal -0.980503 -0.196506 0
  outer loop
    vertex -1 0 2
    vertex -0.922771 -0.385348 2.3215
    vertex -1 0 2.5
  endloop
endfacet
facet normal -0.98035 -0.197264 -0.000946385
  outer loop
    vertex -1 0 2
    vertex -0.921795 -0.387678 1.79567
    vertex -0.922771 -0.385348 2.3215
  endloop
endfacet
facet normal -0.830792 -0.556583 0.000923469
  outer loop
    vertex -0.921795 -0.387678 1.79567
    vertex -0.7082 -0.706012 2.0922
    vertex -0.922771 -0.385348 2.3215
  endloop
endfacet
facet normal -0.1939 -0.981021 0
  outer loop
    vertex -0.38044 -0.924806 1.27978
    vertex 0 -1 1
    vertex 0 -1 1.5
  endloop
endfacet
facet normal -0.180555 -0.983386 0.018781
  outer loop
    vertex 0 -1 1
    vertex -0.38044 -0.924806 1.27978
    vertex -0.339738 -0.94052 0.848264
  endloop
endfacet
facet normal -0.560298 -0.828262 -0.006982
  outer loop
    vertex -0.725937 -0.687761 0.885417
    vertex -0.38044 -0.924806 1.27978
    vertex -0.710281 -0.703918 1.54572
  endloop
endfacet
facet normal -0.548932 -0.835594 -0.0213468
  outer loop
    vertex -0.725937 -0.687761 0.885417
    vertex -0.339738 -0.94052 0.848264
    vertex -0.38044 -0.924806 1.27978
  endloop
endfacet
facet normal -0.982524 -0.186137 0
  outer loop
    vertex -1 0 1
    vertex -0.930706 -0.365768 1.28118
    vertex -1 0 1.5
  endloop
endfacet
facet normal -0.985517 -0.167783 0.024612
  outer loop
    vertex -0.930706 -0.365768 1.28118
    vertex -1 0 1
    vertex -0.950874 -0.309577 0.856667
  endloop
endfacet
facet normal -0.840085 -0.542414 0.00664626
  outer loop
    vertex -0.930706 -0.365768 1.28118
    vertex -0.725937 -0.687761 0.885417
    vertex -0.710281 -0.703918 1.54572
  endloop
endfacet
facet normal -0.858245 -0.512526 -0.0270659
  outer loop
    vertex -0.950874 -0.309577 0.856667
    vertex -0.725937 -0.687761 0.885417
    vertex -0.930706 -0.365768 1.28118
  endloop
endfacet
facet normal -0.979443 -0.201723 0
  outer loop
    vertex -1 0 2.5
    vertex -0.918615 -0.395153 2.86411
    vertex -1 0 3
  endloop
endfacet
facet normal -0.980143 -0.198251 0.00392452
  outer loop
    vertex -1 0 2.5
    vertex -0.922771 -0.385348 2.3215
    vertex -0.918615 -0.395153 2.86411
  endloop
endfacet
facet normal -0.828653 -0.559729 -0.00611074
  outer loop
    vertex -0.703708 -0.710489 2.60541
    vertex -0.71678 -0.6973 3.16988
    vertex -0.918615 -0.395153 2.86411
  endloop
endfacet
facet normal -0.827784 -0.561034 -0.00379743
  outer loop
    vertex -0.918615 -0.395153 2.86411
    vertex -0.922771 -0.385348 2.3215
    vertex -0.703708 -0.710489 2.60541
  endloop
endfacet
facet normal -0.201745 -0.979438 0
  outer loop
    vertex -0.395194 -0.918598 2.86411
    vertex 0 -1 2.5
    vertex 0 -1 3
  endloop
endfacet
facet normal -0.198676 -0.980059 0.00346958
  outer loop
    vertex -0.386538 -0.922274 2.32146
    vertex 0 -1 2.5
    vertex -0.395194 -0.918598 2.86411
  endloop
endfacet
facet normal -0.56282 -0.826556 0.00628016
  outer loop
    vertex -0.71678 -0.6973 3.16988
    vertex -0.703708 -0.710489 2.60541
    vertex -0.395194 -0.918598 2.86411
  endloop
endfacet
facet normal -0.55733 -0.830284 -0.00326602
  outer loop
    vertex -0.386538 -0.922274 2.32146
    vertex -0.395194 -0.918598 2.86411
    vertex -0.703708 -0.710489 2.60541
  endloop
endfacet
facet normal -0.830744 -0.555085 -0.041774
  outer loop
    vertex -0.707107 -0.707107 0
    vertex -0.775101 -0.631837 0.352009
    vertex -0.92388 -0.382683 0
  endloop
endfacet
facet normal -0.865752 -0.500335 0.0117745
  outer loop
    vertex -0.775101 -0.631837 0.352009
    vertex -0.936496 -0.350678 0.432349
    vertex -0.92388 -0.382683 0
  endloop
endfacet
facet normal -0.863628 -0.503416 0.0268207
  outer loop
    vertex -0.775101 -0.631837 0.352009
    vertex -0.725937 -0.687761 0.885417
    vertex -0.936496 -0.350678 0.432349
  endloop
endfacet
facet normal -0.6499 -0.759763 -0.0197544
  outer loop
    vertex -0.725937 -0.687761 0.885417
    vertex -0.775101 -0.631837 0.352009
    vertex -0.511848 -0.859076 0.430948
  endloop
endfacet
facet normal -0.555093 -0.830755 -0.0414492
  outer loop
    vertex -0.511848 -0.859076 0.430948
    vertex -0.707107 -0.707107 0
    vertex -0.382683 -0.92388 0
  endloop
endfacet
facet normal -0.658793 -0.75158 0.0334564
  outer loop
    vertex -0.707107 -0.707107 0
    vertex -0.511848 -0.859076 0.430948
    vertex -0.775101 -0.631837 0.352009
  endloop
endfacet
facet normal -0.55678 -0.830657 -0.00237348
  outer loop
    vertex -0.386538 -0.922274 2.32146
    vertex -0.703708 -0.710489 2.60541
    vertex -0.7082 -0.706012 2.0922
  endloop
endfacet
facet normal -0.830299 -0.557313 0.00240509
  outer loop
    vertex -0.703708 -0.710489 2.60541
    vertex -0.922771 -0.385348 2.3215
    vertex -0.7082 -0.706012 2.0922
  endloop
endfacet
facet normal -0.54807 -0.836412 -0.0058477
  outer loop
    vertex -0.709396 -0.70481 3.5521
    vertex -0.71678 -0.6973 3.16988
    vertex -0.357018 -0.934097 3.32137
  endloop
endfacet
facet normal -0.843165 -0.537624 0.00572437
  outer loop
    vertex -0.71678 -0.6973 3.16988
    vertex -0.709396 -0.70481 3.5521
    vertex -0.93611 -0.351707 3.32137
  endloop
endfacet
facet normal -0.980687 -0.195071 -0.0141775
  outer loop
    vertex -1 0 0
    vertex -0.92388 -0.382683 0
    vertex -0.936496 -0.350678 0.432349
  endloop
endfacet
facet normal -0.983996 -0.178191 -0
  outer loop
    vertex -1 0 0.5
    vertex -1 0 0
    vertex -0.936496 -0.350678 0.432349
  endloop
endfacet
facet normal -0.980776 -0.195089 0.00431646
  outer loop
    vertex -0.926193 -0.377049 3.72891
    vertex -0.92388 -0.382683 4
    vertex -1 0 4
  endloop
endfacet
facet normal -0.981375 -0.192102 0
  outer loop
    vertex -1 0 3.5
    vertex -0.926193 -0.377049 3.72891
    vertex -1 0 4
  endloop
endfacet
facet normal -0.19509 -0.980781 0.00289465
  outer loop
    vertex -0.382683 -0.92388 4
    vertex -0.378926 -0.925427 3.72891
    vertex 0 -1 4
  endloop
endfacet
facet normal -0.193097 -0.98118 0
  outer loop
    vertex -0.378926 -0.925427 3.72891
    vertex 0 -1 3.5
    vertex 0 -1 4
  endloop
endfacet
facet normal -0.831461 -0.555565 -0.00445069
  outer loop
    vertex -0.926193 -0.377049 3.72891
    vertex -0.707107 -0.707107 4
    vertex -0.92388 -0.382683 4
  endloop
endfacet
facet normal -0.837338 -0.546516 -0.0136085
  outer loop
    vertex -0.926193 -0.377049 3.72891
    vertex -0.93611 -0.351707 3.32137
    vertex -0.709396 -0.70481 3.5521
  endloop
endfacet
facet normal -0.982694 -0.18482 0.0124194
  outer loop
    vertex -0.93611 -0.351707 3.32137
    vertex -0.926193 -0.377049 3.72891
    vertex -1 0 3.5
  endloop
endfacet
facet normal -0.833698 -0.55222 0.00142939
  outer loop
    vertex -0.709396 -0.70481 3.5521
    vertex -0.707107 -0.707107 4
    vertex -0.926193 -0.377049 3.72891
  endloop
endfacet
facet normal -0.555568 -0.831466 -0.0029544
  outer loop
    vertex -0.707107 -0.707107 4
    vertex -0.378926 -0.925427 3.72891
    vertex -0.382683 -0.92388 4
  endloop
endfacet
facet normal -0.550795 -0.834556 -0.0118532
  outer loop
    vertex -0.357018 -0.934097 3.32137
    vertex -0.378926 -0.925427 3.72891
    vertex -0.709396 -0.70481 3.5521
  endloop
endfacet
facet normal -0.186766 -0.982344 0.0108594
  outer loop
    vertex -0.378926 -0.925427 3.72891
    vertex -0.357018 -0.934097 3.32137
    vertex 0 -1 3.5
  endloop
endfacet
facet normal -0.554698 -0.83205 -0.00143128
  outer loop
    vertex -0.707107 -0.707107 4
    vertex -0.709396 -0.70481 3.5521
    vertex -0.378926 -0.925427 3.72891
  endloop
endfacet
facet normal -0.19509 -0.980785 -0
  outer loop
    vertex 0 -1 0.5
    vertex -0.382683 -0.92388 0
    vertex 0 -1 0
  endloop
endfacet
facet normal -0.272769 -0.96004 0.0626106
  outer loop
    vertex -0.511848 -0.859076 0.430948
    vertex -0.382683 -0.92388 0
    vertex 0 -1 0.5
  endloop
endfacet
facet normal 0.983386 -0.181525 0
  outer loop
    vertex 0.934097 -0.357018 3.32137
    vertex 1 0 3
    vertex 1 0 3.5
  endloop
endfacet
facet normal 0.178731 -0.983898 0
  outer loop
    vertex 0 -1 3
    vertex 0.351707 -0.93611 3.32137
    vertex 0 -1 3.5
  endloop
endfacet
facet normal 0.837853 -0.542561 0.0602469
  outer loop
    vertex 0.94052 -0.339738 0.848264
    vertex 0.687761 -0.725937 0.885417
    vertex 0.859076 -0.511848 0.430948
  endloop
endfacet
facet normal 0.509952 -0.859964 0.0202552
  outer loop
    vertex 0.687761 -0.725937 0.885417
    vertex 0.309577 -0.950874 0.856667
    vertex 0.350678 -0.936496 0.432349
  endloop
endfacet
facet normal 0.980428 -0.196153 -0.0168573
  outer loop
    vertex 0.918598 -0.395194 2.86411
    vertex 1 0 3
    vertex 0.934097 -0.357018 3.32137
  endloop
endfacet
facet normal 0.831633 -0.555029 0.0181487
  outer loop
    vertex 0.6973 -0.71678 3.16988
    vertex 0.918598 -0.395194 2.86411
    vertex 0.934097 -0.357018 3.32137
  endloop
endfacet
facet normal 0.195433 -0.980534 -0.0189468
  outer loop
    vertex 0 -1 3
    vertex 0.395153 -0.918615 2.86411
    vertex 0.351707 -0.93611 3.32137
  endloop
endfacet
facet normal 0.54177 -0.840304 0.0193258
  outer loop
    vertex 0.395153 -0.918615 2.86411
    vertex 0.6973 -0.71678 3.16988
    vertex 0.351707 -0.93611 3.32137
  endloop
endfacet
facet normal 0.985018 -0.172453 0
  outer loop
    vertex 0.94052 -0.339738 0.848264
    vertex 1 0 0.5
    vertex 1 0 1
  endloop
endfacet
facet normal 0.963595 -0.254066 -0.0832744
  outer loop
    vertex 0.859076 -0.511848 0.430948
    vertex 1 0 0.5
    vertex 0.94052 -0.339738 0.848264
  endloop
endfacet
facet normal 0.156725 -0.987642 0
  outer loop
    vertex 0 -1 0.5
    vertex 0.309577 -0.950874 0.856667
    vertex 0 -1 1
  endloop
endfacet
facet normal 0.175103 -0.984414 -0.0163962
  outer loop
    vertex 0 -1 0.5
    vertex 0.350678 -0.936496 0.432349
    vertex 0.309577 -0.950874 0.856667
  endloop
endfacet
facet normal 0.197744 -0.980254 0
  outer loop
    vertex 0 -1 1.5
    vertex 0.387678 -0.921795 1.79567
    vertex 0 -1 2
  endloop
endfacet
facet normal 0.191242 -0.981503 0.00885609
  outer loop
    vertex 0 -1 1.5
    vertex 0.365768 -0.930706 1.28118
    vertex 0.387678 -0.921795 1.79567
  endloop
endfacet
facet normal 0.556513 -0.830838 0.00103209
  outer loop
    vertex 0.706012 -0.7082 2.0922
    vertex 0.387678 -0.921795 1.79567
    vertex 0.703918 -0.710281 1.54572
  endloop
endfacet
facet normal 0.550996 -0.834459 -0.00901163
  outer loop
    vertex 0.365768 -0.930706 1.28118
    vertex 0.703918 -0.710281 1.54572
    vertex 0.387678 -0.921795 1.79567
  endloop
endfacet
facet normal 0.979813 -0.199915 0
  outer loop
    vertex 0.920068 -0.391758 1.79544
    vertex 1 0 1.5
    vertex 1 0 2
  endloop
endfacet
facet normal 0.98049 -0.196512 0.00469463
  outer loop
    vertex 0.924806 -0.38044 1.27978
    vertex 1 0 1.5
    vertex 0.920068 -0.391758 1.79544
  endloop
endfacet
facet normal 0.827841 -0.560962 -0.00103571
  outer loop
    vertex 0.920068 -0.391758 1.79544
    vertex 0.706012 -0.7082 2.0922
    vertex 0.703918 -0.710281 1.54572
  endloop
endfacet
facet normal 0.829146 -0.559012 -0.0046524
  outer loop
    vertex 0.703918 -0.710281 1.54572
    vertex 0.924806 -0.38044 1.27978
    vertex 0.920068 -0.391758 1.79544
  endloop
endfacet
facet normal 0.980376 -0.197138 0
  outer loop
    vertex 0.922274 -0.386538 2.32146
    vertex 1 0 2
    vertex 1 0 2.5
  endloop
endfacet
facet normal 0.980029 -0.198844 -0.00213548
  outer loop
    vertex 0.920068 -0.391758 1.79544
    vertex 1 0 2
    vertex 0.922274 -0.386538 2.32146
  endloop
endfacet
facet normal 0.829191 -0.558962 0.00207098
  outer loop
    vertex 0.706012 -0.7082 2.0922
    vertex 0.920068 -0.391758 1.79544
    vertex 0.922274 -0.386538 2.32146
  endloop
endfacet
facet normal 0.196506 -0.980503 0
  outer loop
    vertex 0 -1 2
    vertex 0.385348 -0.922771 2.3215
    vertex 0 -1 2.5
  endloop
endfacet
facet normal 0.197264 -0.98035 -0.000946385
  outer loop
    vertex 0 -1 2
    vertex 0.387678 -0.921795 1.79567
    vertex 0.385348 -0.922771 2.3215
  endloop
endfacet
facet normal 0.556583 -0.830792 0.000923469
  outer loop
    vertex 0.387678 -0.921795 1.79567
    vertex 0.706012 -0.7082 2.0922
    vertex 0.385348 -0.922771 2.3215
  endloop
endfacet
facet normal 0.981021 -0.1939 0
  outer loop
    vertex 0.924806 -0.38044 1.27978
    vertex 1 0 1
    vertex 1 0 1.5
  endloop
endfacet
facet normal 0.983386 -0.180555 0.018781
  outer loop
    vertex 1 0 1
    vertex 0.924806 -0.38044 1.27978
    vertex 0.94052 -0.339738 0.848264
  endloop
endfacet
facet normal 0.828262 -0.560298 -0.006982
  outer loop
    vertex 0.687761 -0.725937 0.885417
    vertex 0.924806 -0.38044 1.27978
    vertex 0.703918 -0.710281 1.54572
  endloop
endfacet
facet normal 0.835594 -0.548932 -0.0213468
  outer loop
    vertex 0.687761 -0.725937 0.885417
    vertex 0.94052 -0.339738 0.848264
    vertex 0.924806 -0.38044 1.27978
  endloop
endfacet
facet normal 0.186137 -0.982524 0
  outer loop
    vertex 0 -1 1
    vertex 0.365768 -0.930706 1.28118
    vertex 0 -1 1.5
  endloop
endfacet
facet normal 0.167783 -0.985517 0.024612
  outer loop
    vertex 0.365768 -0.930706 1.28118
    vertex 0 -1 1
    vertex 0.309577 -0.950874 0.856667
  endloop
endfacet
facet normal 0.542414 -0.840085 0.00664626
  outer loop
    vertex 0.365768 -0.930706 1.28118
    vertex 0.687761 -0.725937 0.885417
    vertex 0.703918 -0.710281 1.54572
  endloop
endfacet
facet normal 0.512526 -0.858245 -0.0270659
  outer loop
    vertex 0.309577 -0.950874 0.856667
    vertex 0.687761 -0.725937 0.885417
    vertex 0.365768 -0.930706 1.28118
  endloop
endfacet
facet normal 0.201723 -0.979443 0
  outer loop
    vertex 0 -1 2.5
    vertex 0.395153 -0.918615 2.86411
    vertex 0 -1 3
  endloop
endfacet
facet normal 0.198251 -0.980143 0.00392452
  outer loop
    vertex 0 -1 2.5
    vertex 0.385348 -0.922771 2.3215
    vertex 0.395153 -0.918615 2.86411
  endloop
endfacet
facet normal 0.559729 -0.828653 -0.00611074
  outer loop
    vertex 0.710489 -0.703708 2.60541
    vertex 0.6973 -0.71678 3.16988
    vertex 0.395153 -0.918615 2.86411
  endloop
endfacet
facet normal 0.561034 -0.827784 -0.00379743
  outer loop
    vertex 0.395153 -0.918615 2.86411
    vertex 0.385348 -0.922771 2.3215
    vertex 0.710489 -0.703708 2.60541
  endloop
endfacet
facet normal 0.979438 -0.201745 0
  outer loop
    vertex 0.918598 -0.395194 2.86411
    vertex 1 0 2.5
    vertex 1 0 3
  endloop
endfacet
facet normal 0.980059 -0.198676 0.00346958
  outer loop
    vertex 0.922274 -0.386538 2.32146
    vertex 1 0 2.5
    vertex 0.918598 -0.395194 2.86411
  endloop
endfacet
facet normal 0.826556 -0.56282 0.00628016
  outer loop
    vertex 0.6973 -0.71678 3.16988
    vertex 0.710489 -0.703708 2.60541
    vertex 0.918598 -0.395194 2.86411
  endloop
endfacet
facet normal 0.830284 -0.55733 -0.00326602
  outer loop
    vertex 0.922274 -0.386538 2.32146
    vertex 0.918598 -0.395194 2.86411
    vertex 0.710489 -0.703708 2.60541
  endloop
endfacet
facet normal 0.555085 -0.830744 -0.041774
  outer loop
    vertex 0.707107 -0.707107 0
    vertex 0.631837 -0.775101 0.352009
    vertex 0.382683 -0.92388 0
  endloop
endfacet
facet normal 0.500335 -0.865752 0.0117745
  outer loop
    vertex 0.631837 -0.775101 0.352009
    vertex 0.350678 -0.936496 0.432349
    vertex 0.382683 -0.92388 0
  endloop
endfacet
facet normal 0.503416 -0.863628 0.0268207
  outer loop
    vertex 0.631837 -0.775101 0.352009
    vertex 0.687761 -0.725937 0.885417
    vertex 0.350678 -0.936496 0.432349
  endloop
endfacet
facet normal 0.759763 -0.6499 -0.0197544
  outer loop
    vertex 0.687761 -0.725937 0.885417
    vertex 0.631837 -0.775101 0.352009
    vertex 0.859076 -0.511848 0.430948
  endloop
endfacet
facet normal 0.830755 -0.555093 -0.0414492
  outer loop
    vertex 0.859076 -0.511848 0.430948
    vertex 0.707107 -0.707107 0
    vertex 0.92388 -0.382683 0
  endloop
endfacet
facet normal 0.75158 -0.658793 0.0334564
  outer loop
    vertex 0.707107 -0.707107 0
    vertex 0.859076 -0.511848 0.430948
    vertex 0.631837 -0.775101 0.352009
  endloop
endfacet
facet normal 0.830657 -0.55678 -0.00237348
  outer loop
    vertex 0.922274 -0.386538 2.32146
    vertex 0.710489 -0.703708 2.60541
    vertex 0.706012 -0.7082 2.0922
  endloop
endfacet
facet normal 0.557313 -0.830299 0.00240509
  outer loop
    vertex 0.710489 -0.703708 2.60541
    vertex 0.385348 -0.922771 2.3215
    vertex 0.706012 -0.7082 2.0922
  endloop
endfacet
facet normal 0.836412 -0.54807 -0.0058477
  outer loop
    vertex 0.70481 -0.709396 3.5521
    vertex 0.6973 -0.71678 3.16988
    vertex 0.934097 -0.357018 3.32137
  endloop
endfacet
facet normal 0.537624 -0.843165 0.00572437
  outer loop
    vertex 0.6973 -0.71678 3.16988
    vertex 0.70481 -0.709396 3.5521
    vertex 0.351707 -0.93611 3.32137
  endloop
endfacet
facet normal 0.195071 -0.980687 -0.0141775
  outer loop
    vertex 0 -1 0
    vertex 0.382683 -0.92388 0
    vertex 0.350678 -0.936496 0.432349
  endloop
endfacet
facet normal 0.178191 -0.983996 0
  outer loop
    vertex 0 -1 0.5
    vertex 0 -1 0
    vertex 0.350678 -0.936496 0.432349
  endloop
endfacet
facet normal 0.192102 -0.981375 0
  outer loop
    vertex 0 -1 3.5
    vertex 0.377049 -0.926193 3.72891
    vertex 0 -1 4
  endloop
endfacet
facet normal 0.195089 -0.980776 0.00431646
  outer loop
    vertex 0.377049 -0.926193 3.72891
    vertex 0.382683 -0.92388 4
    vertex 0 -1 4
  endloop
endfacet
facet normal 0.980781 -0.19509 0.00289465
  outer loop
    vertex 0.92388 -0.382683 4
    vertex 0.925427 -0.378926 3.72891
    vertex 1 0 4
  endloop
endfacet
facet normal 0.98118 -0.193097 0
  outer loop
    vertex 0.925427 -0.378926 3.72891
    vertex 1 0 3.5
    vertex 1 0 4
  endloop
endfacet
facet normal 0.555565 -0.831461 -0.00445069
  outer loop
    vertex 0.377049 -0.926193 3.72891
    vertex 0.707107 -0.707107 4
    vertex 0.382683 -0.92388 4
  endloop
endfacet
facet normal 0.546516 -0.837338 -0.0136085
  outer loop
    vertex 0.377049 -0.926193 3.72891
    vertex 0.351707 -0.93611 3.32137
    vertex 0.70481 -0.709396 3.5521
  endloop
endfacet
facet normal 0.18482 -0.982694 0.0124194
  outer loop
    vertex 0.351707 -0.93611 3.32137
    vertex 0.377049 -0.926193 3.72891
    vertex 0 -1 3.5
  endloop
endfacet
facet normal 0.55222 -0.833698 0.00142939
  outer loop
    vertex 0.70481 -0.709396 3.5521
    vertex 0.707107 -0.707107 4
    vertex 0.377049 -0.926193 3.72891
  endloop
endfacet
facet normal 0.831466 -0.555568 -0.0029544
  outer loop
    vertex 0.707107 -0.707107 4
    vertex 0.925427 -0.378926 3.72891
    vertex 0.92388 -0.382683 4
  endloop
endfacet
facet normal 0.834556 -0.550795 -0.0118532
  outer loop
    vertex 0.934097 -0.357018 3.32137
    vertex 0.925427 -0.378926 3.72891
    vertex 0.70481 -0.709396 3.5521
  endloop
endfacet
facet normal 0.982344 -0.186766 0.0108594
  outer loop
    vertex 0.925427 -0.378926 3.72891
    vertex 0.934097 -0.357018 3.32137
    vertex 1 0 3.5
  endloop
endfacet
facet normal 0.83205 -0.554698 -0.00143128
  outer loop
    vertex 0.707107 -0.707107 4
    vertex 0.70481 -0.709396 3.5521
    vertex 0.925427 -0.378926 3.72891
  endloop
endfacet
facet normal 0.980785 -0.19509 0
  outer loop
    vertex 1 0 0.5
    vertex 0.92388 -0.382683 0
    vertex 1 0 0
  endloop
endfacet
facet normal 0.96004 -0.272769 0.0626106
  outer loop
    vertex 0.859076 -0.511848 0.430948
    vertex 0.92388 -0.382683 0
    vertex 1 0 0.5
  endloop
endfacet
facet normal 0.181525 0.983386 0
  outer loop
    vertex 0.357018 0.934097 3.32137
    vertex 0 1 3
    vertex 0 1 3.5
  endloop
endfacet
facet normal 0.983898 0.178731 -0
  outer loop
    vertex 1 0 3
    vertex 0.93611 0.351707 3.32137
    vertex 1 0 3.5
  endloop
endfacet
facet normal 0.542561 0.837853 0.0602469
  outer loop
    vertex 0.339738 0.94052 0.848264
    vertex 0.725937 0.687761 0.885417
    vertex 0.511848 0.859076 0.430948
  endloop
endfacet
facet normal 0.859964 0.509952 0.0202552
  outer loop
    vertex 0.725937 0.687761 0.885417
    vertex 0.950874 0.309577 0.856667
    vertex 0.936496 0.350678 0.432349
  endloop
endfacet
facet normal 0.196153 0.980428 -0.0168573
  outer loop
    vertex 0.395194 0.918598 2.86411
    vertex 0 1 3
    vertex 0.357018 0.934097 3.32137
  endloop
endfacet
facet normal 0.555029 0.831633 0.0181487
  outer loop
    vertex 0.71678 0.6973 3.16988
    vertex 0.395194 0.918598 2.86411
    vertex 0.357018 0.934097 3.32137
  endloop
endfacet
facet normal 0.980534 0.195433 -0.0189468
  outer loop
    vertex 1 0 3
    vertex 0.918615 0.395153 2.86411
    vertex 0.93611 0.351707 3.32137
  endloop
endfacet
facet normal 0.840304 0.54177 0.0193258
  outer loop
    vertex 0.918615 0.395153 2.86411
    vertex 0.71678 0.6973 3.16988
    vertex 0.93611 0.351707 3.32137
  endloop
endfacet
facet normal 0.172453 0.985018 0
  outer loop
    vertex 0.339738 0.94052 0.848264
    vertex 0 1 0.5
    vertex 0 1 1
  endloop
endfacet
facet normal 0.254066 0.963595 -0.0832744
  outer loop
    vertex 0.511848 0.859076 0.430948
    vertex 0 1 0.5
    vertex 0.339738 0.94052 0.848264
  endloop
endfacet
facet normal 0.987642 0.156725 -0
  outer loop
    vertex 1 0 0.5
    vertex 0.950874 0.309577 0.856667
    vertex 1 0 1
  endloop
endfacet
facet normal 0.984414 0.175103 -0.0163962
  outer loop
    vertex 1 0 0.5
    vertex 0.936496 0.350678 0.432349
    vertex 0.950874 0.309577 0.856667
  endloop
endfacet
facet normal 0.980254 0.197744 -0
  outer loop
    vertex 1 0 1.5
    vertex 0.921795 0.387678 1.79567
    vertex 1 0 2
  endloop
endfacet
facet normal 0.981503 0.191242 0.00885609
  outer loop
    vertex 1 0 1.5
    vertex 0.930706 0.365768 1.28118
    vertex 0.921795 0.387678 1.79567
  endloop
endfacet
facet normal 0.830838 0.556513 0.00103209
  outer loop
    vertex 0.7082 0.706012 2.0922
    vertex 0.921795 0.387678 1.79567
    vertex 0.710281 0.703918 1.54572
  endloop
endfacet
facet normal 0.834459 0.550996 -0.00901163
  outer loop
    vertex 0.930706 0.365768 1.28118
    vertex 0.710281 0.703918 1.54572
    vertex 0.921795 0.387678 1.79567
  endloop
endfacet
facet normal 0.199915 0.979813 0
  outer loop
    vertex 0.391758 0.920068 1.79544
    vertex 0 1 1.5
    vertex 0 1 2
  endloop
endfacet
facet normal 0.196512 0.98049 0.00469463
  outer loop
    vertex 0.38044 0.924806 1.27978
    vertex 0 1 1.5
    vertex 0.391758 0.920068 1.79544
  endloop
endfacet
facet normal 0.560962 0.827841 -0.00103571
  outer loop
    vertex 0.391758 0.920068 1.79544
    vertex 0.7082 0.706012 2.0922
    vertex 0.710281 0.703918 1.54572
  endloop
endfacet
facet normal 0.559012 0.829146 -0.0046524
  outer loop
    vertex 0.710281 0.703918 1.54572
    vertex 0.38044 0.924806 1.27978
    vertex 0.391758 0.920068 1.79544
  endloop
endfacet
facet normal 0.197138 0.980376 0
  outer loop
    vertex 0.386538 0.922274 2.32146
    vertex 0 1 2
    vertex 0 1 2.5
  endloop
endfacet
facet normal 0.198844 0.980029 -0.00213548
  outer loop
    vertex 0.391758 0.920068 1.79544
    vertex 0 1 2
    vertex 0.386538 0.922274 2.32146
  endloop
endfacet
facet normal 0.558962 0.829191 0.00207098
  outer loop
    vertex 0.7082 0.706012 2.0922
    vertex 0.391758 0.920068 1.79544
    vertex 0.386538 0.922274 2.32146
  endloop
endfacet
facet normal 0.980503 0.196506 -0
  outer loop
    vertex 1 0 2
    vertex 0.922771 0.385348 2.3215
    vertex 1 0 2.5
  endloop
endfacet
facet normal 0.98035 0.197264 -0.000946385
  outer loop
    vertex 1 0 2
    vertex 0.921795 0.387678 1.79567
    vertex 0.922771 0.385348 2.3215
  endloop
endfacet
facet normal 0.830792 0.556583 0.000923469
  outer loop
    vertex 0.921795 0.387678 1.79567
    vertex 0.7082 0.706012 2.0922
    vertex 0.922771 0.385348 2.3215
  endloop
endfacet
facet normal 0.1939 0.981021 0
  outer loop
    vertex 0.38044 0.924806 1.27978
    vertex 0 1 1
    vertex 0 1 1.5
  endloop
endfacet
facet normal 0.180555 0.983386 0.018781
  outer loop
    vertex 0 1 1
    vertex 0.38044 0.924806 1.27978
    vertex 0.339738 0.94052 0.848264
  endloop
endfacet
facet normal 0.560298 0.828262 -0.006982
  outer loop
    vertex 0.725937 0.687761 0.885417
    vertex 0.38044 0.924806 1.27978
    vertex 0.710281 0.703918 1.54572
  endloop
endfacet
facet normal 0.548932 0.835594 -0.0213468
  outer loop
    vertex 0.725937 0.687761 0.885417
    vertex 0.339738 0.94052 0.848264
    vertex 0.38044 0.924806 1.27978
  endloop
endfacet
facet normal 0.982524 0.186137 -0
  outer loop
    vertex 1 0 1
    vertex 0.930706 0.365768 1.28118
    vertex 1 0 1.5
  endloop
endfacet
facet normal 0.985517 0.167783 0.024612
  outer loop
    vertex 0.930706 0.365768 1.28118
    vertex 1 0 1
    vertex 0.950874 0.309577 0.856667
  endloop
endfacet
facet normal 0.840085 0.542414 0.00664626
  outer loop
    vertex 0.930706 0.365768 1.28118
    vertex 0.725937 0.687761 0.885417
    vertex 0.710281 0.703918 1.54572
  endloop
endfacet
facet normal 0.858245 0.512526 -0.0270659
  outer loop
    vertex 0.950874 0.309577 0.856667
    vertex 0.725937 0.687761 0.885417
    vertex 0.930706 0.365768 1.28118
  endloop
endfacet
facet normal 0.979443 0.201723 -0
  outer loop
    vertex 1 0 2.5
    vertex 0.918615 0.395153 2.86411
    vertex 1 0 3
  endloop
endfacet
facet normal 0.980143 0.198251 0.00392452
  outer loop
    vertex 1 0 2.5
    vertex 0.922771 0.385348 2.3215
    vertex 0.918615 0.395153 2.86411
  endloop
endfacet
facet normal 0.828653 0.559729 -0.00611074
  outer loop
    vertex 0.703708 0.710489 2.60541
    vertex 0.71678 0.6973 3.16988
    vertex 0.918615 0.395153 2.86411
  endloop
endfacet
facet normal 0.827784 0.561034 -0.00379743
  outer loop
    vertex 0.918615 0.395153 2.86411
    vertex 0.922771 0.385348 2.3215
    vertex 0.703708 0.710489 2.60541
  endloop
endfacet
facet normal 0.201745 0.979438 0
  outer loop
    vertex 0.395194 0.918598 2.86411
    vertex 0 1 2.5
    vertex 0 1 3
  endloop
endfacet
facet normal 0.198676 0.980059 0.00346958
  outer loop
    vertex 0.386538 0.922274 2.32146
    vertex 0 1 2.5
    vertex 0.395194 0.918598 2.86411
  endloop
endfacet
facet normal 0.56282 0.826556 0.00628016
  outer loop
    vertex 0.71678 0.6973 3.16988
    vertex 0.703708 0.710489 2.60541
    vertex 0.395194 0.918598 2.86411
  endloop
endfacet
facet normal 0.55733 0.830284 -0.00326602
  outer loop
    vertex 0.386538 0.922274 2.32146
    vertex 0.395194 0.918598 2.86411
    vertex 0.703708 0.710489 2.60541
  endloop
endfacet
facet normal 0.830744 0.555085 -0.041774
  outer loop
    vertex 0.707107 0.707107 0
    vertex 0.775101 0.631837 0.352009
    vertex 0.92388 0.382683 0
  endloop
endfacet
facet normal 0.865752 0.500335 0.0117745
  outer loop
    vertex 0.775101 0.631837 0.352009
    vertex 0.936496 0.350678 0.432349
    vertex 0.92388 0.382683 0
  endloop
endfacet
facet normal 0.863628 0.503416 0.0268207
  outer loop
    vertex 0.775101 0.631837 0.352009
    vertex 0.725937 0.687761 0.885417
    vertex 0.936496 0.350678 0.432349
  endloop
endfacet
facet normal 0.6499 0.759763 -0.0197544
  outer loop
    vertex 0.725937 0.687761 0.885417
    vertex 0.775101 0.631837 0.352009
    vertex 0.511848 0.859076 0.430948
  endloop
endfacet
facet normal 0.555093 0.830755 -0.0414492
  outer loop
    vertex 0.511848 0.859076 0.430948
    vertex 0.707107 0.707107 0
    vertex 0.382683 0.92388 0
  endloop
endfacet
facet normal 0.658793 0.75158 0.0334564
  outer loop
    vertex 0.707107 0.707107 0
    vertex 0.511848 0.859076 0.430948
    vertex 0.775101 0.631837 0.352009
  endloop
endfacet
facet normal 0.55678 0.830657 -0.00237348
  outer loop
    vertex 0.386538 0.922274 2.32146
    vertex 0.703708 0.710489 2.60541
    vertex 0.7082 0.706012 2.0922
  endloop
endfacet
facet normal 0.830299 0.557313 0.00240509
  outer loop
    vertex 0.703708 0.710489 2.60541
    vertex 0.922771 0.385348 2.3215
    vertex 0.7082 0.706012 2.0922
  endloop
endfacet
facet normal 0.54807 0.836412 -0.0058477
  outer loop
    vertex 0.709396 0.70481 3.5521
    vertex 0.71678 0.6973 3.16988
    vertex 0.357018 0.934097 3.32137
  endloop
endfacet
facet normal 0.843165 0.537624 0.00572437
  outer loop
    vertex 0.71678 0.6973 3.16988
    vertex 0.709396 0.70481 3.5521
    vertex 0.93611 0.351707 3.32137
  endloop
endfacet
facet normal 0.980687 0.195071 -0.0141775
  outer loop
    vertex 1 0 0
    vertex 0.92388 0.382683 0
    vertex 0.936496 0.350678 0.432349
  endloop
endfacet
facet normal 0.983996 0.178191 0
  outer loop
    vertex 1 0 0.5
    vertex 1 0 0
    vertex 0.936496 0.350678 0.432349
  endloop
endfacet
facet normal 0.981375 0.192102 -0
  outer loop
    vertex 1 0 3.5
    vertex 0.926193 0.377049 3.72891
    vertex 1 0 4
  endloop
endfacet
facet normal 0.980776 0.195089 0.00431646
  outer loop
    vertex 0.926193 0.377049 3.72891
    vertex 0.92388 0.382683 4
    vertex 1 0 4
  endloop
endfacet
facet normal 0.19509 0.980781 0.00289465
  outer loop
    vertex 0.382683 0.92388 4
    vertex 0.378926 0.925427 3.72891
    vertex 0 1 4
  endloop
endfacet
facet normal 0.193097 0.98118 0
  outer loop
    vertex 0.378926 0.925427 3.72891
    vertex 0 1 3.5
    vertex 0 1 4
  endloop
endfacet
facet normal 0.831461 0.555565 -0.00445069
  outer loop
    vertex 0.926193 0.377049 3.72891
    vertex 0.707107 0.707107 4
    vertex 0.92388 0.382683 4
  endloop
endfacet
facet normal 0.837338 0.546516 -0.0136085
  outer loop
    vertex 0.926193 0.377049 3.72891
    vertex 0.93611 0.351707 3.32137
    vertex 0.709396 0.70481 3.5521
  endloop
endfacet
facet normal 0.982694 0.18482 0.0124194
  outer loop
    vertex 0.93611 0.351707 3.32137
    vertex 0.926193 0.377049 3.72891
    vertex 1 0 3.5
  endloop
endfacet
facet normal 0.833698 0.55222 0.00142939
  outer loop
    vertex 0.709396 0.70481 3.5521
    vertex 0.707107 0.707107 4
    vertex 0.926193 0.377049 3.72891
  endloop
endfacet
facet normal 0.555568 0.831466 -0.0029544
  outer loop
    vertex 0.707107 0.707107 4
    vertex 0.378926 0.925427 3.72891
    vertex 0.382683 0.92388 4
  endloop
endfacet
facet normal 0.550795 0.834556 -0.0118532
  outer loop
    vertex 0.357018 0.934097 3.32137
    vertex 0.378926 0.925427 3.72891
    vertex 0.709396 0.70481 3.5521
  endloop
endfacet
facet normal 0.186766 0.982344 0.0108594
  outer loop
    vertex 0.378926 0.925427 3.72891
    vertex 0.357018 0.934097 3.32137
    vertex 0 1 3.5
  endloop
endfacet
facet normal 0.554698 0.83205 -0.00143128
  outer loop
    vertex 0.707107 0.707107 4
    vertex 0.709396 0.70481 3.5521
    vertex 0.378926 0.925427 3.72891
  endloop
endfacet
facet normal 0.19509 0.980785 0
  outer loop
    vertex 0 1 0.5
    vertex 0.382683 0.92388 0
    vertex 0 1 0
  endloop
endfacet
facet normal 0.272769 0.96004 0.0626106
  outer loop
    vertex 0.511848 0.859076 0.430948
    vertex 0.382683 0.92388 0
    vertex 0 1 0.5
  endloop
endfacet
facet normal -0.983386 0.181525 0
  outer loop
    vertex -0.934097 0.357018 3.32137
    vertex -1 0 3
    vertex -1 0 3.5
  endloop
endfacet
facet normal -0.178731 0.983898 0
  outer loop
    vertex 0 1 3
    vertex -0.351707 0.93611 3.32137
    vertex 0 1 3.5
  endloop
endfacet
facet normal -0.837853 0.542561 0.0602469
  outer loop
    vertex -0.94052 0.339738 0.848264
    vertex -0.687761 0.725937 0.885417
    vertex -0.859076 0.511848 0.430948
  endloop
endfacet
facet normal -0.509952 0.859964 0.0202552
  outer loop
    vertex -0.687761 0.725937 0.885417
    vertex -0.309577 0.950874 0.856667
    vertex -0.350678 0.936496 0.432349
  endloop
endfacet
facet normal -0.980428 0.196153 -0.0168573
  outer loop
    vertex -0.918598 0.395194 2.86411
    vertex -1 0 3
    vertex -0.934097 0.357018 3.32137
  endloop
endfacet
facet normal -0.831633 0.555029 0.0181487
  outer loop
    vertex -0.6973 0.71678 3.16988
    vertex -0.918598 0.395194 2.86411
    vertex -0.934097 0.357018 3.32137
  endloop
endfacet
facet normal -0.195433 0.980534 -0.0189468
  outer loop
    vertex 0 1 3
    vertex -0.395153 0.918615 2.86411
    vertex -0.351707 0.93611 3.32137
  endloop
endfacet
facet normal -0.54177 0.840304 0.0193258
  outer loop
    vertex -0.395153 0.918615 2.86411
    vertex -0.6973 0.71678 3.16988
    vertex -0.351707 0.93611 3.32137
  endloop
endfacet
facet normal -0.985018 0.172453 0
  outer loop
    vertex -0.94052 0.339738 0.848264
    vertex -1 0 0.5
    vertex -1 0 1
  endloop
endfacet
facet normal -0.963595 0.254066 -0.0832744
  outer loop
    vertex -0.859076 0.511848 0.430948
    vertex -1 0 0.5
    vertex -0.94052 0.339738 0.848264
  endloop
endfacet
facet normal -0.156725 0.987642 0
  outer loop
    vertex 0 1 0.5
    vertex -0.309577 0.950874 0.856667
    vertex 0 1 1
  endloop
endfacet
facet normal -0.175103 0.984414 -0.0163962
  outer loop
    vertex 0 1 0.5
    vertex -0.350678 0.936496 0.432349
    vertex -0.309577 0.950874 0.856667
  endloop
endfacet
facet normal -0.197744 0.980254 0
  outer loop
    vertex 0 1 1.5
    vertex -0.387678 0.921795 1.79567
    vertex 0 1 2
  endloop
endfacet
facet normal -0.191242 0.981503 0.00885609
  outer loop
    vertex 0 1 1.5
    vertex -0.365768 0.930706 1.28118
    vertex -0.387678 0.921795 1.79567
  endloop
endfacet
facet normal -0.556513 0.830838 0.00103209
  outer loop
    vertex -0.706012 0.7082 2.0922
    vertex -0.387678 0.921795 1.79567
    vertex -0.703918 0.710281 1.54572
  endloop
endfacet
facet normal -0.550996 0.834459 -0.00901163
  outer loop
    vertex -0.365768 0.930706 1.28118
    vertex -0.703918 0.710281 1.54572
    vertex -0.387678 0.921795 1.79567
  endloop
endfacet
facet normal -0.979813 0.199915 0
  outer loop
    vertex -0.920068 0.391758 1.79544
    vertex -1 0 1.5
    vertex -1 0 2
  endloop
endfacet
facet normal -0.98049 0.196512 0.00469463
  outer loop
    vertex -0.924806 0.38044 1.27978
    vertex -1 0 1.5
    vertex -0.920068 0.391758 1.79544
  endloop
endfacet
facet normal -0.827841 0.560962 -0.00103571
  outer loop
    vertex -0.920068 0.391758 1.79544
    vertex -0.706012 0.7082 2.0922
    vertex -0.703918 0.710281 1.54572
  endloop
endfacet
facet normal -0.829146 0.559012 -0.0046524
  outer loop
    vertex -0.703918 0.710281 1.54572
    vertex -0.924806 0.38044 1.27978
    vertex -0.920068 0.391758 1.79544
  endloop
endfacet
facet normal -0.196506 0.980503 0
  outer loop
    vertex 0 1 2
    vertex -0.385348 0.922771 2.3215
    vertex 0 1 2.5
  endloop
endfacet
facet normal -0.197264 0.98035 -0.000946385
  outer loop
    vertex 0 1 2
    vertex -0.387678 0.921795 1.79567
    vertex -0.385348 0.922771 2.3215
  endloop
endfacet
facet normal -0.556583 0.830792 0.000923469
  outer loop
    vertex -0.387678 0.921795 1.79567
    vertex -0.706012 0.7082 2.0922
    vertex -0.385348 0.922771 2.3215
  endloop
endfacet
facet normal -0.980376 0.197138 0
  outer loop
    vertex -0.922274 0.386538 2.32146
    vertex -1 0 2
    vertex -1 0 2.5
  endloop
endfacet
facet normal -0.980029 0.198844 -0.00213548
  outer loop
    vertex -0.920068 0.391758 1.79544
    vertex -1 0 2
    vertex -0.922274 0.386538 2.32146
  endloop
endfacet
facet normal -0.829191 0.558962 0.00207098
  outer loop
    vertex -0.706012 0.7082 2.0922
    vertex -0.920068 0.391758 1.79544
    vertex -0.922274 0.386538 2.32146
  endloop
endfacet
facet normal -0.981021 0.1939 0
  outer loop
    vertex -0.924806 0.38044 1.27978
    vertex -1 0 1
    vertex -1 0 1.5
  endloop
endfacet
facet normal -0.983386 0.180555 0.018781
  outer loop
    vertex -1 0 1
    vertex -0.924806 0.38044 1.27978
    vertex -0.94052 0.339738 0.848264
  endloop
endfacet
facet normal -0.828262 0.560298 -0.006982
  outer loop
    vertex -0.687761 0.725937 0.885417
    vertex -0.924806 0.38044 1.27978
    vertex -0.703918 0.710281 1.54572
  endloop
endfacet
facet normal -0.835594 0.548932 -0.0213468
  outer loop
    vertex -0.687761 0.725937 0.885417
    vertex -0.94052 0.339738 0.848264
    vertex -0.924806 0.38044 1.27978
  endloop
endfacet
facet normal -0.186137 0.982524 0
  outer loop
    vertex 0 1 1
    vertex -0.365768 0.930706 1.28118
    vertex 0 1 1.5
  endloop
endfacet
facet normal -0.167783 0.985517 0.024612
  outer loop
    vertex -0.365768 0.930706 1.28118
    vertex 0 1 1
    vertex -0.309577 0.950874 0.856667
  endloop
endfacet
facet normal -0.542414 0.840085 0.00664626
  outer loop
    vertex -0.365768 0.930706 1.28118
    vertex -0.687761 0.725937 0.885417
    vertex -0.703918 0.710281 1.54572
  endloop
endfacet
facet normal -0.512526 0.858245 -0.0270659
  outer loop
    vertex -0.309577 0.950874 0.856667
    vertex -0.687761 0.725937 0.885417
    vertex -0.365768 0.930706 1.28118
  endloop
endfacet
facet normal -0.201723 0.979443 0
  outer loop
    vertex 0 1 2.5
    vertex -0.395153 0.918615 2.86411
    vertex 0 1 3
  endloop
endfacet
facet normal -0.198251 0.980143 0.00392452
  outer loop
    vertex 0 1 2.5
    vertex -0.385348 0.922771 2.3215
    vertex -0.395153 0.918615 2.86411
  endloop
endfacet
facet normal -0.559729 0.828653 -0.00611074
  outer loop
    vertex -0.710489 0.703708 2.60541
    vertex -0.6973 0.71678 3.16988
    vertex -0.395153 0.918615 2.86411
  endloop
endfacet
facet normal -0.561034 0.827784 -0.00379743
  outer loop
    vertex -0.395153 0.918615 2.86411
    vertex -0.385348 0.922771 2.3215
    vertex -0.710489 0.703708 2.60541
  endloop
endfacet
facet normal -0.979438 0.201745 0
  outer loop
    vertex -0.918598 0.395194 2.86411
    vertex -1 0 2.5
    vertex -1 0 3
  endloop
endfacet
facet normal -0.980059 0.198676 0.00346958
  outer loop
    vertex -0.922274 0.386538 2.32146
    vertex -1 0 2.5
    vertex -0.918598 0.395194 2.86411
  endloop
endfacet
facet normal -0.826556 0.56282 0.00628016
  outer loop
    vertex -0.6973 0.71678 3.16988
    vertex -0.710489 0.703708 2.60541
    vertex -0.918598 0.395194 2.86411
  endloop
endfacet
facet normal -0.830284 0.55733 -0.00326602
  outer loop
    vertex -0.922274 0.386538 2.32146
    vertex -0.918598 0.395194 2.86411
    vertex -0.710489 0.703708 2.60541
  endloop
endfacet
facet normal -0.555085 0.830744 -0.041774
  outer loop
    vertex -0.707107 0.707107 0
    vertex -0.631837 0.775101 0.352009
    vertex -0.382683 0.92388 0
  endloop
endfacet
facet normal -0.500335 0.865752 0.0117745
  outer loop
    vertex -0.631837 0.775101 0.352009
    vertex -0.350678 0.936496 0.432349
    vertex -0.382683 0.92388 0
  endloop
endfacet
facet normal -0.503416 0.863628 0.0268207
  outer loop
    vertex -0.631837 0.775101 0.352009
    vertex -0.687761 0.725937 0.885417
    vertex -0.350678 0.936496 0.432349
  endloop
endfacet
facet normal -0.759763 0.6499 -0.0197544
  outer loop
    vertex -0.687761 0.725937 0.885417
    vertex -0.631837 0.775101 0.352009
    vertex -0.859076 0.511848 0.430948
  endloop
endfacet
facet normal -0.830755 0.555093 -0.0414492
  outer loop
    vertex -0.859076 0.511848 0.430948
    vertex -0.707107 0.707107 0
    vertex -0.92388 0.382683 0
  endloop
endfacet
facet normal -0.75158 0.658793 0.0334564
  outer loop
    vertex -0.707107 0.707107 0
    vertex -0.859076 0.511848 0.430948
    vertex -0.631837 0.775101 0.352009
  endloop
endfacet
facet normal -0.557313 0.830299 0.00240509
  outer loop
    vertex -0.710489 0.703708 2.60541
    vertex -0.385348 0.922771 2.3215
    vertex -0.706012 0.7082 2.0922
  endloop
endfacet
facet normal -0.830657 0.55678 -0.00237348
  outer loop
    vertex -0.922274 0.386538 2.32146
    vertex -0.710489 0.703708 2.60541
    vertex -0.706012 0.7082 2.0922
  endloop
endfacet
facet normal -0.836412 0.54807 -0.0058477
  outer loop
    vertex -0.70481 0.709396 3.5521
    vertex -0.6973 0.71678 3.16988
    vertex -0.934097 0.357018 3.32137
  endloop
endfacet
facet normal -0.537624 0.843165 0.00572437
  outer loop
    vertex -0.6973 0.71678 3.16988
    vertex -0.70481 0.709396 3.5521
    vertex -0.351707 0.93611 3.32137
  endloop
endfacet
facet normal -0.195071 0.980687 -0.0141775
  outer loop
    vertex 0 1 0
    vertex -0.382683 0.92388 0
    vertex -0.350678 0.936496 0.432349
  endloop
endfacet
facet normal -0.178191 0.983996 0
  outer loop
    vertex 0 1 0.5
    vertex 0 1 0
    vertex -0.350678 0.936496 0.432349
  endloop
endfacet
facet normal -0.192102 0.981375 0
  outer loop
    vertex 0 1 3.5
    vertex -0.377049 0.926193 3.72891
    vertex 0 1 4
  endloop
endfacet
facet normal -0.195089 0.980776 0.00431646
  outer loop
    vertex -0.377049 0.926193 3.72891
    vertex -0.382683 0.92388 4
    vertex 0 1 4
  endloop
endfacet
facet normal -0.98118 0.193097 0
  outer loop
    vertex -0.925427 0.378926 3.72891
    vertex -1 0 3.5
    vertex -1 0 4
  endloop
endfacet
facet normal -0.980781 0.19509 0.00289465
  outer loop
    vertex -0.92388 0.382683 4
    vertex -0.925427 0.378926 3.72891
    vertex -1 0 4
  endloop
endfacet
facet normal -0.555565 0.831461 -0.00445069
  outer loop
    vertex -0.377049 0.926193 3.72891
    vertex -0.707107 0.707107 4
    vertex -0.382683 0.92388 4
  endloop
endfacet
facet normal -0.546516 0.837338 -0.0136085
  outer loop
    vertex -0.377049 0.926193 3.72891
    vertex -0.351707 0.93611 3.32137
    vertex -0.70481 0.709396 3.5521
  endloop
endfacet
facet normal -0.18482 0.982694 0.0124194
  outer loop
    vertex -0.351707 0.93611 3.32137
    vertex -0.377049 0.926193 3.72891
    vertex 0 1 3.5
  endloop
endfacet
facet normal -0.55222 0.833698 0.00142939
  outer loop
    vertex -0.70481 0.709396 3.5521
    vertex -0.707107 0.707107 4
    vertex -0.377049 0.926193 3.72891
  endloop
endfacet
facet normal -0.831466 0.555568 -0.0029544
  outer loop
    vertex -0.707107 0.707107 4
    vertex -0.925427 0.378926 3.72891
    vertex -0.92388 0.382683 4
  endloop
endfacet
facet normal -0.834556 0.550795 -0.0118532
  outer loop
    vertex -0.934097 0.357018 3.32137
    vertex -0.925427 0.378926 3.72891
    vertex -0.70481 0.709396 3.5521
  endloop
endfacet
facet normal -0.982344 0.186766 0.0108594
  outer loop
    vertex -0.925427 0.378926 3.72891
    vertex -0.934097 0.357018 3.32137
    vertex -1 0 3.5
  endloop
endfacet
facet normal -0.83205 0.554698 -0.00143128
  outer loop
    vertex -0.707107 0.707107 4
    vertex -0.70481 0.709396 3.5521
    vertex -0.925427 0.378926 3.72891
  endloop
endfacet
facet normal -0.980785 0.19509 0
  outer loop
    vertex -1 0 0.5
    vertex -0.92388 0.382683 0
    vertex -1 0 0
  endloop
endfacet
facet normal -0.96004 0.272769 0.0626106
  outer loop
    vertex -0.859076 0.511848 0.430948
    vertex -0.92388 0.382683 0
    vertex -1 0 0.5
  endloop
endfacet
endsolid Created by Gmsh
